<?xml version="1.0" standalone="no"?>
<!DOCTYPE svg PUBLIC "-//W3C//DTD SVG 1.1//EN" "http://www.w3.org/Graphics/SVG/1.1/DTD/svg11.dtd" >
<svg xmlns="http://www.w3.org/2000/svg">
<metadata></metadata>
<defs>
<font id="blanch_condensed_lightregular" horiz-adv-x="643" >
<font-face units-per-em="2048" ascent="1434" descent="-614" />
<missing-glyph horiz-adv-x="294" />
<glyph horiz-adv-x="2048" />
<glyph horiz-adv-x="2048" />
<glyph unicode="&#xd;" horiz-adv-x="2048" />
<glyph unicode=" "  horiz-adv-x="294" />
<glyph unicode="&#x09;" horiz-adv-x="294" />
<glyph unicode="&#xa0;" horiz-adv-x="294" />
<glyph unicode="!" horiz-adv-x="301" d="M59 -117v1139q0 10 9 10h4q10 0 10 -10v-1139q0 -8 -10 -8h-4q-9 0 -9 8zM59 -373q0 8 9 8h4q10 0 10 -8v-76q0 -8 -10 -8h-4q-9 0 -9 8v76z" />
<glyph unicode="#" horiz-adv-x="1085" d="M39 483v4q0 9 10 9h260v370h-260q-10 0 -10 11v4q0 8 10 8h260v465q0 8 10 8h5q8 0 8 -8v-465h239v465q0 8 9 8h6q8 0 8 -8v-465h262q8 0 8 -8v-4q0 -11 -8 -11h-262v-370h262q8 0 8 -9v-4q0 -8 -8 -8h-262v-465q0 -10 -8 -10h-6q-9 0 -9 10v465h-239v-465q0 -10 -8 -10 h-5q-10 0 -10 10v465h-260q-10 0 -10 8zM332 496h239v370h-239v-370z" />
<glyph unicode="$" horiz-adv-x="641" d="M59 184v39q0 10 9 10h4q10 0 10 -10v-39q0 -66 46.5 -112.5t111.5 -46.5q66 0 112.5 46.5t46.5 112.5v156q0 38 -12 61l-295 521q-27 46 -31 59q-2 8 -2 45v158q0 72 49.5 123.5t120.5 56.5v119q0 8 9 8h6q8 0 8 -8v-119q71 -5 120.5 -56.5t49.5 -123.5v-39q0 -10 -8 -10 h-4q-11 0 -11 10v39q0 66 -46.5 112.5t-112.5 46.5q-65 0 -111.5 -46.5t-46.5 -112.5v-158q0 -38 12 -61l295 -521q26 -45 31 -57q2 -8 2 -47v-156q0 -72 -49.5 -124.5t-120.5 -55.5v-119q0 -8 -8 -8h-6q-9 0 -9 8v119q-71 3 -120.5 55.5t-49.5 124.5z" />
<glyph unicode="%" horiz-adv-x="1159" d="M59 989v193q0 75 54 127.5t129 52.5q74 0 127 -52.5t53 -127.5v-193q0 -73 -53 -126.5t-127 -53.5q-75 0 -129 53t-54 127zM82 989q0 -66 47 -112t113 -46q65 0 111 46t46 112v193q0 66 -46 112.5t-111 46.5q-66 0 -113 -46.5t-47 -112.5v-193zM317 10v328q0 37 2 45 q1 3 31 57l295 523q12 23 12 61v330q0 8 11 8h4q8 0 8 -8v-330q0 -39 -2 -47q-5 -12 -31 -57l-295 -523q-12 -23 -12 -59v-328q0 -10 -8 -10h-6q-9 0 -9 10zM575 184v195q0 75 54 127.5t129 52.5q74 0 127 -52.5t53 -127.5v-195q0 -75 -53 -127.5t-127 -52.5 q-75 0 -129 52.5t-54 127.5zM598 184q0 -66 47 -112.5t113 -46.5t111.5 46.5t45.5 112.5v195q0 66 -45.5 113t-111.5 47t-113 -47t-47 -113v-195z" />
<glyph unicode="&#x26;" horiz-adv-x="759" d="M59 180v465q0 58 33 104.5t86 65.5q-53 19 -86 65.5t-33 104.5v195q0 75 53 128.5t128 53.5h14h25q8 0 8 -8v-6q0 -9 -8 -9h-39q-66 0 -113 -46.5t-47 -112.5v-195q2 -66 48 -113t112 -47h32h45h82v129q0 11 9 11h6q8 0 8 -11v-129h129q8 0 8 -8v-4q0 -8 -8 -8h-25h-104 v-797q0 -8 -8 -8h-174q-75 0 -128 53t-53 127zM80 180q0 -65 47 -111t113 -46h159v782h-159q-66 0 -113 -47q-47 -50 -47 -113v-465z" />
<glyph unicode="'" horiz-adv-x="301" d="M59 899v455q0 10 9 10h6q8 0 8 -10v-455q0 -10 -8 -10h-6q-9 0 -9 10z" />
<glyph unicode="(" horiz-adv-x="438" d="M59 180v1004q0 67 43.5 117t108.5 61q3 1 5.5 -1t2.5 -5v-6q0 -7 -8 -11q-56 -11 -92.5 -54t-36.5 -101v-1004q0 -58 36.5 -102t92.5 -55q8 0 8 -11v-4q0 -8 -8 -8q-65 12 -108.5 62.5t-43.5 117.5z" />
<glyph unicode=")" horiz-adv-x="436" d="M59 8v4q0 11 9 11q56 11 92.5 55t36.5 102v1004q0 58 -36.5 101t-92.5 54q-9 5 -9 11v6q0 3 3 5t6 1q65 -11 108 -61t43 -117v-1004q0 -67 -43 -117.5t-108 -62.5q-9 0 -9 8z" />
<glyph unicode="+" horiz-adv-x="569" d="M59 680v4q0 8 9 8h127v127q0 8 8 8h4q10 0 10 -8v-127h127q8 0 8 -8v-4q0 -10 -8 -10h-127v-125q0 -10 -10 -10h-4q-8 0 -8 10v125h-127q-9 0 -9 10z" />
<glyph unicode="," horiz-adv-x="301" d="M59 190q0 11 9 11h6q8 0 8 -11v-454q0 -10 -8 -10h-6q-9 0 -9 10v454z" />
<glyph unicode="-" horiz-adv-x="571" d="M59 680v4q0 8 9 8h274q8 0 8 -8v-4q0 -10 -8 -10h-274q-9 0 -9 10z" />
<glyph unicode="." horiz-adv-x="301" d="M59 8v185q0 8 9 8h4q10 0 10 -8v-185q0 -8 -10 -8h-4q-9 0 -9 8z" />
<glyph unicode="/" d="M59 10v326q0 37 2 45q1 8 31 59l295 521q12 23 12 61v332q0 8 9 8h4q10 0 10 -8v-332q0 -39 -4 -47q0 -1 -29 -57l-295 -521q-14 -23 -14 -61v-326q0 -10 -8 -10h-4q-9 0 -9 10z" />
<glyph unicode="0" horiz-adv-x="641" d="M59 182v1000q0 75 54 127.5t129 52.5t128.5 -52.5t53.5 -127.5v-160v-2v-8v-830q0 -75 -53.5 -128.5t-128.5 -53.5t-129 53.5t-54 128.5zM82 182q0 -66 47 -112.5t113 -46.5t112.5 46.5t46.5 112.5v754q-2 -3 -5 -9t-5 -9l-297 -523q-12 -23 -12 -61v-152zM82 420 q2 3 5 9t5 9l297 523q12 20 12 57v164q0 66 -46.5 112.5t-112.5 46.5t-113 -46.5t-47 -112.5v-762z" />
<glyph unicode="1" horiz-adv-x="440" d="M59 1350v4q0 8 9 8h139q12 0 12 -10v-1342q0 -10 -10 -10h-4q-8 0 -8 10v1331h-129q-3 0 -6 3t-3 6z" />
<glyph unicode="2" d="M59 10v324q0 39 2 47q1 6 31 57l295 523q12 23 12 59v162q0 66 -46.5 112.5t-112.5 46.5t-113 -46.5t-47 -112.5v-39q0 -10 -8 -10h-4q-9 0 -9 10v39q0 75 53 127.5t128 52.5t128.5 -52.5t53.5 -127.5v-162q0 -37 -2 -45q-2 -4 -6 -11.5t-11 -20t-14 -25.5l-295 -523 q-14 -23 -14 -61v-311h334q8 0 8 -9v-4q0 -10 -8 -10h-346q-9 0 -9 10z" />
<glyph unicode="3" d="M59 182v39q0 10 9 10h4q8 0 8 -10v-39q0 -66 47 -112.5t113 -46.5t112.5 46.5t46.5 112.5v328q0 57 -36.5 101t-92.5 55q-8 0 -8 10v8q0 6 8 10q56 11 92.5 54.5t36.5 101.5v332q0 66 -46.5 112.5t-112.5 46.5t-113 -46.5t-47 -112.5v-39q0 -8 -8 -8h-4q-9 0 -9 8v39 q0 75 53 127.5t128 52.5t128.5 -52.5t53.5 -127.5v-332q0 -58 -34 -104.5t-87 -65.5q54 -21 87.5 -67t33.5 -103v-328q0 -75 -53.5 -128.5t-128.5 -53.5t-128 53.5t-53 128.5z" />
<glyph unicode="4" horiz-adv-x="780" d="M59 547v151q0 39 2 47q6 15 31 58l295 520q10 20 10 31q3 8 11 8h6q8 0 8 -8q-2 -6 -2 -15q-2 -5 -6 -12.5t-11.5 -21t-13.5 -25.5l-295 -520q-14 -23 -14 -62v-139h319v186q0 3 3 6t6 3h6q8 0 8 -9v-186h129q8 0 8 -8v-4q0 -8 -8 -8h-129v-529q0 -10 -8 -10h-6 q-9 0 -9 10v529h-331q-9 0 -9 8z" />
<glyph unicode="5" d="M59 182v39q0 10 9 10h4q10 0 10 -10v-39q0 -66 47 -112.5t113 -46.5q65 0 111 46.5t46 112.5v459q0 66 -46 113t-111 47h-174q-9 0 -9 8v545q0 8 9 8h346q8 0 8 -8v-4q0 -9 -8 -9h-332v-518h160q74 0 127 -53.5t53 -128.5v-459q0 -75 -53 -128.5t-127 -53.5 q-75 0 -129 53.5t-54 128.5z" />
<glyph unicode="6" d="M59 182v1000q0 75 54 127.5t129 52.5q74 0 127 -52.5t53 -127.5v-39q0 -10 -8 -10h-4q-11 0 -11 10v39q0 66 -46 112.5t-111 46.5q-66 0 -113 -46.5t-47 -112.5v-453q24 42 66.5 68t93.5 26q74 0 127 -53.5t53 -128.5v-459q0 -75 -53 -128.5t-127 -53.5q-75 0 -129 53.5 t-54 128.5zM82 182q0 -66 47 -112.5t113 -46.5q65 0 111 46.5t46 112.5v459q0 66 -46 113t-111 47q-66 0 -113 -47t-47 -113v-459z" />
<glyph unicode="7" horiz-adv-x="641" d="M59 10v324q0 39 4 47q0 1 29 57l295 523q14 23 14 59v321h-331q-11 0 -11 9v4q0 8 11 8h344q8 0 8 -8v-334q0 -37 -2 -45q0 -1 -29 -57l-297 -523q-12 -23 -12 -61v-324q0 -10 -8 -10h-4q-11 0 -11 10z" />
<glyph unicode="8" horiz-adv-x="641" d="M59 182v461q0 59 34 106t89 66q-55 19 -89 66t-34 106v195q0 75 54 127.5t129 52.5t128.5 -52.5t53.5 -127.5v-195q0 -59 -34.5 -106t-88.5 -66q54 -19 88.5 -66t34.5 -106v-461q0 -75 -53.5 -128.5t-128.5 -53.5t-129 53.5t-54 128.5zM82 182q0 -66 47 -112.5t113 -46.5 t112.5 46.5t46.5 112.5v461q0 66 -46.5 113t-112.5 47t-113 -47t-47 -113v-461zM82 987q0 -66 47 -113t113 -47t112.5 47t46.5 113v195q0 66 -46.5 112.5t-112.5 46.5t-113 -46.5t-47 -112.5v-195z" />
<glyph unicode="9" horiz-adv-x="641" d="M59 182v39q0 10 11 10h4q8 0 8 -10v-39q0 -66 47 -112.5t113 -46.5t112.5 46.5t46.5 112.5v584q-24 -43 -65.5 -68.5t-93.5 -25.5q-75 0 -129 52.5t-54 127.5v330q0 75 54 127.5t129 52.5t128.5 -52.5t53.5 -127.5v-1000q0 -75 -53.5 -128.5t-128.5 -53.5t-129 53.5 t-54 128.5zM82 852q0 -66 47 -113t113 -47t112.5 47t46.5 113v330q0 66 -46.5 112.5t-112.5 46.5t-113 -46.5t-47 -112.5v-330z" />
<glyph unicode=":" horiz-adv-x="301" d="M59 8v185q0 8 9 8h4q10 0 10 -8v-185q0 -8 -10 -8h-4q-9 0 -9 8zM59 586v184q0 8 9 8h4q10 0 10 -8v-184q0 -8 -10 -8h-4q-9 0 -9 8z" />
<glyph unicode=";" horiz-adv-x="301" d="M59 190v-454q0 -10 9 -10h6q8 0 8 10v454q0 11 -8 11h-6q-9 0 -9 -11zM59 586v184q0 8 9 8h4q10 0 10 -8v-184q0 -8 -10 -8h-4q-9 0 -9 8z" />
<glyph unicode="=" horiz-adv-x="571" d="M59 549v4q0 8 9 8h274q10 0 10 -8v-4q0 -10 -10 -10h-274q-9 0 -9 10zM59 809v6q0 8 9 8h274q10 0 10 -8v-6q0 -8 -10 -8h-274q-9 0 -9 8z" />
<glyph unicode="?" horiz-adv-x="641" d="M59 -41q0 8 9 8h4q10 0 10 -8v-74q0 -10 -10 -10h-4q-9 0 -9 10v74zM59 217v123q0 39 2 47q5 12 31 57l295 521q12 23 12 61v156q0 66 -46.5 112.5t-112.5 46.5t-112 -46.5t-46 -112.5v-39q0 -8 -10 -8h-4q-9 0 -9 8v39q0 75 53 128.5t128 53.5t128.5 -53.5t53.5 -128.5 v-156q0 -37 -2 -45q-2 -5 -6 -12.5t-11.5 -21t-13.5 -25.5l-295 -521q-12 -23 -12 -61v-123q0 -10 -10 -10h-4q-9 0 -9 10z" />
<glyph unicode="@" horiz-adv-x="1236" d="M59 182v1000q0 75 54 127.5t129 52.5h598q74 0 127 -52.5t53 -127.5v-701q0 -75 -53 -128.5t-127 -53.5h-131q-9 0 -9 10v363h-319v-363q0 -10 -8 -10h-4q-11 0 -11 10v574q0 75 54 128.5t129 53.5t127.5 -53.5t52.5 -128.5v-561h119q66 0 111.5 46.5t45.5 112.5v701 q0 66 -45.5 112.5t-111.5 46.5h-598q-66 0 -113 -46.5t-47 -112.5v-1000q0 -66 47 -112.5t113 -46.5h340q10 0 10 -9v-4q0 -10 -10 -10h-340q-75 0 -129 53.5t-54 128.5zM381 694h319v189q0 66 -46.5 112.5t-112.5 46.5t-113 -46.5t-47 -112.5v-189z" />
<glyph unicode="A" d="M59 8v1172q0 75 54 128.5t129 53.5q74 0 127 -53.5t53 -128.5v-1172q0 -8 -8 -8h-4q-11 0 -11 8v664h-317v-664q0 -8 -10 -8h-4q-9 0 -9 8zM82 694h317v486q0 66 -46 112.5t-111 46.5q-66 0 -113 -46.5t-47 -112.5v-486zM125 33z" />
<glyph unicode="B" d="M59 10v1340q0 12 11 12h172q75 0 128.5 -53.5t53.5 -128.5v-328q0 -59 -33.5 -105t-87.5 -67q53 -19 87 -65.5t34 -104.5v-328q0 -75 -53.5 -128.5t-128.5 -53.5h-172q-11 0 -11 10zM82 23h160q66 0 112.5 46.5t46.5 112.5v328q0 66 -46.5 113t-112.5 47h-160v-647z M82 692h160q66 0 112.5 47t46.5 113v328q0 66 -46.5 112.5t-112.5 46.5h-160v-647z" />
<glyph unicode="C" horiz-adv-x="620" d="M59 182v1000q0 75 54 127.5t129 52.5t127.5 -52.5t52.5 -127.5v-39q0 -10 -8 -10h-4q-9 0 -9 10v39q0 66 -46.5 112.5t-112.5 46.5t-113 -46.5t-47 -112.5v-1000q0 -66 47 -112.5t113 -46.5t112.5 46.5t46.5 112.5v45q0 11 9 11h4q8 0 8 -11v-45q0 -75 -52.5 -128.5 t-127.5 -53.5t-129 53.5t-54 128.5z" />
<glyph unicode="D" d="M59 10v1340q0 4 4 8t9 4h170q75 0 127.5 -53.5t52.5 -128.5v-1000q0 -75 -52.5 -127.5t-127.5 -52.5h-170q-13 0 -13 10zM82 20h160q66 0 112.5 47t46.5 113v1000q0 66 -46.5 112.5t-112.5 46.5h-160v-1319z" />
<glyph unicode="E" horiz-adv-x="512" d="M59 10v1340q0 12 11 12h213q8 0 8 -10v-4q0 -9 -8 -9h-201v-647h201q8 0 8 -8v-6q0 -8 -8 -8h-201v-650h201q8 0 8 -8v-4q0 -8 -8 -8h-213q-11 0 -11 10z" />
<glyph unicode="F" horiz-adv-x="512" d="M59 8v1342q0 12 11 12h213q8 0 8 -10v-4q0 -9 -8 -9h-201v-647h201q8 0 8 -8v-6q0 -8 -8 -8h-201v-662q0 -8 -10 -8h-4q-9 0 -9 8z" />
<glyph unicode="G" horiz-adv-x="641" d="M59 180v1000q0 75 53 128.5t128 53.5t128.5 -53.5t53.5 -128.5v-39q0 -11 -10 -11h-4q-9 0 -9 11v39q0 66 -46.5 112.5t-112.5 46.5t-113 -46.5t-47 -112.5v-1000q0 -66 47 -113t113 -47t112.5 47t46.5 113v492h-96q-8 0 -8 8v6q0 8 8 8h109q10 0 10 -8v-506 q0 -75 -53.5 -127.5t-128.5 -52.5t-128 52.5t-53 127.5z" />
<glyph unicode="H" horiz-adv-x="641" d="M59 8v1344q0 10 9 10h4q8 0 8 -10v-662h319v662q0 10 9 10h4q10 0 10 -10v-1344q0 -8 -10 -8h-4q-9 0 -9 8v662h-319v-662q0 -8 -8 -8h-4q-9 0 -9 8z" />
<glyph unicode="I" horiz-adv-x="301" d="M59 8v1344q0 10 11 10h4q8 0 8 -10v-1344q0 -8 -8 -8h-4q-11 0 -11 8z" />
<glyph unicode="J" horiz-adv-x="641" d="M59 180v47q0 3 3 6t6 3h4q8 0 8 -9v-47q0 -66 47 -113t113 -47t112.5 47t46.5 113v1172q0 10 9 10h6q8 0 8 -10v-1172q0 -75 -53.5 -127.5t-128.5 -52.5t-128 52.5t-53 127.5z" />
<glyph unicode="K" d="M59 8v662v22v660q0 10 9 10h4q10 0 10 -10v-660h158q66 0 112.5 47t46.5 113v500q0 10 9 10h6q8 0 8 -10v-500q0 -59 -33.5 -105t-87.5 -65q54 -21 87.5 -67t33.5 -105v-502q0 -8 -8 -8h-6q-9 0 -9 8v502q0 66 -46.5 113t-112.5 47h-158v-662q0 -8 -10 -8h-4q-9 0 -9 8z " />
<glyph unicode="L" horiz-adv-x="489" d="M59 10v1342q0 10 11 10h4q8 0 8 -10v-1332h201q10 0 10 -8v-4q0 -8 -10 -8h-211q-13 0 -13 10z" />
<glyph unicode="M" horiz-adv-x="985" d="M59 8v1172q0 75 54 128.5t129 53.5q58 0 104.5 -34t65.5 -87q19 53 65.5 87t104.5 34q75 0 128.5 -53.5t53.5 -128.5v-1172q0 -8 -10 -8h-4q-9 0 -9 8v1172q0 66 -46.5 112.5t-112.5 46.5t-113 -46.5t-47 -112.5v-1172q0 -8 -8 -8h-4q-9 0 -9 8v1172q0 66 -46.5 112.5 t-112.5 46.5t-113 -46.5t-47 -112.5v-1172q0 -8 -8 -8h-4q-11 0 -11 8z" />
<glyph unicode="N" d="M59 8v1172q0 75 54 128.5t129 53.5q74 0 127 -53.5t53 -128.5v-1172q0 -8 -8 -8h-4q-11 0 -11 8v1172q0 66 -46 112.5t-111 46.5q-66 0 -113 -46.5t-47 -112.5v-1172q0 -8 -8 -8h-6q-9 0 -9 8z" />
<glyph unicode="O" d="M59 180v1000q0 75 54 128.5t129 53.5t127.5 -53.5t52.5 -128.5v-1000q0 -75 -52.5 -127.5t-127.5 -52.5t-129 52.5t-54 127.5zM82 180q0 -66 47 -113t113 -47t112.5 47t46.5 113v1000q0 66 -46.5 112.5t-112.5 46.5t-113 -46.5t-47 -112.5v-1000z" />
<glyph unicode="P" horiz-adv-x="600" d="M59 8v662v22v660q0 10 11 10h172q75 0 127.5 -53.5t52.5 -128.5v-328q0 -75 -52.5 -128.5t-127.5 -53.5h-160v-662q0 -8 -8 -8h-6q-9 0 -9 8zM82 692h160q66 0 112.5 47t46.5 113v328q0 66 -46.5 112.5t-112.5 46.5h-160v-647z" />
<glyph unicode="Q" d="M59 182v1000q0 75 54 128.5t129 53.5t127.5 -53.5t52.5 -128.5v-1000q0 -72 -49 -123.5t-121 -56.5v-123q0 -8 -8 -8h-4q-9 0 -9 8v123q-72 5 -122 56.5t-50 123.5zM82 182q0 -66 47 -112.5t113 -46.5t112.5 46.5t46.5 112.5v1000q0 66 -46.5 112.5t-112.5 46.5 t-113 -46.5t-47 -112.5v-1000z" />
<glyph unicode="R" horiz-adv-x="630" d="M49 8v1342q0 4 3.5 8t8.5 4h170q75 0 129 -53.5t54 -128.5v-328q0 -59 -33.5 -105t-87.5 -65q54 -21 87.5 -67t33.5 -105v-502q0 -8 -11 -8h-4q-8 0 -8 8v502q0 66 -47 113t-113 47h-159v-662q0 -8 -9 -8h-4q-10 0 -10 8zM72 692h159q66 0 113 47t47 113v328 q0 66 -47 112.5t-113 46.5h-159v-647z" />
<glyph unicode="S" horiz-adv-x="600" d="M39 180v39q0 10 10 10h4q8 0 8 -10v-39q0 -66 47 -113t113 -47t113 47t47 113v156q0 38 -12 61l-297 521q-28 55 -29 59q-4 16 -4 45v158q0 75 53.5 128.5t128.5 53.5t128.5 -53.5t53.5 -128.5v-39q0 -11 -10 -11h-4q-8 0 -8 11v39q0 66 -47 112.5t-113 46.5t-113 -46.5 t-47 -112.5v-158q0 -34 13 -61l297 -521q27 -53 28 -57q4 -8 4 -47v-156q0 -75 -53.5 -127.5t-128.5 -52.5t-128.5 52.5t-53.5 127.5z" />
<glyph unicode="T" horiz-adv-x="509" d="M39 1348v4q0 10 8 10h254q8 0 8 -10v-4q0 -9 -8 -9h-117v-1331q0 -8 -8 -8h-4q-8 0 -8 8v1331h-117q-8 0 -8 9z" />
<glyph unicode="U" d="M59 180v1172q0 10 11 10h4q8 0 8 -10v-1172q0 -66 47 -113t113 -47t112.5 47t46.5 113v1172q0 10 9 10h4q8 0 8 -10v-1172q0 -75 -52.5 -127.5t-127.5 -52.5t-129 52.5t-54 127.5z" />
<glyph unicode="V" d="M59 289v1065q0 8 11 8h4q8 0 8 -8v-1065q0 -43 20 -76l109 -190h61l109 188q9 16 14 35.5t5 31.5l1 11v1065q0 8 9 8h4q8 0 8 -8v-1065q0 -49 -23 -88l-112 -195q-3 -6 -8 -6h-74q-7 0 -10 6l-111 195q-25 42 -25 88z" />
<glyph unicode="W" horiz-adv-x="983" d="M59 289v1065q0 8 9 8h6q8 0 8 -8v-1065q0 -43 20 -76l109 -190h59l111 188q8 16 12.5 35.5t4.5 31.5l1 11v1065q0 8 11 8h4q8 0 8 -8v-1065q0 -43 20 -76l109 -190h61l109 188q9 16 14 35.5t5 31.5l1 11v1065q0 8 9 8h4q10 0 10 -8v-1065q0 -46 -25 -88l-110 -195 q-3 -6 -11 -6h-73q-5 0 -8 6l-113 195q-10 16 -12 28q-2 -5 -6.5 -14t-6.5 -14l-112 -195q-3 -6 -8 -6h-74q-7 0 -10 6l-111 195q-25 39 -25 88z" />
<glyph unicode="X" d="M59 8v326q0 52 31 100v2l137 240l-137 242v2q-31 45 -31 100v332q0 10 9 10h4q10 0 10 -10v-332q0 -30 8 -51l2 -6l148 -263l149 263l2 6q8 21 8 51v332q0 10 11 10h4q8 0 8 -10v-332q0 -55 -31 -100v-2l-137 -242l137 -240v-2q31 -48 31 -100v-326q0 -8 -8 -8h-4 q-11 0 -11 8v326q0 30 -8 51l-2 4l-149 264l-148 -264l-2 -4q-8 -21 -8 -51v-326q0 -8 -10 -8h-4q-9 0 -9 8z" />
<glyph unicode="Y" horiz-adv-x="602" d="M39 852v500q0 10 8 10h4q10 0 10 -10v-500q0 -66 47 -113t113 -47q65 0 111.5 47t46.5 113v500q0 10 10 10h4q8 0 8 -10v-500q0 -72 -49.5 -124.5t-120.5 -57.5v-662q0 -8 -8 -8h-6q-8 0 -8 8v662q-71 5 -120.5 57.5t-49.5 124.5z" />
<glyph unicode="Z" horiz-adv-x="620" d="M59 8v326q0 31 4 47q0 1 29 57l297 520q12 25 12 62v319h-331q-11 0 -11 9v4q0 10 11 10h344q10 0 10 -10v-332q0 -37 -4 -45q-1 -6 -29 -60l-297 -520q-12 -23 -12 -61v-314h332q10 0 10 -8v-6q0 -6 -10 -6h-344q-11 0 -11 8z" />
<glyph unicode="[" horiz-adv-x="509" d="M59 12v1340q0 10 13 10h211q10 0 10 -8v-4q0 -9 -10 -9h-201v-1318h201q10 0 10 -9v-4q0 -10 -10 -10h-211q-5 0 -9 4t-4 8z" />
<glyph unicode="\" d="M59 1022v332q0 8 9 8h4q8 0 8 -8v-332q0 -38 14 -61l295 -521q28 -55 29 -59q4 -8 4 -45v-326q0 -10 -10 -10h-4q-9 0 -9 10v326q0 38 -12 61l-295 521q-30 51 -31 57q-2 8 -2 47z" />
<glyph unicode="]" horiz-adv-x="509" d="M59 10v4q0 9 11 9h200v1318h-200q-11 0 -11 9v4q0 8 11 8h211q12 0 12 -10v-1340q0 -4 -3.5 -8t-8.5 -4h-211q-11 0 -11 10z" />
<glyph unicode="^" horiz-adv-x="612" d="M55 1561l90 161q9 9 15 9h69q11 0 15 -9l90 -161q4 -7 -4 -7h-8q-8 0 -15 7l-82 147h-61l-82 -147q-4 -7 -14 -7h-9q-7 0 -4 7z" />
<glyph unicode="`" horiz-adv-x="452" d="M57 1722q-3 7 4 7h9q8 0 12 -7l92 -161q4 -9 -4 -9h-8q-10 0 -15 9z" />
<glyph unicode="a" d="M59 8v1172q0 75 54 128.5t129 53.5q74 0 127 -53.5t53 -128.5v-1172q0 -8 -8 -8h-4q-11 0 -11 8v664h-317v-664q0 -8 -10 -8h-4q-9 0 -9 8zM82 694h317v486q0 66 -46 112.5t-111 46.5q-66 0 -113 -46.5t-47 -112.5v-486zM125 33z" />
<glyph unicode="b" d="M59 10v1340q0 12 11 12h172q75 0 128.5 -53.5t53.5 -128.5v-328q0 -59 -33.5 -105t-87.5 -67q53 -19 87 -65.5t34 -104.5v-328q0 -75 -53.5 -128.5t-128.5 -53.5h-172q-11 0 -11 10zM82 23h160q66 0 112.5 46.5t46.5 112.5v328q0 66 -46.5 113t-112.5 47h-160v-647z M82 692h160q66 0 112.5 47t46.5 113v328q0 66 -46.5 112.5t-112.5 46.5h-160v-647z" />
<glyph unicode="c" horiz-adv-x="620" d="M59 182v1000q0 75 54 127.5t129 52.5t127.5 -52.5t52.5 -127.5v-39q0 -10 -8 -10h-4q-9 0 -9 10v39q0 66 -46.5 112.5t-112.5 46.5t-113 -46.5t-47 -112.5v-1000q0 -66 47 -112.5t113 -46.5t112.5 46.5t46.5 112.5v45q0 11 9 11h4q8 0 8 -11v-45q0 -75 -52.5 -128.5 t-127.5 -53.5t-129 53.5t-54 128.5z" />
<glyph unicode="d" d="M59 10v1340q0 4 4 8t9 4h170q75 0 127.5 -53.5t52.5 -128.5v-1000q0 -75 -52.5 -127.5t-127.5 -52.5h-170q-13 0 -13 10zM82 20h160q66 0 112.5 47t46.5 113v1000q0 66 -46.5 112.5t-112.5 46.5h-160v-1319z" />
<glyph unicode="e" horiz-adv-x="512" d="M59 10v1340q0 12 11 12h213q8 0 8 -10v-4q0 -9 -8 -9h-201v-647h201q8 0 8 -8v-6q0 -8 -8 -8h-201v-650h201q8 0 8 -8v-4q0 -8 -8 -8h-213q-11 0 -11 10z" />
<glyph unicode="f" horiz-adv-x="512" d="M59 8v1342q0 12 11 12h213q8 0 8 -10v-4q0 -9 -8 -9h-201v-647h201q8 0 8 -8v-6q0 -8 -8 -8h-201v-662q0 -8 -10 -8h-4q-9 0 -9 8z" />
<glyph unicode="g" horiz-adv-x="641" d="M59 180v1000q0 75 53 128.5t128 53.5t128.5 -53.5t53.5 -128.5v-39q0 -11 -10 -11h-4q-9 0 -9 11v39q0 66 -46.5 112.5t-112.5 46.5t-113 -46.5t-47 -112.5v-1000q0 -66 47 -113t113 -47t112.5 47t46.5 113v492h-96q-8 0 -8 8v6q0 8 8 8h109q10 0 10 -8v-506 q0 -75 -53.5 -127.5t-128.5 -52.5t-128 52.5t-53 127.5z" />
<glyph unicode="h" horiz-adv-x="641" d="M59 8v1344q0 10 9 10h4q8 0 8 -10v-662h319v662q0 10 9 10h4q10 0 10 -10v-1344q0 -8 -10 -8h-4q-9 0 -9 8v662h-319v-662q0 -8 -8 -8h-4q-9 0 -9 8z" />
<glyph unicode="i" horiz-adv-x="301" d="M59 8v1344q0 10 11 10h4q8 0 8 -10v-1344q0 -8 -8 -8h-4q-11 0 -11 8z" />
<glyph unicode="j" horiz-adv-x="641" d="M59 180v47q0 3 3 6t6 3h4q8 0 8 -9v-47q0 -66 47 -113t113 -47t112.5 47t46.5 113v1172q0 10 9 10h6q8 0 8 -10v-1172q0 -75 -53.5 -127.5t-128.5 -52.5t-128 52.5t-53 127.5z" />
<glyph unicode="k" d="M59 8v662v22v660q0 10 9 10h4q10 0 10 -10v-660h158q66 0 112.5 47t46.5 113v500q0 10 9 10h6q8 0 8 -10v-500q0 -59 -33.5 -105t-87.5 -65q54 -21 87.5 -67t33.5 -105v-502q0 -8 -8 -8h-6q-9 0 -9 8v502q0 66 -46.5 113t-112.5 47h-158v-662q0 -8 -10 -8h-4q-9 0 -9 8z " />
<glyph unicode="l" horiz-adv-x="489" d="M59 10v1342q0 10 11 10h4q8 0 8 -10v-1332h201q10 0 10 -8v-4q0 -8 -10 -8h-211q-13 0 -13 10z" />
<glyph unicode="m" horiz-adv-x="985" d="M59 8v1172q0 75 54 128.5t129 53.5q58 0 104.5 -34t65.5 -87q19 53 65.5 87t104.5 34q75 0 128.5 -53.5t53.5 -128.5v-1172q0 -8 -10 -8h-4q-9 0 -9 8v1172q0 66 -46.5 112.5t-112.5 46.5t-113 -46.5t-47 -112.5v-1172q0 -8 -8 -8h-4q-9 0 -9 8v1172q0 66 -46.5 112.5 t-112.5 46.5t-113 -46.5t-47 -112.5v-1172q0 -8 -8 -8h-4q-11 0 -11 8z" />
<glyph unicode="n" d="M59 8v1172q0 75 54 128.5t129 53.5q74 0 127 -53.5t53 -128.5v-1172q0 -8 -8 -8h-4q-11 0 -11 8v1172q0 66 -46 112.5t-111 46.5q-66 0 -113 -46.5t-47 -112.5v-1172q0 -8 -8 -8h-6q-9 0 -9 8z" />
<glyph unicode="o" d="M59 180v1000q0 75 54 128.5t129 53.5t127.5 -53.5t52.5 -128.5v-1000q0 -75 -52.5 -127.5t-127.5 -52.5t-129 52.5t-54 127.5zM82 180q0 -66 47 -113t113 -47t112.5 47t46.5 113v1000q0 66 -46.5 112.5t-112.5 46.5t-113 -46.5t-47 -112.5v-1000z" />
<glyph unicode="p" horiz-adv-x="600" d="M59 8v662v22v660q0 10 11 10h172q75 0 127.5 -53.5t52.5 -128.5v-328q0 -75 -52.5 -128.5t-127.5 -53.5h-160v-662q0 -8 -8 -8h-6q-9 0 -9 8zM82 692h160q66 0 112.5 47t46.5 113v328q0 66 -46.5 112.5t-112.5 46.5h-160v-647z" />
<glyph unicode="q" d="M59 182v1000q0 75 54 128.5t129 53.5t127.5 -53.5t52.5 -128.5v-1000q0 -72 -49 -123.5t-121 -56.5v-123q0 -8 -8 -8h-4q-9 0 -9 8v123q-72 5 -122 56.5t-50 123.5zM82 182q0 -66 47 -112.5t113 -46.5t112.5 46.5t46.5 112.5v1000q0 66 -46.5 112.5t-112.5 46.5 t-113 -46.5t-47 -112.5v-1000z" />
<glyph unicode="r" horiz-adv-x="630" d="M49 8v1342q0 4 3.5 8t8.5 4h170q75 0 129 -53.5t54 -128.5v-328q0 -59 -33.5 -105t-87.5 -65q54 -21 87.5 -67t33.5 -105v-502q0 -8 -11 -8h-4q-8 0 -8 8v502q0 66 -47 113t-113 47h-159v-662q0 -8 -9 -8h-4q-10 0 -10 8zM72 692h159q66 0 113 47t47 113v328 q0 66 -47 112.5t-113 46.5h-159v-647z" />
<glyph unicode="s" horiz-adv-x="600" d="M39 180v39q0 10 10 10h4q8 0 8 -10v-39q0 -66 47 -113t113 -47t113 47t47 113v156q0 38 -12 61l-297 521q-28 55 -29 59q-4 16 -4 45v158q0 75 53.5 128.5t128.5 53.5t128.5 -53.5t53.5 -128.5v-39q0 -11 -10 -11h-4q-8 0 -8 11v39q0 66 -47 112.5t-113 46.5t-113 -46.5 t-47 -112.5v-158q0 -34 13 -61l297 -521q27 -53 28 -57q4 -8 4 -47v-156q0 -75 -53.5 -127.5t-128.5 -52.5t-128.5 52.5t-53.5 127.5z" />
<glyph unicode="t" horiz-adv-x="509" d="M39 1348v4q0 10 8 10h254q8 0 8 -10v-4q0 -9 -8 -9h-117v-1331q0 -8 -8 -8h-4q-8 0 -8 8v1331h-117q-8 0 -8 9z" />
<glyph unicode="u" d="M59 180v1172q0 10 11 10h4q8 0 8 -10v-1172q0 -66 47 -113t113 -47t112.5 47t46.5 113v1172q0 10 9 10h4q8 0 8 -10v-1172q0 -75 -52.5 -127.5t-127.5 -52.5t-129 52.5t-54 127.5z" />
<glyph unicode="v" d="M59 289v1065q0 8 11 8h4q8 0 8 -8v-1065q0 -43 20 -76l109 -190h61l109 188q9 16 14 35.5t5 31.5l1 11v1065q0 8 9 8h4q8 0 8 -8v-1065q0 -49 -23 -88l-112 -195q-3 -6 -8 -6h-74q-7 0 -10 6l-111 195q-25 42 -25 88z" />
<glyph unicode="w" horiz-adv-x="983" d="M59 289v1065q0 8 9 8h6q8 0 8 -8v-1065q0 -43 20 -76l109 -190h59l111 188q8 16 12.5 35.5t4.5 31.5l1 11v1065q0 8 11 8h4q8 0 8 -8v-1065q0 -43 20 -76l109 -190h61l109 188q9 16 14 35.5t5 31.5l1 11v1065q0 8 9 8h4q10 0 10 -8v-1065q0 -46 -25 -88l-110 -195 q-3 -6 -11 -6h-73q-5 0 -8 6l-113 195q-10 16 -12 28q-2 -5 -6.5 -14t-6.5 -14l-112 -195q-3 -6 -8 -6h-74q-7 0 -10 6l-111 195q-25 39 -25 88z" />
<glyph unicode="x" d="M59 8v326q0 52 31 100v2l137 240l-137 242v2q-31 45 -31 100v332q0 10 9 10h4q10 0 10 -10v-332q0 -30 8 -51l2 -6l148 -263l149 263l2 6q8 21 8 51v332q0 10 11 10h4q8 0 8 -10v-332q0 -55 -31 -100v-2l-137 -242l137 -240v-2q31 -48 31 -100v-326q0 -8 -8 -8h-4 q-11 0 -11 8v326q0 30 -8 51l-2 4l-149 264l-148 -264l-2 -4q-8 -21 -8 -51v-326q0 -8 -10 -8h-4q-9 0 -9 8z" />
<glyph unicode="y" horiz-adv-x="602" d="M39 852v500q0 10 8 10h4q10 0 10 -10v-500q0 -66 47 -113t113 -47q65 0 111.5 47t46.5 113v500q0 10 10 10h4q8 0 8 -10v-500q0 -72 -49.5 -124.5t-120.5 -57.5v-662q0 -8 -8 -8h-6q-8 0 -8 8v662q-71 5 -120.5 57.5t-49.5 124.5z" />
<glyph unicode="z" horiz-adv-x="620" d="M59 8v326q0 31 4 47q0 1 29 57l297 520q12 25 12 62v319h-331q-11 0 -11 9v4q0 10 11 10h344q10 0 10 -10v-332q0 -37 -4 -45q-1 -6 -29 -60l-297 -520q-12 -23 -12 -61v-314h332q10 0 10 -8v-6q0 -6 -10 -6h-344q-11 0 -11 8z" />
<glyph unicode="&#xa1;" horiz-adv-x="301" d="M59 -115v1139q0 8 11 8h4q8 0 8 -8v-1139q0 -10 -8 -10h-4q-11 0 -11 10zM59 1280v76q0 8 11 8h4q8 0 8 -8v-76q0 -8 -8 -8h-4q-11 0 -11 8z" />
<glyph unicode="&#xa8;" horiz-adv-x="509" d="M59 1563v75q0 9 11 9h4q8 0 8 -9v-75q0 -9 -8 -9h-4q-11 0 -11 9zM270 1563v75q0 3 3 6t6 3h4q10 0 10 -9v-75q0 -9 -10 -9h-4q-3 0 -6 3t-3 6z" />
<glyph unicode="&#xad;" horiz-adv-x="571" d="M59 680v4q0 8 9 8h274q8 0 8 -8v-4q0 -10 -8 -10h-274q-9 0 -9 10z" />
<glyph unicode="&#xaf;" horiz-adv-x="1705" />
<glyph unicode="&#xb4;" horiz-adv-x="450" d="M54.5 1555q-1.5 3 0.5 6l90 161q3 7 15 7h8q8 0 4 -7l-90 -161q-9 -9 -14 -9h-9q-3 0 -4.5 3z" />
<glyph unicode="&#xb7;" horiz-adv-x="1705" />
<glyph unicode="&#xb8;" horiz-adv-x="1705" />
<glyph unicode="&#xbf;" horiz-adv-x="641" d="M59 55v156q0 39 2 47q5 12 31 57l295 523q12 23 12 59v125q0 8 9 8h6q8 0 8 -8v-125q0 -37 -2 -45q-2 -4 -6 -11.5t-11.5 -21.5t-13.5 -26l-295 -521q-12 -23 -12 -61v-156q0 -66 46 -112.5t112 -46.5t112.5 46.5t46.5 112.5v39q0 8 9 8h6q8 0 8 -8v-39 q0 -75 -53.5 -128.5t-128.5 -53.5q-74 0 -127.5 53.5t-53.5 128.5zM399 1278v76q0 8 9 8h6q8 0 8 -8v-76q0 -8 -8 -8h-6q-9 0 -9 8z" />
<glyph unicode="&#xc0;" d="M59 8v1172q0 75 54 128.5t129 53.5q74 0 127 -53.5t53 -128.5v-1172q0 -8 -8 -8h-4q-11 0 -11 8v664h-317v-664q0 -8 -10 -8h-4q-9 0 -9 8zM82 694h317v486q0 66 -46 112.5t-111 46.5q-66 0 -113 -46.5t-47 -112.5v-486zM104 1722q-4 7 5 7h8q9 0 12 -7l92 -161 q2 -3 0.5 -6t-4.5 -3h-8q-9 0 -14 9zM125 33z" />
<glyph unicode="&#xc1;" d="M59 8v1172q0 75 54 128.5t129 53.5q74 0 127 -53.5t53 -128.5v-1172q0 -8 -8 -8h-4q-11 0 -11 8v664h-317v-664q0 -8 -10 -8h-4q-9 0 -9 8zM82 694h317v486q0 66 -46 112.5t-111 46.5q-66 0 -113 -46.5t-47 -112.5v-486zM125 33zM252 1561l90 161q4 7 14 7h9q7 0 4 -7 l-90 -161q-9 -9 -15 -9h-8q-8 0 -4 9z" />
<glyph unicode="&#xc2;" d="M59 8v1172q0 75 54 128.5t129 53.5q74 0 127 -53.5t53 -128.5v-1172q0 -8 -8 -8h-4q-11 0 -11 8v664h-317v-664q0 -8 -10 -8h-4q-9 0 -9 8zM82 694h317v486q0 66 -46 112.5t-111 46.5q-66 0 -113 -46.5t-47 -112.5v-486zM102 1561l91 161q3 7 14 7h69q8 0 15 -7l90 -161 q2 -3 0.5 -6t-4.5 -3h-8q-11 0 -15 9l-82 147h-61l-84 -147q-5 -9 -12 -9h-9q-8 0 -4 9zM125 33z" />
<glyph unicode="&#xc3;" horiz-adv-x="1705" />
<glyph unicode="&#xc4;" d="M59 8v1172q0 75 54 128.5t129 53.5q74 0 127 -53.5t53 -128.5v-1172q0 -8 -8 -8h-4q-11 0 -11 8v664h-317v-664q0 -8 -10 -8h-4q-9 0 -9 8zM82 694h317v486q0 66 -46 112.5t-111 46.5q-66 0 -113 -46.5t-47 -112.5v-486zM125 33zM125 1563v75q0 9 10 9h4q8 0 8 -9v-75 q0 -9 -8 -9h-4q-10 0 -10 9zM336 1563v75q0 9 8 9h4q10 0 10 -9v-75q0 -9 -10 -9h-4q-8 0 -8 9z" />
<glyph unicode="&#xc5;" horiz-adv-x="1705" />
<glyph unicode="&#xc6;" horiz-adv-x="1705" />
<glyph unicode="&#xc7;" horiz-adv-x="641" d="M59 180v1002q0 75 53 127.5t128 52.5t128.5 -52.5t53.5 -127.5v-41q0 -8 -8 -8h-6q-9 0 -9 8v41q0 66 -46.5 112.5t-112.5 46.5t-113 -46.5t-47 -112.5v-1002q0 -66 47 -113t113 -47t112.5 47t46.5 113v47q0 3 3 6t6 3h6q8 0 8 -9v-47q0 -72 -49.5 -123.5t-120.5 -56.5 v-119q0 -8 -10 -8h-4q-9 0 -9 8v119q-71 5 -120.5 56.5t-49.5 123.5z" />
<glyph unicode="&#xc8;" horiz-adv-x="512" d="M4 10v1340q0 12 10 12h213q9 0 9 -10v-4q0 -3 -3 -6t-6 -3h-200v-647h200q9 0 9 -8v-6q0 -8 -9 -8h-200v-650h200q9 0 9 -8v-4q0 -8 -9 -8h-213q-10 0 -10 10zM6 1722q-4 7 4 7h8q10 0 13 -7l92 -161q2 -3 0.5 -6t-4.5 -3h-8q-11 0 -15 9z" />
<glyph unicode="&#xc9;" horiz-adv-x="550" d="M59 10v1340q0 12 11 12h213q8 0 8 -10v-4q0 -9 -8 -9h-201v-647h201q8 0 8 -8v-6q0 -8 -8 -8h-201v-650h201q8 0 8 -8v-4q0 -8 -8 -8h-213q-11 0 -11 10zM172 1561l90 161q4 7 14 7h9q7 0 4 -7l-90 -161q-9 -9 -15 -9h-8q-8 0 -4 9z" />
<glyph unicode="&#xca;" horiz-adv-x="512" d="M8 1561l90 161q4 9 13 9h71q8 0 13 -9l92 -161q3 -7 -6 -7h-9q-8 0 -12 7l-84 147h-59l-84 -147q-3 -7 -13 -7h-8q-11 0 -4 7zM31 10v1340q0 12 10 12h213q8 0 8 -10v-4q0 -9 -8 -9h-201v-647h201q8 0 8 -8v-6q0 -8 -8 -8h-201v-650h201q8 0 8 -8v-4q0 -8 -8 -8h-213 q-10 0 -10 10z" />
<glyph unicode="&#xcb;" horiz-adv-x="512" d="M59 1563v75q0 9 11 9h4q8 0 8 -9v-75q0 -9 -8 -9h-4q-11 0 -11 9zM61 10v1340q0 12 11 12h213q8 0 8 -10v-4q0 -9 -8 -9h-201v-647h201q8 0 8 -8v-6q0 -8 -8 -8h-201v-650h201q8 0 8 -8v-4q0 -8 -8 -8h-213q-11 0 -11 10zM270 1563v75q0 3 3 6t6 3h4q10 0 10 -9v-75 q0 -9 -10 -9h-4q-3 0 -6 3t-3 6z" />
<glyph unicode="&#xcc;" horiz-adv-x="301" d="M-96 1722q-4 9 4 9h8q5 0 14 -9l90 -161q4 -7 -4 -7h-8q-10 0 -14 7zM29 8v1344q0 10 10 10h4q8 0 8 -10v-1344q0 -8 -8 -8h-4q-10 0 -10 8z" />
<glyph unicode="&#xcd;" horiz-adv-x="301" d="M49 8q0 -8 10 -8h4q9 0 9 8v1344q0 10 -9 10h-4q-10 0 -10 -10v-1344zM72 1563l92 159q3 9 12 9h8q10 0 4 -9l-90 -159q-4 -9 -12 -9h-10q-8 0 -4 9z" />
<glyph unicode="&#xce;" horiz-adv-x="301" d="M-100 1563l92 159q4 9 12 9h72q8 0 12 -9l90 -159q3 -3 1.5 -6t-5.5 -3h-8q-8 0 -12 9l-84 145h-60l-84 -145q-4 -9 -12 -9h-8q-10 0 -6 9zM29 8q0 -8 10 -8h4q8 0 8 8v1344q0 10 -8 10h-4q-10 0 -10 -10v-1344z" />
<glyph unicode="&#xcf;" horiz-adv-x="301" d="M-45 1563v75q0 9 10 9h4q8 0 8 -9v-75q0 -9 -8 -9h-4q-10 0 -10 9zM61 8q0 -8 11 -8h4q8 0 8 8v1344q0 10 -8 10h-4q-11 0 -11 -10v-1344zM166 1563v75q0 9 8 9h4q10 0 10 -9v-75q0 -9 -10 -9h-4q-8 0 -8 9z" />
<glyph unicode="&#xd1;" horiz-adv-x="641" d="M59 8v1172q0 75 53 128.5t128 53.5t128.5 -53.5t53.5 -128.5v-1172q0 -8 -8 -8h-6q-9 0 -9 8v1172q0 66 -46.5 112.5t-112.5 46.5t-113 -46.5t-47 -112.5v-1172q0 -8 -8 -8h-4q-9 0 -9 8zM125 1616v6q0 8 8 8h215q8 0 8 -8v-6q0 -8 -8 -8h-215q-8 0 -8 8z" />
<glyph unicode="&#xd2;" d="M59 180v1000q0 75 54 128.5t129 53.5t127.5 -53.5t52.5 -128.5v-1000q0 -75 -52.5 -127.5t-127.5 -52.5t-129 52.5t-54 127.5zM82 180q0 -66 47 -113t113 -47t112.5 47t46.5 113v1000q0 66 -46.5 112.5t-112.5 46.5t-113 -46.5t-47 -112.5v-1000zM102 1722q-4 9 7 9h8 q7 0 12 -9l90 -161q7 -7 -4 -7h-8q-9 0 -12 7z" />
<glyph unicode="&#xd3;" d="M59 180q0 -75 54 -127.5t129 -52.5t127.5 52.5t52.5 127.5v1000q0 75 -52.5 128.5t-127.5 53.5t-129 -53.5t-54 -128.5v-1000zM82 180v1000q0 66 47 112.5t113 46.5t112.5 -46.5t46.5 -112.5v-1000q0 -66 -46.5 -113t-112.5 -47t-113 47t-47 113zM262 1561l90 161 q4 9 13 9h8q4 0 6 -3t0 -6l-92 -161q-3 -7 -13 -7h-8q-11 0 -4 7z" />
<glyph unicode="&#xd4;" horiz-adv-x="641" d="M59 180q0 -75 54 -127.5t129 -52.5t127.5 52.5t52.5 127.5v1000q0 75 -52.5 128.5t-127.5 53.5t-129 -53.5t-54 -128.5v-1000zM82 180v1000q0 66 47 112.5t113 46.5t112.5 -46.5t46.5 -112.5v-1000q0 -66 -46.5 -113t-112.5 -47t-113 47t-47 113zM100 1561l90 161 q9 9 15 9h69q10 0 15 -9l90 -161q3 -7 -4 -7h-8q-8 0 -15 7l-82 147h-61l-82 -147q-3 -7 -14 -7h-9q-8 0 -4 7z" />
<glyph unicode="&#xd5;" horiz-adv-x="1705" />
<glyph unicode="&#xd6;" d="M59 180q0 -75 54 -127.5t129 -52.5t127.5 52.5t52.5 127.5v1000q0 75 -52.5 128.5t-127.5 53.5t-129 -53.5t-54 -128.5v-1000zM82 180v1000q0 66 47 112.5t113 46.5t112.5 -46.5t46.5 -112.5v-1000q0 -66 -46.5 -113t-112.5 -47t-113 47t-47 113zM125 1563v75q0 9 10 9h4 q8 0 8 -9v-75q0 -9 -8 -9h-4q-10 0 -10 9zM336 1563v75q0 9 8 9h4q10 0 10 -9v-75q0 -9 -10 -9h-4q-8 0 -8 9z" />
<glyph unicode="&#xd8;" horiz-adv-x="1705" />
<glyph unicode="&#xd9;" d="M59 180v1172q0 10 11 10h4q8 0 8 -10v-1172q0 -66 47 -113t113 -47t112.5 47t46.5 113v1172q0 10 9 10h4q8 0 8 -10v-1172q0 -75 -52.5 -127.5t-127.5 -52.5t-129 52.5t-54 127.5zM102 1722q-4 9 7 9h8q7 0 12 -9l90 -161q7 -7 -4 -7h-8q-9 0 -12 7z" />
<glyph unicode="&#xda;" d="M59 180q0 -75 54 -127.5t129 -52.5t127.5 52.5t52.5 127.5v1172q0 10 -8 10h-4q-9 0 -9 -10v-1172q0 -66 -46.5 -113t-112.5 -47t-113 47t-47 113v1172q0 10 -8 10h-4q-11 0 -11 -10v-1172zM262 1561l90 161q4 9 13 9h8q4 0 6 -3t0 -6l-92 -161q-3 -7 -13 -7h-8 q-11 0 -4 7z" />
<glyph unicode="&#xdb;" d="M59 180q0 -75 54 -127.5t129 -52.5t127.5 52.5t52.5 127.5v1172q0 10 -8 10h-4q-9 0 -9 -10v-1172q0 -66 -46.5 -113t-112.5 -47t-113 47t-47 113v1172q0 10 -8 10h-4q-11 0 -11 -10v-1172zM100 1561l90 161q9 9 15 9h69q10 0 15 -9l90 -161q3 -7 -4 -7h-8q-8 0 -15 7 l-82 147h-61l-82 -147q-3 -7 -14 -7h-9q-8 0 -4 7z" />
<glyph unicode="&#xdc;" d="M59 180q0 -75 54 -127.5t129 -52.5t127.5 52.5t52.5 127.5v1172q0 10 -8 10h-4q-9 0 -9 -10v-1172q0 -66 -46.5 -113t-112.5 -47t-113 47t-47 113v1172q0 10 -8 10h-4q-11 0 -11 -10v-1172zM125 1563v75q0 9 10 9h4q8 0 8 -9v-75q0 -9 -8 -9h-4q-10 0 -10 9zM336 1563v75 q0 9 8 9h4q10 0 10 -9v-75q0 -9 -10 -9h-4q-8 0 -8 9z" />
<glyph unicode="&#xdd;" horiz-adv-x="1705" />
<glyph unicode="&#xe0;" d="M59 8v1172q0 75 54 128.5t129 53.5q74 0 127 -53.5t53 -128.5v-1172q0 -8 -8 -8h-4q-11 0 -11 8v664h-317v-664q0 -8 -10 -8h-4q-9 0 -9 8zM82 694h317v486q0 66 -46 112.5t-111 46.5q-66 0 -113 -46.5t-47 -112.5v-486zM104 1722q-4 7 5 7h8q9 0 12 -7l92 -161 q2 -3 0.5 -6t-4.5 -3h-8q-9 0 -14 9zM125 33z" />
<glyph unicode="&#xe1;" d="M59 8v1172q0 75 54 128.5t129 53.5q74 0 127 -53.5t53 -128.5v-1172q0 -8 -8 -8h-4q-11 0 -11 8v664h-317v-664q0 -8 -10 -8h-4q-9 0 -9 8zM82 694h317v486q0 66 -46 112.5t-111 46.5q-66 0 -113 -46.5t-47 -112.5v-486zM125 33zM252 1561l90 161q4 7 14 7h9q7 0 4 -7 l-90 -161q-9 -9 -15 -9h-8q-8 0 -4 9z" />
<glyph unicode="&#xe2;" d="M59 8v1172q0 75 54 128.5t129 53.5q74 0 127 -53.5t53 -128.5v-1172q0 -8 -8 -8h-4q-11 0 -11 8v664h-317v-664q0 -8 -10 -8h-4q-9 0 -9 8zM82 694h317v486q0 66 -46 112.5t-111 46.5q-66 0 -113 -46.5t-47 -112.5v-486zM102 1561l91 161q3 7 14 7h69q8 0 15 -7l90 -161 q2 -3 0.5 -6t-4.5 -3h-8q-11 0 -15 9l-82 147h-61l-84 -147q-5 -9 -12 -9h-9q-8 0 -4 9zM125 33z" />
<glyph unicode="&#xe4;" d="M59 8v1172q0 75 54 128.5t129 53.5q74 0 127 -53.5t53 -128.5v-1172q0 -8 -8 -8h-4q-11 0 -11 8v664h-317v-664q0 -8 -10 -8h-4q-9 0 -9 8zM82 694h317v486q0 66 -46 112.5t-111 46.5q-66 0 -113 -46.5t-47 -112.5v-486zM125 33zM125 1563v75q0 9 10 9h4q8 0 8 -9v-75 q0 -9 -8 -9h-4q-10 0 -10 9zM336 1563v75q0 9 8 9h4q10 0 10 -9v-75q0 -9 -10 -9h-4q-8 0 -8 9z" />
<glyph unicode="&#xe7;" horiz-adv-x="641" d="M59 180v1002q0 75 53 127.5t128 52.5t128.5 -52.5t53.5 -127.5v-41q0 -8 -8 -8h-6q-9 0 -9 8v41q0 66 -46.5 112.5t-112.5 46.5t-113 -46.5t-47 -112.5v-1002q0 -66 47 -113t113 -47t112.5 47t46.5 113v47q0 3 3 6t6 3h6q8 0 8 -9v-47q0 -72 -49.5 -123.5t-120.5 -56.5 v-119q0 -8 -10 -8h-4q-9 0 -9 8v119q-71 5 -120.5 56.5t-49.5 123.5z" />
<glyph unicode="&#xe8;" horiz-adv-x="512" d="M4 10v1340q0 12 10 12h213q9 0 9 -10v-4q0 -3 -3 -6t-6 -3h-200v-647h200q9 0 9 -8v-6q0 -8 -9 -8h-200v-650h200q9 0 9 -8v-4q0 -8 -9 -8h-213q-10 0 -10 10zM6 1722q-4 7 4 7h8q10 0 13 -7l92 -161q2 -3 0.5 -6t-4.5 -3h-8q-11 0 -15 9z" />
<glyph unicode="&#xe9;" horiz-adv-x="550" d="M59 10v1340q0 12 11 12h213q8 0 8 -10v-4q0 -9 -8 -9h-201v-647h201q8 0 8 -8v-6q0 -8 -8 -8h-201v-650h201q8 0 8 -8v-4q0 -8 -8 -8h-213q-11 0 -11 10zM172 1561l90 161q4 7 14 7h9q7 0 4 -7l-90 -161q-9 -9 -15 -9h-8q-8 0 -4 9z" />
<glyph unicode="&#xea;" horiz-adv-x="512" d="M8 1561l90 161q4 9 13 9h71q8 0 13 -9l92 -161q3 -7 -6 -7h-9q-8 0 -12 7l-84 147h-59l-84 -147q-3 -7 -13 -7h-8q-11 0 -4 7zM31 10v1340q0 12 10 12h213q8 0 8 -10v-4q0 -9 -8 -9h-201v-647h201q8 0 8 -8v-6q0 -8 -8 -8h-201v-650h201q8 0 8 -8v-4q0 -8 -8 -8h-213 q-10 0 -10 10z" />
<glyph unicode="&#xeb;" horiz-adv-x="512" d="M59 1563v75q0 9 11 9h4q8 0 8 -9v-75q0 -9 -8 -9h-4q-11 0 -11 9zM61 10v1340q0 12 11 12h213q8 0 8 -10v-4q0 -9 -8 -9h-201v-647h201q8 0 8 -8v-6q0 -8 -8 -8h-201v-650h201q8 0 8 -8v-4q0 -8 -8 -8h-213q-11 0 -11 10zM270 1563v75q0 3 3 6t6 3h4q10 0 10 -9v-75 q0 -9 -10 -9h-4q-3 0 -6 3t-3 6z" />
<glyph unicode="&#xec;" horiz-adv-x="301" d="M-96 1722q-4 9 4 9h8q5 0 14 -9l90 -161q4 -7 -4 -7h-8q-10 0 -14 7zM29 8v1344q0 10 10 10h4q8 0 8 -10v-1344q0 -8 -8 -8h-4q-10 0 -10 8z" />
<glyph unicode="&#xed;" horiz-adv-x="301" d="M49 8q0 -8 10 -8h4q9 0 9 8v1344q0 10 -9 10h-4q-10 0 -10 -10v-1344zM72 1563l92 159q3 9 12 9h8q10 0 4 -9l-90 -159q-4 -9 -12 -9h-10q-8 0 -4 9z" />
<glyph unicode="&#xee;" horiz-adv-x="301" d="M-100 1563l92 159q4 9 12 9h72q8 0 12 -9l90 -159q3 -3 1.5 -6t-5.5 -3h-8q-8 0 -12 9l-84 145h-60l-84 -145q-4 -9 -12 -9h-8q-10 0 -6 9zM29 8q0 -8 10 -8h4q8 0 8 8v1344q0 10 -8 10h-4q-10 0 -10 -10v-1344z" />
<glyph unicode="&#xef;" horiz-adv-x="301" d="M-45 1563v75q0 9 10 9h4q8 0 8 -9v-75q0 -9 -8 -9h-4q-10 0 -10 9zM61 8q0 -8 11 -8h4q8 0 8 8v1344q0 10 -8 10h-4q-11 0 -11 -10v-1344zM166 1563v75q0 9 8 9h4q10 0 10 -9v-75q0 -9 -10 -9h-4q-8 0 -8 9z" />
<glyph unicode="&#xf1;" horiz-adv-x="641" d="M59 8v1172q0 75 53 128.5t128 53.5t128.5 -53.5t53.5 -128.5v-1172q0 -8 -8 -8h-6q-9 0 -9 8v1172q0 66 -46.5 112.5t-112.5 46.5t-113 -46.5t-47 -112.5v-1172q0 -8 -8 -8h-4q-9 0 -9 8zM125 1616v6q0 8 8 8h215q8 0 8 -8v-6q0 -8 -8 -8h-215q-8 0 -8 8z" />
<glyph unicode="&#xf2;" d="M59 180v1000q0 75 54 128.5t129 53.5t127.5 -53.5t52.5 -128.5v-1000q0 -75 -52.5 -127.5t-127.5 -52.5t-129 52.5t-54 127.5zM82 180q0 -66 47 -113t113 -47t112.5 47t46.5 113v1000q0 66 -46.5 112.5t-112.5 46.5t-113 -46.5t-47 -112.5v-1000zM102 1722q-4 9 7 9h8 q7 0 12 -9l90 -161q7 -7 -4 -7h-8q-9 0 -12 7z" />
<glyph unicode="&#xf3;" d="M59 180q0 -75 54 -127.5t129 -52.5t127.5 52.5t52.5 127.5v1000q0 75 -52.5 128.5t-127.5 53.5t-129 -53.5t-54 -128.5v-1000zM82 180v1000q0 66 47 112.5t113 46.5t112.5 -46.5t46.5 -112.5v-1000q0 -66 -46.5 -113t-112.5 -47t-113 47t-47 113zM262 1561l90 161 q4 9 13 9h8q4 0 6 -3t0 -6l-92 -161q-3 -7 -13 -7h-8q-11 0 -4 7z" />
<glyph unicode="&#xf4;" horiz-adv-x="641" d="M59 180q0 -75 54 -127.5t129 -52.5t127.5 52.5t52.5 127.5v1000q0 75 -52.5 128.5t-127.5 53.5t-129 -53.5t-54 -128.5v-1000zM82 180v1000q0 66 47 112.5t113 46.5t112.5 -46.5t46.5 -112.5v-1000q0 -66 -46.5 -113t-112.5 -47t-113 47t-47 113zM100 1561l90 161 q9 9 15 9h69q10 0 15 -9l90 -161q3 -7 -4 -7h-8q-8 0 -15 7l-82 147h-61l-82 -147q-3 -7 -14 -7h-9q-8 0 -4 7z" />
<glyph unicode="&#xf6;" d="M59 180q0 -75 54 -127.5t129 -52.5t127.5 52.5t52.5 127.5v1000q0 75 -52.5 128.5t-127.5 53.5t-129 -53.5t-54 -128.5v-1000zM82 180v1000q0 66 47 112.5t113 46.5t112.5 -46.5t46.5 -112.5v-1000q0 -66 -46.5 -113t-112.5 -47t-113 47t-47 113zM125 1563v75q0 9 10 9h4 q8 0 8 -9v-75q0 -9 -8 -9h-4q-10 0 -10 9zM336 1563v75q0 9 8 9h4q10 0 10 -9v-75q0 -9 -10 -9h-4q-8 0 -8 9z" />
<glyph unicode="&#xf9;" d="M59 180v1172q0 10 11 10h4q8 0 8 -10v-1172q0 -66 47 -113t113 -47t112.5 47t46.5 113v1172q0 10 9 10h4q8 0 8 -10v-1172q0 -75 -52.5 -127.5t-127.5 -52.5t-129 52.5t-54 127.5zM102 1722q-4 9 7 9h8q7 0 12 -9l90 -161q7 -7 -4 -7h-8q-9 0 -12 7z" />
<glyph unicode="&#xfa;" d="M59 180q0 -75 54 -127.5t129 -52.5t127.5 52.5t52.5 127.5v1172q0 10 -8 10h-4q-9 0 -9 -10v-1172q0 -66 -46.5 -113t-112.5 -47t-113 47t-47 113v1172q0 10 -8 10h-4q-11 0 -11 -10v-1172zM262 1561l90 161q4 9 13 9h8q4 0 6 -3t0 -6l-92 -161q-3 -7 -13 -7h-8 q-11 0 -4 7z" />
<glyph unicode="&#xfb;" d="M59 180q0 -75 54 -127.5t129 -52.5t127.5 52.5t52.5 127.5v1172q0 10 -8 10h-4q-9 0 -9 -10v-1172q0 -66 -46.5 -113t-112.5 -47t-113 47t-47 113v1172q0 10 -8 10h-4q-11 0 -11 -10v-1172zM100 1561l90 161q9 9 15 9h69q10 0 15 -9l90 -161q3 -7 -4 -7h-8q-8 0 -15 7 l-82 147h-61l-82 -147q-3 -7 -14 -7h-9q-8 0 -4 7z" />
<glyph unicode="&#xfc;" d="M59 180q0 -75 54 -127.5t129 -52.5t127.5 52.5t52.5 127.5v1172q0 10 -8 10h-4q-9 0 -9 -10v-1172q0 -66 -46.5 -113t-112.5 -47t-113 47t-47 113v1172q0 10 -8 10h-4q-11 0 -11 -10v-1172zM125 1563v75q0 9 10 9h4q8 0 8 -9v-75q0 -9 -8 -9h-4q-10 0 -10 9zM336 1563v75 q0 9 8 9h4q10 0 10 -9v-75q0 -9 -10 -9h-4q-8 0 -8 9z" />
<glyph unicode="&#x152;" horiz-adv-x="3411" />
<glyph unicode="&#x178;" horiz-adv-x="1705" />
<glyph unicode="&#x2c6;" horiz-adv-x="1705" />
<glyph unicode="&#x2dc;" horiz-adv-x="1705" />
<glyph unicode="&#x2000;" horiz-adv-x="865" />
<glyph unicode="&#x2001;" horiz-adv-x="1731" />
<glyph unicode="&#x2002;" horiz-adv-x="865" />
<glyph unicode="&#x2003;" horiz-adv-x="1731" />
<glyph unicode="&#x2004;" horiz-adv-x="577" />
<glyph unicode="&#x2005;" horiz-adv-x="432" />
<glyph unicode="&#x2006;" horiz-adv-x="288" />
<glyph unicode="&#x2007;" horiz-adv-x="288" />
<glyph unicode="&#x2008;" horiz-adv-x="216" />
<glyph unicode="&#x2009;" horiz-adv-x="346" />
<glyph unicode="&#x200a;" horiz-adv-x="96" />
<glyph unicode="&#x2010;" horiz-adv-x="571" d="M59 680v4q0 8 9 8h274q8 0 8 -8v-4q0 -10 -8 -10h-274q-9 0 -9 10z" />
<glyph unicode="&#x2011;" horiz-adv-x="571" d="M59 680v4q0 8 9 8h274q8 0 8 -8v-4q0 -10 -8 -10h-274q-9 0 -9 10z" />
<glyph unicode="&#x2012;" horiz-adv-x="571" d="M59 680v4q0 8 9 8h274q8 0 8 -8v-4q0 -10 -8 -10h-274q-9 0 -9 10z" />
<glyph unicode="&#x2013;" horiz-adv-x="1304" d="M59 680v4q0 8 32 8h964q28 0 28 -8v-4q0 -10 -28 -10h-964q-32 0 -32 10z" />
<glyph unicode="&#x2014;" horiz-adv-x="2328" d="M59 680v4q0 8 63 8h1929q56 0 56 -8v-4q0 -10 -56 -10h-1929q-63 0 -63 10z" />
<glyph unicode="&#x202f;" horiz-adv-x="346" />
<glyph unicode="&#x205f;" horiz-adv-x="432" />
<glyph unicode="&#x20ac;" horiz-adv-x="776" d="M59 549v6q0 8 9 8h127v240h-127q-9 0 -9 8v4q0 10 9 10h127v357q0 75 53 127.5t127 52.5q75 0 128.5 -52.5t53.5 -127.5v-39q0 -10 -8 -10h-6q-8 0 -8 10v39q0 66 -47 112.5t-113 46.5t-112 -46.5t-46 -112.5v-357h125q10 0 10 -10v-4q0 -8 -10 -8h-125v-240h125 q10 0 10 -8v-6q0 -8 -10 -8h-125v-359q0 -66 46 -112.5t112 -46.5t113 46.5t47 112.5v45q0 11 8 11h6q8 0 8 -11v-45q0 -75 -53.5 -128.5t-128.5 -53.5q-74 0 -127 53.5t-53 128.5v359h-127q-9 0 -9 8z" />
<glyph unicode="&#xe000;" horiz-adv-x="1361" d="M0 0v1362h1362v-1362h-1362z" />
</font>
</defs>
</svg>
