<?xml version="1.0" standalone="no"?>
<!DOCTYPE svg PUBLIC "-//W3C//DTD SVG 1.1//EN" "http://www.w3.org/Graphics/SVG/1.1/DTD/svg11.dtd" >
<svg xmlns="http://www.w3.org/2000/svg">
<metadata>
This is a custom SVG webfont generated by Font Squirrel.
Copyright   : C2002 House IndustriesBrand Design Co Inc
Designer    : Christian Schwartz
Foundry URL : httpwwwhouseindustriescom
</metadata>
<defs>
<font id="webfontz1hlifx4" horiz-adv-x="450" >
<font-face units-per-em="2048" ascent="1638" descent="-410" />
<missing-glyph horiz-adv-x="468" />
<glyph unicode=" "  horiz-adv-x="468" />
<glyph unicode="&#x09;" horiz-adv-x="468" />
<glyph unicode="&#xa0;" horiz-adv-x="468" />
<glyph unicode="!" horiz-adv-x="536" d="M186 430l-34 963h233l-35 -963h-164zM268.5 -12q-57.5 0 -98.5 40t-41 99t41 99t98.5 40t98.5 -40t41 -99t-41 -99t-98.5 -40z" />
<glyph unicode="&#x22;" horiz-adv-x="704" d="M428 926l-25 467h224l-25 -467h-174zM102 926l-24 467h221l-23 -467h-174z" />
<glyph unicode="#" horiz-adv-x="1009" d="M133 328l53 213h-123v159h162l47 189h-129v162h168l56 211h163l-53 -211h180l54 211h166l-54 -211h123v-162h-162l-47 -189h127v-159h-168l-53 -213h-166l53 213h-180l-51 -213h-166zM391 700h180l47 189h-178z" />
<glyph unicode="$" horiz-adv-x="956" d="M422 -16q-147 14 -245.5 81.5t-143.5 157.5l155 86q80 -137 234 -159v311q-330 82 -330 313q0 117 87 200t243 91v213h113v-217q199 -29 296 -178l-137 -101q-53 92 -159 119v-276q180 -45 269 -125t89 -205q0 -139 -91 -221t-267 -90v-224h-113v224zM422 907 q-139 -12 -139 -116q0 -51 29.5 -81t109.5 -53v250zM535 147q164 14 163 129q0 57 -35.5 93.5t-127.5 62.5v-285z" />
<glyph unicode="%" horiz-adv-x="1656" d="M375 446q-131 0 -225.5 88.5t-94.5 221.5t94.5 222t225.5 89t225 -89t94 -222t-94 -221.5t-225 -88.5zM395 0l660 1051h207l-660 -1051h-207zM1282 -18q-131 0 -225 88t-94 223q0 133 94 222t225 89t225.5 -89t94.5 -222q0 -135 -94.5 -223t-225.5 -88zM374.5 604 q59.5 0 102.5 42t43 109.5t-43 110.5t-102.5 43t-102.5 -43t-43 -110.5t43 -109.5t102.5 -42zM1282 141q59 0 102 42t43 109.5t-43 109.5t-102 42t-101 -42t-42 -109.5t42 -109.5t101 -42z" />
<glyph unicode="&#x26;" horiz-adv-x="1378" d="M707 772l266 -328q55 133 55 304h195q0 -264 -119 -463l231 -285h-256l-106 131q-172 -150 -404 -149q-227 0 -358 108.5t-131 286.5q0 152 82 247t258 185q-117 143 -117 293q0 131 91 219t241 88q147 0 237.5 -84t90.5 -219q0 -197 -256 -334zM602 899q170 96 170 207 q0 61 -37 97t-96 36q-61 0 -99 -37t-38 -98q0 -82 78 -178zM854 276l-332 408q-115 -59 -167 -128t-52 -165q0 -106 67.5 -163.5t198.5 -57.5q166 0 285 106z" />
<glyph unicode="'" horiz-adv-x="376" d="M102 926l-24 467h221l-23 -467h-174z" />
<glyph unicode="(" horiz-adv-x="645" d="M465 -281q-371 371 -371 877t371 877l127 -105q-279 -328 -279 -772t279 -772z" />
<glyph unicode=")" horiz-adv-x="645" d="M180 -281l-127 105q279 328 279 772t-279 772l127 105q371 -375 371 -877t-371 -877z" />
<glyph unicode="*" horiz-adv-x="837" d="M326 754l45 241l-185 -157l-90 155l236 80l-236 82l90 156l185 -158l-45 240h184l-45 -240l186 158l90 -156l-239 -82l239 -80l-90 -155l-186 157l45 -241h-184z" />
<glyph unicode="+" horiz-adv-x="800" d="M307 197v241h-227v183h227v241h187v-241h227v-183h-227v-241h-187z" />
<glyph unicode="," horiz-adv-x="460" d="M98 -233l78 237q-86 35 -86 127q0 57 42 97t99.5 40t98.5 -40t41 -99q0 -53 -43 -127l-121 -235h-109z" />
<glyph unicode="-" horiz-adv-x="602" d="M84 391v187h432v-187h-432z" />
<glyph unicode="." horiz-adv-x="456" d="M229.5 -12q-57.5 0 -99.5 41t-42 100t42 99t99.5 40t98.5 -40t41 -99t-41 -100t-98.5 -41z" />
<glyph unicode="/" horiz-adv-x="851" d="M0 -262l594 1741h205l-594 -1741h-205z" />
<glyph unicode="0" horiz-adv-x="1265" d="M631 -18q-223 0 -388 156.5t-165 387.5q0 233 165 387t388 154q227 0 392 -153.5t165 -387.5q0 -231 -166 -387.5t-391 -156.5zM631 168q145 0 241.5 100.5t96.5 257.5q0 160 -96.5 258.5t-241.5 98.5q-143 0 -238.5 -99.5t-95.5 -257t96.5 -258t237.5 -100.5z" />
<glyph unicode="1" horiz-adv-x="628" d="M268 0v877h-217v174h428v-1051h-211z" />
<glyph unicode="2" horiz-adv-x="974" d="M51 0v20l412 406q111 109 153.5 169t42.5 130q0 72 -46 113t-119 41q-150 0 -213 -189l-197 55q39 152 147.5 237t260.5 85q180 0 281 -93t101 -237q0 -188 -227 -395l-96 -88q-39 -35 -113 -84q90 8 127 8h328v-178h-842z" />
<glyph unicode="3" horiz-adv-x="1040" d="M502 -211q-166 0 -285 76t-178 201l180 92q80 -182 283 -183q109 0 177.5 67t68.5 183q0 119 -74 184.5t-195 65.5q-94 0 -172 -35l-16 21l272 350q12 18 30 37l28 29l10 8q-59 -8 -111 -8h-370v174h790v-19l-274 -350q-27 -35 -60 -59q160 -20 260.5 -126t100.5 -276 q0 -184 -125 -308t-340 -124z" />
<glyph unicode="4" horiz-adv-x="1099" d="M883 186h147v-163h-147v-216h-205v216h-631v127l811 917h25v-881zM678 186v328l8 125q-37 -55 -70 -92l-245 -291l-80 -76q51 6 102 6h285z" />
<glyph unicode="5" horiz-adv-x="1015" d="M481 -211q-162 0 -272.5 69.5t-159.5 176.5l178 92q76 -152 252 -152q109 0 175.5 67t66.5 173q0 111 -66.5 175.5t-191.5 64.5q-154 0 -279 -105l-20 8v693h682v-174h-508v-287q70 43 180 43q188 0 306 -120t118 -300q0 -182 -123 -303t-338 -121z" />
<glyph unicode="6" horiz-adv-x="1060" d="M532.5 -18q-192.5 0 -323.5 118.5t-131 300.5q0 166 151 381l324 465h233l-266 -381q-16 -25 -45 -53.5t-49 -46.5l-18 -16q82 57 180 57q170 0 282.5 -111.5t112.5 -289.5q0 -188 -129 -306t-321.5 -118zM530 166q106 0 174 68.5t68 171.5q0 104 -65.5 171.5 t-176.5 67.5q-109 0 -175 -70.5t-66 -168.5q0 -102 65 -171t176 -69z" />
<glyph unicode="7" horiz-adv-x="958" d="M137 -193l486 1070h-560v174h840v-21l-551 -1223h-215z" />
<glyph unicode="8" horiz-adv-x="1083" d="M543 -18q-205 0 -336 110.5t-131 284.5q0 123 70.5 209t189.5 125q-162 76 -162 243q0 127 102.5 219.5t266.5 92.5q166 0 267 -92.5t101 -219.5q0 -168 -161 -243q119 -39 188.5 -125t69.5 -209q0 -174 -129 -284.5t-336 -110.5zM542.5 788q71.5 0 118 42t46.5 110 t-46.5 111t-118 43t-117.5 -43t-46 -111t46 -110t117.5 -42zM542.5 168q112.5 0 180.5 62.5t68 160.5q0 100 -68 166t-180.5 66t-180 -65.5t-67.5 -166.5q0 -98 67.5 -160.5t180 -62.5z" />
<glyph unicode="9" horiz-adv-x="1067" d="M291 -193l260 377q16 25 44 53.5l46 45.5l18 14q-76 -57 -174 -57q-176 0 -291.5 111.5t-115.5 291.5q0 186 130 305t324.5 119t325.5 -115.5t131 -304.5q0 -96 -37 -181t-116 -204l-310 -455h-235zM532.5 401q110.5 0 177 71t66.5 171q0 102 -66.5 171t-177.5 69 q-109 0 -176 -69t-67 -171q0 -104 66.5 -173t177 -69z" />
<glyph unicode=":" horiz-adv-x="477" d="M240 451q-57 0 -99.5 40.5t-42.5 102.5q0 59 42 100t99.5 41t98.5 -41t41 -100q0 -61 -42 -102t-97 -41zM239.5 -12q-57.5 0 -99.5 41t-42 100t42 100t99.5 41t98.5 -41t41 -100t-41 -100t-98.5 -41z" />
<glyph unicode=";" horiz-adv-x="481" d="M241.5 451q-57.5 0 -99.5 40.5t-42 102.5q0 59 42 100t99.5 41t98.5 -41t41 -100q0 -61 -41 -102t-98.5 -41zM109 -233l77 237q-86 35 -86 127q0 57 42 97t99.5 40t98.5 -40t41 -99q0 -53 -43 -127l-121 -235h-108z" />
<glyph unicode="&#x37e;" horiz-adv-x="481" d="M241.5 451q-57.5 0 -99.5 40.5t-42 102.5q0 59 42 100t99.5 41t98.5 -41t41 -100q0 -61 -41 -102t-98.5 -41zM109 -233l77 237q-86 35 -86 127q0 57 42 97t99.5 40t98.5 -40t41 -99q0 -53 -43 -127l-121 -235h-108z" />
<glyph unicode="&#x3c;" horiz-adv-x="731" d="M643 172l-582 317v21l582 313v-182l-285 -143l285 -142v-184z" />
<glyph unicode="=" horiz-adv-x="792" d="M80 573v181h633v-181h-633zM80 274v181h633v-181h-633z" />
<glyph unicode="&#x3e;" horiz-adv-x="731" d="M88 172v182l283 144l-283 141v184l582 -317v-21z" />
<glyph unicode="?" horiz-adv-x="1005" d="M358 426v344h80q125 0 192.5 67.5t67.5 168.5q0 94 -60 156.5t-157 62.5q-166 0 -250 -160l-168 96q109 250 418 250q195 0 312.5 -115.5t117.5 -289.5q0 -164 -96 -269.5t-262 -124.5v-186h-195zM452.5 -12q-57.5 0 -98.5 40t-41 99t41 99t98.5 40t98.5 -40t41 -99 t-41 -99t-98.5 -40z" />
<glyph unicode="@" horiz-adv-x="1853" d="M946 -424q-371 0 -613.5 225.5t-242.5 593.5q0 238 118 429.5t311.5 295t418.5 103.5q365 0 595 -213t230 -547q0 -233 -93 -353t-255 -120q-211 0 -260 174q-86 -182 -287 -182q-152 0 -255 112.5t-103 286.5t102.5 289.5t253.5 115.5q168 0 248 -151l-4 131h201v-469 q0 -80 25.5 -117t84.5 -37q162 0 162 318q0 283 -173 442.5t-472 159.5q-289 0 -472 -187.5t-183 -480.5q0 -295 177 -476t484 -181q178 0 332 67l67 -145q-176 -84 -397 -84zM922 152q82 0 137 66.5t55 162.5q0 98 -55 165.5t-137 67.5q-90 0 -144.5 -65.5t-54.5 -167.5 q0 -100 54.5 -164.5t144.5 -64.5z" />
<glyph unicode="A" horiz-adv-x="1349" d="M59 0l596 1407h25l610 -1407h-225l-80 197h-637l-80 -197h-209zM422 379h485l-174 434q-16 37 -33.5 88t-27.5 86l-8 33q-33 -125 -68 -207z" />
<glyph unicode="B" horiz-adv-x="1247" d="M168 0v1393h506q188 0 290.5 -99.5t102.5 -251.5q0 -205 -188 -268q137 -33 210.5 -126t73.5 -228q0 -186 -119.5 -303t-332.5 -117h-543zM385 850h279q94 0 142 47t48 129t-48 129t-147 47h-274v-352zM385 190h313q123 0 185.5 64.5t62.5 173.5t-66.5 173.5t-191.5 64.5 h-303v-476z" />
<glyph unicode="C" horiz-adv-x="1474" d="M819 -18q-301 0 -508 202.5t-207 511.5q0 307 207 510t508 203q373 0 557 -276l-166 -119q-129 201 -391 200q-215 0 -354 -147t-139 -370.5t139 -372t354 -148.5q264 0 412 219l166 -116q-195 -297 -578 -297z" />
<glyph unicode="D" horiz-adv-x="1396" d="M168 0v1393h383q334 0 538.5 -191.5t204.5 -505t-203.5 -505t-539.5 -191.5h-383zM385 190h152q262 0 397 137.5t135 369t-135 368.5t-397 137h-152v-1012z" />
<glyph unicode="E" horiz-adv-x="1202" d="M168 0v1393h885v-191h-668v-540h592v-187h-592v-285h696v-190h-913z" />
<glyph unicode="F" horiz-adv-x="1136" d="M168 0v1393h866v-191h-649v-559h590v-192h-590v-451h-217z" />
<glyph unicode="G" horiz-adv-x="1517" d="M846 -18q-326 0 -534 201.5t-208 513t202 512t513 200.5q328 0 494 -186l-146 -146q-131 137 -348 137t-355 -147t-138 -371q0 -225 143 -372.5t377 -147.5q213 0 344 90v246h-375v190h574v-542q-80 -72 -222.5 -125t-320.5 -53z" />
<glyph unicode="H" horiz-adv-x="1439" d="M168 0v1393h217v-750h670v750h217v-1393h-217v451h-670v-451h-217z" />
<glyph unicode="I" horiz-adv-x="565" d="M176 0v1393h215v-1393h-215z" />
<glyph unicode="J" horiz-adv-x="1001" d="M442 -18q-276 0 -395 235l176 109q84 -150 209 -150q193 0 193 217v1000h217v-1004q0 -201 -109 -304t-291 -103z" />
<glyph unicode="K" horiz-adv-x="1284" d="M369 614q61 129 106 189l451 590h245l-493 -652l549 -741h-262l-430 582l-150 -183v-399h-217v1393h217v-574q0 -90 -16 -205z" />
<glyph unicode="L" horiz-adv-x="1114" d="M168 0v1393h217v-1203h643v-190h-860z" />
<glyph unicode="M" horiz-adv-x="1705" d="M168 0v1407h22l666 -778l660 778h22v-1407h-207v723l8 201q-68 -104 -125 -168l-350 -422h-24l-351 422l-122 168q8 -123 8 -201v-723h-207z" />
<glyph unicode="N" horiz-adv-x="1447" d="M1253 -14l-768 827l-131 156q14 -115 15 -201v-768h-201v1407h29l768 -825l129 -156q-14 123 -15 201v766h201v-1407h-27z" />
<glyph unicode="O" horiz-adv-x="1644" d="M823 -18q-303 0 -511 202.5t-208 512t208 512t511 202.5q301 0 509 -202.5t208 -512t-208 -512t-509 -202.5zM823 176q217 0 356.5 148.5t139.5 372t-139.5 372t-356.5 148.5t-357 -148.5t-140 -372t140 -372t357 -148.5z" />
<glyph unicode="P" horiz-adv-x="1212" d="M168 0v1393h350q285 0 441.5 -142.5t156.5 -388.5q0 -244 -157.5 -387t-440.5 -143h-133v-332h-217zM385 522h125q385 0 385 340t-385 340h-125v-680z" />
<glyph unicode="Q" horiz-adv-x="1642" d="M1337 190l203 -225l-143 -121l-209 232q-164 -94 -365 -94q-303 0 -511 202.5t-208 512t208 512t511 202.5q301 0 509 -202.5t208 -512.5q0 -303 -203 -506zM1053 225l-193 215l146 121l196 -219q117 139 117 354q0 223 -139.5 372t-356.5 149t-357 -148.5t-140 -372 t140 -372t357 -148.5q126 0 230 49z" />
<glyph unicode="R" horiz-adv-x="1239" d="M838 430l295 -430h-250l-250 367q-78 -8 -117 -9h-131v-358h-217v1393h348q287 0 443.5 -139.5t156.5 -381.5q1 -319 -278 -442zM385 545h123q387 0 387 327q0 330 -387 330h-123v-657z" />
<glyph unicode="S" horiz-adv-x="1091" d="M545 -18q-186 0 -312.5 79.5t-189.5 208.5l178 99q57 -94 130 -144.5t190 -50.5q106 0 173.5 52.5t67.5 138.5q0 84 -54 135t-179 106l-92 41q-166 74 -246 165t-80 243q0 156 109.5 255t281.5 99q270 0 393 -219l-170 -105q-41 72 -92 104t-131 32q-82 0 -131 -45.5 t-49 -116.5q0 -76 45 -120t156 -93l90 -41q190 -84 277 -181.5t87 -256.5q0 -178 -125.5 -281.5t-326.5 -103.5z" />
<glyph unicode="T" horiz-adv-x="1173" d="M479 0v1202h-413v191h1042v-191h-414v-1202h-215z" />
<glyph unicode="U" horiz-adv-x="1380" d="M690 -18q-238 0 -384 131t-146 376v904h217v-891q0 -326 313 -326q315 0 316 326v891h215v-904q0 -246 -147.5 -376.5t-383.5 -130.5z" />
<glyph unicode="V" horiz-adv-x="1349" d="M670 -14l-611 1407h232l313 -748q41 -92 84 -248q39 154 82 248l309 748h211l-594 -1407h-26z" />
<glyph unicode="W" horiz-adv-x="1955" d="M545 -14l-486 1407h228l245 -742l54 -198q35 119 67 198l320 756h26l322 -756q33 -78 65 -198q29 121 56 198l246 742h210l-481 -1407h-26l-347 829l-57 170q-33 -102 -61 -170l-355 -829h-26z" />
<glyph unicode="X" horiz-adv-x="1325" d="M72 0l467 762l-392 631h240l211 -340q14 -25 31.5 -60t25.5 -59l11 -23q31 86 63 142l207 340h233l-385 -631l471 -762h-239l-289 467l-70 143q-31 -86 -65 -143l-287 -467h-233z" />
<glyph unicode="Y" horiz-adv-x="1368" d="M588 0v440l-529 953h240l315 -574q43 -78 84 -201q43 123 84 201l305 574h224l-506 -940v-453h-217z" />
<glyph unicode="Z" horiz-adv-x="1200" d="M68 0v23l704 1179h-592v191h930v-23l-700 -1180h686v-190h-1028z" />
<glyph unicode="[" horiz-adv-x="655" d="M139 -262v1741h449v-176h-240v-1389h240v-176h-449z" />
<glyph unicode="\" horiz-adv-x="851" d="M647 -262l-594 1741h205l594 -1741h-205z" />
<glyph unicode="]" horiz-adv-x="657" d="M68 -262v176h241v1389h-241v176h450v-1741h-450z" />
<glyph unicode="^" horiz-adv-x="874" d="M125 932l303 475h21l301 -475h-168l-144 203l-145 -203h-168z" />
<glyph unicode="_" horiz-adv-x="550" d="M-4 -262v184h559v-184h-559z" />
<glyph unicode="`" horiz-adv-x="1024" d="M432 1022l-201 389h238l123 -389h-160z" />
<glyph unicode="a" horiz-adv-x="980" d="M651 512q0 195 -172 195q-135 0 -225 -103l-119 121q129 154 361 154q164 0 263 -94.5t99 -276.5v-508h-207l6 123q-94 -141 -270 -141q-137 0 -223 67.5t-86 204.5q0 129 92 192.5t246 65.5h235zM651 369h-221q-150 0 -149 -109q0 -113 163 -113q92 0 149.5 42t57.5 112 v68z" />
<glyph unicode="b" horiz-adv-x="1128" d="M635 -18q-213 0 -301 174l6 -156h-209v1479h209v-768q98 168 299 168q170 0 284.5 -127t114.5 -319.5t-116.5 -321.5t-286.5 -129zM581.5 164q112.5 0 178 73.5t65.5 194.5q0 117 -66.5 189.5t-176.5 72.5q-113 0 -181.5 -72.5t-68.5 -189.5q0 -121 68.5 -194.5 t181 -73.5z" />
<glyph unicode="c" horiz-adv-x="964" d="M547 -18q-197 0 -328 128t-131 320.5t131 320.5t328 128q217 0 348 -164l-147 -119q-70 100 -201 100q-113 0 -179.5 -74.5t-66.5 -191.5t66.5 -191.5t179.5 -74.5q125 0 211 96l141 -123q-135 -155 -352 -155z" />
<glyph unicode="d" horiz-adv-x="1128" d="M494 -18q-170 0 -287 129t-117 321.5t117 319.5t282 127q201 0 299 -168v768h209v-1479h-209l7 156q-88 -174 -301 -174zM546.5 164q112.5 0 181.5 73.5t69 194.5q0 117 -69 189.5t-181 72.5q-111 0 -177.5 -72.5t-66.5 -189.5q0 -121 65.5 -194.5t178 -73.5z" />
<glyph unicode="e" horiz-adv-x="1079" d="M299 360q41 -205 272 -204q147 0 244 92l121 -127q-139 -139 -363 -139q-219 0 -352 125.5t-133 322.5q0 190 132 319.5t327 129.5q217 0 336 -145q109 -133 109 -338q0 -18 -1 -36h-692zM299 504h483q-33 203 -233 203q-100 0 -166 -53.5t-84 -149.5z" />
<glyph unicode="f" horiz-adv-x="712" d="M209 0v686h-141v174h141v340q0 305 276 305q156 0 244 -106l-123 -131q-43 51 -100 51q-90 0 -90 -117v-342h231v-174h-231v-686h-207z" />
<glyph unicode="g" horiz-adv-x="987" d="M616 860h322v-151h-147q49 -57 49 -140q0 -137 -96.5 -225t-251.5 -88q-106 0 -179 39q-45 -27 -45 -74q0 -68 101 -74l215 -14q367 -23 366 -276q0 -143 -118.5 -227.5t-348.5 -84.5q-215 0 -332.5 77t-117.5 206q0 145 182 205q-113 51 -113 168q0 113 117 164 q-84 84 -84 204q0 135 99.5 222.5t257.5 87.5q69 -1 124 -19zM487 410q80 0 124 43t44 116q0 70 -45 112t-122.5 42t-121.5 -42t-44 -112q0 -74 43.5 -116.5t121.5 -42.5zM305 -31q-70 -41 -69 -119q0 -147 247 -147q254 0 254 141q0 53 -41 77t-151 32z" />
<glyph unicode="h" horiz-adv-x="1069" d="M131 0v1479h207v-770q88 170 287 170q145 0 233 -98.5t88 -270.5v-510h-207v494q0 195 -178 194q-102 0 -162.5 -58.5t-60.5 -162.5v-467h-207z" />
<glyph unicode="i" horiz-adv-x="483" d="M241.5 1057q-57.5 0 -97.5 39t-40 98q0 57 41 96t96.5 39t96.5 -39t41 -96q0 -59 -40 -98t-97.5 -39zM137 0v860h209v-860h-209z" />
<glyph unicode="j" horiz-adv-x="481" d="M241.5 1057q-57.5 0 -97.5 39t-40 98q0 57 41 96t96.5 39t96.5 -39t41 -96q0 -59 -40 -98t-97.5 -39zM78 -455q-133 0 -211 95l104 131q43 -39 86 -39q41 0 60.5 20.5t19.5 71.5v1036h209v-1030q0 -137 -70.5 -211t-197.5 -74z" />
<glyph unicode="k" horiz-adv-x="978" d="M338 254v-254h-207v1479h207v-854q0 -39 -10 -152l344 387h235l-317 -358l360 -502h-243l-261 367z" />
<glyph unicode="l" horiz-adv-x="485" d="M139 0v1479h207v-1479h-207z" />
<glyph unicode="m" horiz-adv-x="1583" d="M131 0v860h207l-4 -147q88 166 256 166q180 0 252 -164q109 164 295 164q152 0 237.5 -94.5t85.5 -260.5v-524h-207v504q0 92 -37.5 138t-123.5 46q-92 0 -142.5 -55t-50.5 -162v-471h-207v504q0 92 -37 138t-123 46q-94 0 -144 -55t-50 -162v-471h-207z" />
<glyph unicode="n" horiz-adv-x="1069" d="M131 0v860h207l-4 -160q39 84 116.5 131.5t174.5 47.5q145 0 233 -98.5t88 -270.5v-510h-207v494q0 195 -178 194q-102 0 -162.5 -58.5t-60.5 -162.5v-467h-207z" />
<glyph unicode="o" horiz-adv-x="1103" d="M553 -18q-197 0 -331 129t-134 319.5t134 319.5t331 129t330 -128t133 -320.5t-133 -320.5t-330 -128zM553 160q115 0 182.5 75.5t67.5 194.5t-67.5 193.5t-182.5 74.5t-183.5 -74.5t-68.5 -193.5t68.5 -194.5t183.5 -75.5z" />
<glyph unicode="p" horiz-adv-x="1128" d="M131 -434v1294h209l-6 -160q92 178 305 179q168 0 283.5 -127t115.5 -319.5t-116.5 -321.5t-286.5 -129q-104 0 -180 45t-115 120v-581h-209zM581.5 164q112.5 0 178 73.5t65.5 194.5q0 117 -66.5 189.5t-176.5 72.5q-113 0 -181.5 -72.5t-68.5 -189.5 q0 -121 68.5 -194.5t181 -73.5z" />
<glyph unicode="q" horiz-adv-x="1128" d="M791 -434v581q-88 -166 -297 -165q-170 0 -287 129t-117 321.5t117 319.5t282 127q213 0 308 -179l-6 160h206v-1294h-206zM546.5 164q112.5 0 181.5 73.5t69 194.5q0 117 -69 189.5t-181 72.5q-111 0 -177.5 -72.5t-66.5 -189.5q0 -121 65.5 -194.5t178 -73.5z" />
<glyph unicode="r" horiz-adv-x="763" d="M131 0v860h207l-2 -162q76 178 250 179q82 0 141 -37l-70 -187q-57 29 -112 29q-207 0 -207 -264v-418h-207z" />
<glyph unicode="s" horiz-adv-x="849" d="M438 -18q-137 0 -237.5 51t-147.5 127l142 98q78 -111 231 -111q152 0 152 93q0 43 -35 63.5t-135 46.5q-25 6 -39 10q-117 33 -185.5 91.5t-68.5 173.5q0 123 86 188.5t221 65.5q180 0 299 -129l-121 -119q-74 84 -178 84q-121 0 -121 -80q0 -45 37 -65.5t151 -49.5 q61 -16 103.5 -32.5t87.5 -46t68.5 -78t23.5 -113.5q0 -121 -81 -194.5t-253 -73.5z" />
<glyph unicode="t" horiz-adv-x="733" d="M469 -20q-272 0 -272 311v395h-129v174h129v449h206v-449h230v-174h-230v-399q0 -127 86 -127q53 0 103 41l98 -140q-86 -81 -221 -81z" />
<glyph unicode="u" horiz-adv-x="1064" d="M442 -18q-143 0 -231 97t-88 269v512h207v-495q0 -195 178 -195q102 0 160.5 59.5t58.5 163.5v467h207v-860h-207l4 158q-41 -84 -116 -130t-173 -46z" />
<glyph unicode="v" horiz-adv-x="972" d="M475 -18l-440 878h229l174 -381q33 -72 60 -186q25 115 55 186l174 381h211l-436 -878h-27z" />
<glyph unicode="w" horiz-adv-x="1402" d="M410 -20l-375 880h229l137 -352l52 -162q27 98 59 162l184 369h21l190 -385q31 -61 62 -162q27 98 51 162l141 368h207l-377 -880h-22l-213 417q-12 25 -24.5 61t-18.5 60l-6 25q-25 -90 -54 -146l-221 -417h-22z" />
<glyph unicode="x" horiz-adv-x="1007" d="M49 0l336 453l-293 407h246l117 -166q12 -18 25.5 -44.5t19.5 -43.5l8 -18q20 63 51 106l123 166h227l-286 -391l335 -469h-245l-154 215q-14 20 -30.5 50t-24.5 50l-8 19q-29 -74 -62 -119l-158 -215h-227z" />
<glyph unicode="y" horiz-adv-x="974" d="M164 -434l223 512l-352 782h229l180 -430q12 -29 24.5 -74t18.5 -73l7 -31q18 113 47 178l184 430h215l-563 -1294h-213z" />
<glyph unicode="z" horiz-adv-x="878" d="M57 0v23l443 669h-394v168h711v-22l-444 -670h422v-168h-738z" />
<glyph unicode="{" horiz-adv-x="798" d="M586 -262q-297 0 -297 295v295q0 76 -29 106.5t-90 30.5h-117v178h117q61 0 90 32t29 107v402q0 295 297 295h145v-176h-129q-55 0 -79.5 -29t-24.5 -96v-422q0 -172 -160 -201q160 -33 160 -203v-313q0 -68 24.5 -96.5t79.5 -28.5h129v-176h-145z" />
<glyph unicode="|" horiz-adv-x="526" d="M164 -262v1741h198v-1741h-198z" />
<glyph unicode="}" horiz-adv-x="798" d="M68 -262v176h129q55 0 78.5 28.5t23.5 96.5v313q0 172 162 201q-162 33 -162 205v420q0 68 -23.5 96.5t-78.5 28.5h-129v176h145q295 0 295 -295v-402q0 -76 29.5 -107.5t91.5 -31.5h116v-178h-116q-61 0 -91 -32t-30 -105v-295q0 -295 -295 -295h-145z" />
<glyph unicode="~" horiz-adv-x="819" d="M231 440l-145 15q6 123 61.5 189.5t139.5 66.5q66 0 135 -56q72 -53 100 -53q57 0 66 107l145 -15q-6 -125 -60.5 -190.5t-140.5 -65.5q-66 0 -135 56q-6 4 -18 14t-17.5 13t-13.5 9.5t-12 7.5t-11.5 4t-13.5 4t-12 1q-60 -1 -68 -107z" />
<glyph unicode="&#xa1;" horiz-adv-x="548" d="M274.5 1114q-59.5 0 -102.5 42t-43 103.5t43 103.5t102.5 42t102.5 -42t43 -103.5t-43 -103.5t-102.5 -42zM158 0l35 954h163l35 -954h-233z" />
<glyph unicode="&#xa2;" horiz-adv-x="972" d="M485 -14q-174 23 -285.5 145.5t-111.5 298.5t111.5 300t285.5 144v222h113v-219q184 -14 303 -162l-145 -117q-53 80 -158 98v-534q92 12 168 96l137 -121q-121 -139 -305 -153v-222h-113v224zM485 694q-88 -20 -138 -91t-50 -173t50 -174t138 -92v530z" />
<glyph unicode="&#xa3;" horiz-adv-x="1150" d="M346 518h-196v162h124q-51 131 -51 221q0 158 113 261.5t303 103.5q139 0 240.5 -63.5t154.5 -174.5l-172 -100q-39 80 -90 115.5t-133 35.5q-94 0 -149.5 -49t-55.5 -139q0 -84 47 -211h328v-162h-264q51 -145 51 -260v-18q121 -76 209 -76q102 0 176 84l125 -125 q-109 -141 -293 -141q-143 0 -285 110q-96 -111 -239 -110q-109 0 -174.5 57t-65.5 149q0 88 61.5 140.5t153.5 52.5q70 0 142 -31q-15 68 -60 168zM410 193q-76 57 -125 57q-37 0 -58.5 -18.5t-21.5 -49t22.5 -50t59.5 -19.5q88 0 123 80z" />
<glyph unicode="&#xa4;" horiz-adv-x="1249" d="M201 580h-133v147h165q59 154 197.5 247t310.5 93q264 0 412 -188l-145 -121q-98 131 -267 131q-199 0 -288 -162h356v-147h-401q-2 -16 -2 -54q0 -10 1 -28.5t1 -26.5h401v-147h-354q90 -162 286 -162q178 0 275 143l155 -112q-74 -109 -177 -160t-253 -51 q-172 0 -308 93t-197 249h-168v147h133q-2 18 -2 55.5t2 53.5z" />
<glyph unicode="&#xa5;" horiz-adv-x="1157" d="M311 629l-243 422h231l219 -400q39 -74 68 -174q31 100 69 174l219 400h216l-246 -422h203v-148h-287l-74 -125h361v-147h-363v-209h-213v209h-362v147h358l-72 125h-286v148h202z" />
<glyph unicode="&#xa6;" d="M227.5 371q-57.5 0 -99.5 41t-42 102q0 59 42 99t99.5 40t98.5 -40t41 -99q0 -61 -41 -102t-98.5 -41z" />
<glyph unicode="&#xa7;" horiz-adv-x="1042" d="M236 803q-49 76 -50 168q0 129 95.5 212t240.5 83q240 0 344 -207l-166 -80q-61 119 -170 119q-70 0 -107.5 -33t-37.5 -88q0 -96 111 -137l206 -80q279 -104 279 -301q0 -156 -168 -230q49 -66 49 -159q0 -129 -93 -205t-261 -76q-139 0 -243.5 62.5t-147.5 156.5 l166 86q63 -135 217 -135q72 0 113.5 29.5t41.5 79.5q0 43 -28.5 71.5t-96.5 55.5l-186 71q-147 55 -215 129t-68 183q0 78 47.5 136t127.5 89zM713 319q76 31 75 105q0 55 -31.5 89t-111.5 65l-205 79q-72 27 -116 62q-68 -35 -68 -111q0 -57 29.5 -92t107.5 -65l191 -72 q82 -33 129 -60z" />
<glyph unicode="&#xa8;" horiz-adv-x="1024" d="M711 1047q-49 0 -86 36.5t-37 87.5q0 49 37 86t86 37t87 -36.5t38 -86.5q0 -51 -38 -87.5t-87 -36.5zM313 1047q-49 0 -87 36.5t-38 87.5q0 49 38 86t87 37t86 -35.5t37 -87t-37 -88t-86 -36.5z" />
<glyph unicode="&#xa9;" horiz-adv-x="1220" d="M612.5 -12q-221.5 0 -382 154.5t-160.5 383.5q0 231 159.5 386t382.5 155q221 0 380 -154.5t159 -386.5q0 -229 -158.5 -383.5t-380 -154.5zM612 88q182 0 307 123t125 315.5t-124.5 316.5t-307.5 124q-184 0 -310 -124t-126 -316.5t126 -315.5t310 -123zM621 223 q-133 0 -220.5 86t-87.5 217q0 133 87 220.5t216 87.5q145 0 244 -109l-115 -104q-45 57 -116 57q-61 0 -98 -42t-37 -110q0 -63 37.5 -106t99.5 -43q76 0 119 59l114 -102q-91 -111 -243 -111z" />
<glyph unicode="&#xaa;" horiz-adv-x="849" d="M557 758q-2 84 -38 118.5t-103 34.5q-106 0 -189 -86l-114 105q115 137 321 137q139 0 226.5 -78t87.5 -237v-428h-191l4 92q-78 -111 -221 -111q-117 0 -192.5 58.5t-75.5 169t82 168t211 57.5h192zM557 629h-174q-123 0 -123 -84q0 -90 127 -90q78 0 124 33.5t46 93.5 v47z" />
<glyph unicode="&#xab;" horiz-adv-x="919" d="M643 72l-194 334v16l194 330h205l-199 -338l199 -342h-205zM264 72l-192 334v16l192 330h207l-199 -338l199 -342h-207z" />
<glyph unicode="&#xac;" d="M227.5 371q-57.5 0 -99.5 41t-42 102q0 59 42 99t99.5 40t98.5 -40t41 -99q0 -61 -41 -102t-98.5 -41z" />
<glyph unicode="&#xad;" horiz-adv-x="602" d="M84 391v187h432v-187h-432z" />
<glyph unicode="&#xae;" horiz-adv-x="1044" d="M520 530q-188 0 -319 126t-131 316.5t131 317.5t319 127q190 0 322.5 -127t132.5 -317.5t-132.5 -316.5t-322.5 -126zM520 614q158 0 259.5 98.5t101.5 258.5q0 164 -101.5 262t-259.5 98q-156 0 -255 -98t-99 -262q0 -162 99 -259.5t255 -97.5zM639 883l86 -140h-119 l-67 115h-11h-61v-115h-113v465h170q94 0 146.5 -51t52.5 -123q0 -102 -84 -151zM467 946h59q86 0 86 84q0 39 -23.5 60.5t-62.5 21.5h-59v-166z" />
<glyph unicode="&#xaf;" horiz-adv-x="1024" d="M281 1079v156h462v-156h-462z" />
<glyph unicode="&#x2c9;" horiz-adv-x="1024" d="M281 1079v156h462v-156h-462z" />
<glyph unicode="&#xb0;" horiz-adv-x="671" d="M335.5 567q-108.5 0 -185 74t-76.5 176q0 106 76.5 178t185.5 72q111 0 186.5 -71.5t75.5 -178.5q0 -102 -77 -176t-185.5 -74zM336 696q53 0 86 34t33 87q0 55 -33 89t-86 34t-85 -34t-32 -89q0 -53 33 -87t84 -34z" />
<glyph unicode="&#xb2;" d="M227.5 371q-57.5 0 -99.5 41t-42 102q0 59 42 99t99.5 40t98.5 -40t41 -99q0 -61 -41 -102t-98.5 -41z" />
<glyph unicode="&#xb3;" d="M227.5 371q-57.5 0 -99.5 41t-42 102q0 59 42 99t99.5 40t98.5 -40t41 -99q0 -61 -41 -102t-98.5 -41z" />
<glyph unicode="&#xb4;" horiz-adv-x="1024" d="M432 1022l123 389h238l-201 -389h-160z" />
<glyph unicode="&#xb5;" d="M227.5 371q-57.5 0 -99.5 41t-42 102q0 59 42 99t99.5 40t98.5 -40t41 -99q0 -61 -41 -102t-98.5 -41z" />
<glyph unicode="&#x3bc;" d="M227.5 371q-57.5 0 -99.5 41t-42 102q0 59 42 99t99.5 40t98.5 -40t41 -99q0 -61 -41 -102t-98.5 -41z" />
<glyph unicode="&#xb6;" horiz-adv-x="1361" d="M633 0v561h-103q-207 0 -325.5 118t-118.5 294q0 174 119 297t325 123h664v-1393h-205v1210h-149v-1210h-207zM537 743h96v467h-96q-100 0 -162 -61.5t-62 -172t62 -172t162 -61.5z" />
<glyph unicode="&#xb7;" horiz-adv-x="456" d="M229.5 371q-57.5 0 -99.5 41t-42 102q0 59 42 99t99.5 40t98.5 -40t41 -99q0 -61 -41 -102t-98.5 -41z" />
<glyph unicode="&#x2219;" horiz-adv-x="456" d="M229.5 371q-57.5 0 -99.5 41t-42 102q0 59 42 99t99.5 40t98.5 -40t41 -99q0 -61 -41 -102t-98.5 -41z" />
<glyph unicode="&#xb8;" horiz-adv-x="1024" d="M528 -483q-158 0 -225 123l107 63q33 -68 102 -68q37 0 61.5 21.5t24.5 60.5t-26.5 62.5t-73.5 23.5h-56v197h117v-94q76 -14 126 -65.5t50 -133.5q0 -86 -61.5 -138t-145.5 -52z" />
<glyph unicode="&#xb9;" d="M227.5 371q-57.5 0 -99.5 41t-42 102q0 59 42 99t99.5 40t98.5 -40t41 -99q0 -61 -41 -102t-98.5 -41z" />
<glyph unicode="&#xba;" horiz-adv-x="954" d="M477 305q-166 0 -280.5 108.5t-114.5 272.5q0 162 114.5 271.5t280.5 109.5t280.5 -109.5t114.5 -271.5q0 -164 -114.5 -272.5t-280.5 -108.5zM477 465q90 0 145.5 61.5t55.5 159.5t-55.5 158.5t-145.5 60.5t-143 -60.5t-53 -158.5t53 -159.5t143 -61.5z" />
<glyph unicode="&#xbb;" horiz-adv-x="919" d="M449 72l198 338l-198 342h206l193 -334v-17l-193 -329h-206zM72 72l198 338l-198 342h204l195 -334v-17l-195 -329h-204z" />
<glyph unicode="&#xbc;" d="M227.5 371q-57.5 0 -99.5 41t-42 102q0 59 42 99t99.5 40t98.5 -40t41 -99q0 -61 -41 -102t-98.5 -41z" />
<glyph unicode="&#xbd;" d="M227.5 371q-57.5 0 -99.5 41t-42 102q0 59 42 99t99.5 40t98.5 -40t41 -99q0 -61 -41 -102t-98.5 -41z" />
<glyph unicode="&#xbe;" d="M227.5 371q-57.5 0 -99.5 41t-42 102q0 59 42 99t99.5 40t98.5 -40t41 -99q0 -61 -41 -102t-98.5 -41z" />
<glyph unicode="&#xbf;" horiz-adv-x="989" d="M545 1114q-59 0 -102.5 42t-43.5 103.5t43 103.5t103 42q57 0 101 -42t44 -103.5t-44 -103.5t-101 -42zM514 -18q-199 0 -309.5 111.5t-110.5 287.5q0 166 88 268.5t260 130.5v189h199v-361h-84q-125 0 -185.5 -64.5t-60.5 -162.5q0 -88 55.5 -150.5t147.5 -62.5 t147.5 39t96.5 125l168 -96q-103 -254 -412 -254z" />
<glyph unicode="&#xc0;" horiz-adv-x="1349" d="M592 1538l-201 389h238l123 -389h-160zM59 0l596 1407h25l610 -1407h-225l-80 197h-637l-80 -197h-209zM422 379h485l-174 434q-16 37 -33.5 88t-27.5 86l-8 33q-33 -125 -68 -207z" />
<glyph unicode="&#xc1;" horiz-adv-x="1349" d="M592 1538l123 389h237l-200 -389h-160zM59 0l596 1407h25l610 -1407h-225l-80 197h-637l-80 -197h-209zM422 379h485l-174 434q-16 37 -33.5 88t-27.5 86l-8 33q-33 -125 -68 -207z" />
<glyph unicode="&#xc2;" horiz-adv-x="1349" d="M362 1536l293 418h23l293 -418h-170l-133 170l-136 -170h-170zM59 0l596 1407h25l610 -1407h-225l-80 197h-637l-80 -197h-209zM422 379h485l-174 434q-16 37 -33.5 88t-27.5 86l-8 33q-33 -125 -68 -207z" />
<glyph unicode="&#xc3;" horiz-adv-x="1349" d="M485 1532l-145 14q6 123 61.5 189.5t139.5 66.5q68 0 135 -53q6 -6 21 -17l20 -15q4 -3 14 -9t15.5 -8t13.5 -4t16 -2q57 0 66 106l145 -14q-6 -123 -60.5 -189.5t-140.5 -66.5q-66 0 -135 55q-8 6 -24.5 19.5t-22.5 16.5t-16 9t-17.5 8t-17.5 2q-58 1 -68 -108zM59 0 l596 1407h25l610 -1407h-225l-80 197h-637l-80 -197h-209zM422 379h485l-174 434q-16 37 -33.5 88t-27.5 86l-8 33q-33 -125 -68 -207z" />
<glyph unicode="&#xc4;" horiz-adv-x="1349" d="M874.5 1563q-49.5 0 -86 36.5t-36.5 88.5q0 49 36.5 85.5t86 36.5t87 -36.5t37.5 -85.5q0 -51 -37.5 -88t-87 -37zM477 1563q-49 0 -87 36.5t-38 88.5q0 49 38 85.5t87 36.5t86 -35.5t37 -87t-37 -88t-86 -36.5zM59 0l596 1407h25l610 -1407h-225l-80 197h-637l-80 -197 h-209zM422 379h485l-174 434q-16 37 -33.5 88t-27.5 86l-8 33q-33 -125 -68 -207z" />
<glyph unicode="&#xc5;" horiz-adv-x="1349" d="M675.5 1483q-100.5 0 -170 65.5t-69.5 157.5q0 94 69.5 159.5t170 65.5t170 -65.5t69.5 -159.5q0 -92 -69.5 -157.5t-170 -65.5zM59 0l596 1407h25l610 -1407h-225l-80 197h-637l-80 -197h-209zM676 1604q43 0 70.5 27.5t27.5 74.5q0 49 -27.5 76.5t-70.5 27.5 t-70.5 -27.5t-27.5 -76.5q0 -47 27.5 -74.5t70.5 -27.5zM422 379h485l-174 434q-16 37 -33.5 88t-27.5 86l-8 33q-33 -125 -68 -207z" />
<glyph unicode="&#xc6;" horiz-adv-x="1988" d="M43 0l942 1393h854v-191h-668v-540h592v-187h-592v-285h697v-190h-912v197h-553l-131 -197h-229zM530 383h426v518q0 35 4.5 81t8.5 75l4 28q-41 -96 -86 -163z" />
<glyph unicode="&#xc7;" horiz-adv-x="1488" d="M717 -12q-264 37 -438.5 232.5t-174.5 475.5q0 307 207 510t508 203q373 0 557 -276l-166 -119q-129 201 -391 200q-215 0 -354 -147t-139 -370.5t139 -372t354 -148.5q264 0 412 219l166 -116q-193 -291 -563 -297v-76q76 -14 126 -65.5t50 -133.5q0 -86 -61.5 -138 t-145.5 -52q-158 0 -225 123l106 63q33 -68 102 -68q37 0 61.5 21.5t24.5 60.5t-26.5 62.5t-73.5 23.5h-55v185z" />
<glyph unicode="&#xc8;" horiz-adv-x="1202" d="M553 1538l-201 389h238l123 -389h-160zM168 0v1393h885v-191h-668v-540h592v-187h-592v-285h696v-190h-913z" />
<glyph unicode="&#xc9;" horiz-adv-x="1202" d="M528 1538l123 389h238l-201 -389h-160zM168 0v1393h885v-191h-668v-540h592v-187h-592v-285h696v-190h-913z" />
<glyph unicode="&#xca;" horiz-adv-x="1202" d="M313 1536l293 418h23l293 -418h-170l-134 170l-135 -170h-170zM168 0v1393h885v-191h-668v-540h592v-187h-592v-285h696v-190h-913z" />
<glyph unicode="&#xcb;" horiz-adv-x="1202" d="M815 1563q-49 0 -86 36.5t-37 88.5q0 49 37 85.5t86 36.5t87 -36.5t38 -85.5q0 -51 -38 -88t-87 -37zM418 1563q-49 0 -87 36.5t-38 88.5q0 49 38 85.5t87 36.5t86 -35.5t37 -87t-37 -88t-86 -36.5zM168 0v1393h885v-191h-668v-540h592v-187h-592v-285h696v-190h-913z " />
<glyph unicode="&#xcc;" horiz-adv-x="565" d="M199 1538l-201 389h238l122 -389h-159zM176 0v1393h215v-1393h-215z" />
<glyph unicode="&#xcd;" horiz-adv-x="565" d="M205 1538l123 389h237l-200 -389h-160zM176 0v1393h215v-1393h-215z" />
<glyph unicode="&#xce;" horiz-adv-x="567" d="M-23 1536l293 418h23l293 -418h-170l-133 170l-136 -170h-170zM176 0v1393h215v-1393h-215z" />
<glyph unicode="&#xcf;" horiz-adv-x="563" d="M479 1563q-49 0 -86 36.5t-37 88.5q0 49 37 85.5t86 36.5t87 -36.5t38 -85.5q0 -51 -38 -88t-87 -37zM82 1563q-49 0 -87 36.5t-38 88.5q0 49 38 85.5t87 36.5t86 -35.5t37 -87t-37 -88t-86 -36.5zM176 0v1393h215v-1393h-215z" />
<glyph unicode="&#xd0;" horiz-adv-x="1396" d="M168 0v492h-141v186h141v715h391q330 0 532.5 -193.5t202.5 -503t-202.5 -503t-532.5 -193.5h-391zM385 190h162q258 0 390 137.5t132 369t-132 368.5t-390 137h-162v-524h342v-186h-342v-302z" />
<glyph unicode="&#xd1;" horiz-adv-x="1447" d="M545 1532l-146 14q6 123 61.5 189.5t139.5 66.5q68 0 135 -53q6 -6 22 -17l19 -15q4 -3 14.5 -9t15.5 -8t13 -4t17 -2q57 0 65 106l146 -14q-6 -123 -60.5 -189.5t-140.5 -66.5q-66 0 -135 55q-8 6 -24.5 19.5t-23 16.5t-16.5 9t-17 8t-18 2q-57 1 -67 -108zM1253 -14 l-768 827l-131 156q14 -115 15 -201v-768h-201v1407h29l768 -825l129 -156q-14 123 -15 201v766h201v-1407h-27z" />
<glyph unicode="&#xd2;" horiz-adv-x="1644" d="M743 1538l-200 389h237l123 -389h-160zM823 -18q-303 0 -511 202.5t-208 512t208 512t511 202.5q301 0 509 -202.5t208 -512t-208 -512t-509 -202.5zM823 176q217 0 356.5 148.5t139.5 372t-139.5 372t-356.5 148.5t-357 -148.5t-140 -372t140 -372t357 -148.5z" />
<glyph unicode="&#xd3;" horiz-adv-x="1644" d="M743 1538l123 389h238l-201 -389h-160zM823 -18q-303 0 -511 202.5t-208 512t208 512t511 202.5q301 0 509 -202.5t208 -512t-208 -512t-509 -202.5zM823 176q217 0 356.5 148.5t139.5 372t-139.5 372t-356.5 148.5t-357 -148.5t-140 -372t140 -372t357 -148.5z" />
<glyph unicode="&#xd4;" horiz-adv-x="1644" d="M518 1536l293 418h23l292 -418h-170l-133 170l-135 -170h-170zM823 -18q-303 0 -511 202.5t-208 512t208 512t511 202.5q301 0 509 -202.5t208 -512t-208 -512t-509 -202.5zM823 176q217 0 356.5 148.5t139.5 372t-139.5 372t-356.5 148.5t-357 -148.5t-140 -372 t140 -372t357 -148.5z" />
<glyph unicode="&#xd5;" horiz-adv-x="1644" d="M645 1532l-145 14q6 123 61 189.5t139 66.5q68 0 136 -53q6 -6 21 -17l20 -15q4 -3 14 -9t15 -8t13.5 -4t16.5 -2q57 0 65 106l146 -14q-6 -123 -60.5 -189.5t-140.5 -66.5q-66 0 -135 55q-8 6 -24.5 19.5t-22.5 16.5t-16.5 9t-17.5 8t-17 2q-58 1 -68 -108zM823 -18 q-303 0 -511 202.5t-208 512t208 512t511 202.5q301 0 509 -202.5t208 -512t-208 -512t-509 -202.5zM823 176q217 0 356.5 148.5t139.5 372t-139.5 372t-356.5 148.5t-357 -148.5t-140 -372t140 -372t357 -148.5z" />
<glyph unicode="&#xd6;" horiz-adv-x="1644" d="M1022 1563q-49 0 -86 36.5t-37 88.5q0 49 37 85.5t86 36.5t87 -36.5t38 -85.5q0 -51 -38 -88t-87 -37zM624.5 1563q-49.5 0 -87 36.5t-37.5 88.5q0 49 37.5 85.5t87 36.5t86.5 -35.5t37 -87t-37 -88t-86.5 -36.5zM823 -18q-303 0 -511 202.5t-208 512t208 512t511 202.5 q301 0 509 -202.5t208 -512t-208 -512t-509 -202.5zM823 176q217 0 356.5 148.5t139.5 372t-139.5 372t-356.5 148.5t-357 -148.5t-140 -372t140 -372t357 -148.5z" />
<glyph unicode="&#xd7;" d="M227.5 371q-57.5 0 -99.5 41t-42 102q0 59 42 99t99.5 40t98.5 -40t41 -99q0 -61 -41 -102t-98.5 -41z" />
<glyph unicode="&#xd8;" horiz-adv-x="1640" d="M209 -20l-121 118l162 158q-147 190 -148 440q0 307 208 511t511 204q256 0 451 -156l160 156l120 -119l-159 -157q145 -188 145 -439q0 -305 -208 -509.5t-509 -204.5q-258 0 -450 153zM406 408l720 708q-125 102 -305 103q-217 0 -357 -149.5t-140 -373.5 q0 -165 82 -288zM821 174q217 0 357.5 149.5t140.5 372.5q0 162 -82 289l-723 -709q129 -102 307 -102z" />
<glyph unicode="&#xd9;" horiz-adv-x="1380" d="M610 1538l-200 389h237l123 -389h-160zM690 -18q-238 0 -384 131t-146 376v904h217v-891q0 -326 313 -326q315 0 316 326v891h215v-904q0 -246 -147.5 -376.5t-383.5 -130.5z" />
<glyph unicode="&#xda;" horiz-adv-x="1380" d="M610 1538l123 389h238l-201 -389h-160zM690 -18q-238 0 -384 131t-146 376v904h217v-891q0 -326 313 -326q315 0 316 326v891h215v-904q0 -246 -147.5 -376.5t-383.5 -130.5z" />
<glyph unicode="&#xdb;" horiz-adv-x="1380" d="M385 1536l293 418h22l293 -418h-170l-133 170l-135 -170h-170zM690 -18q-238 0 -384 131t-146 376v904h217v-891q0 -326 313 -326q315 0 316 326v891h215v-904q0 -246 -147.5 -376.5t-383.5 -130.5z" />
<glyph unicode="&#xdc;" horiz-adv-x="1380" d="M889 1563q-49 0 -86 36.5t-37 88.5q0 49 37 85.5t86 36.5t87 -36.5t38 -85.5q0 -51 -38 -88t-87 -37zM491.5 1563q-49.5 0 -87 36.5t-37.5 88.5q0 49 37.5 85.5t87 36.5t86 -35.5t36.5 -87t-36.5 -88t-86 -36.5zM690 -18q-238 0 -384 131t-146 376v904h217v-891 q0 -326 313 -326q315 0 316 326v891h215v-904q0 -246 -147.5 -376.5t-383.5 -130.5z" />
<glyph unicode="&#xdd;" horiz-adv-x="1368" d="M606 1538l123 389h238l-201 -389h-160zM588 0v440l-529 953h240l315 -574q43 -78 84 -201q43 123 84 201l305 574h224l-506 -940v-453h-217z" />
<glyph unicode="&#xde;" horiz-adv-x="1212" d="M168 0v1393h217v-156h139q281 0 436.5 -144.5t155.5 -388t-155.5 -386t-436.5 -142.5h-139v-176h-217zM385 365h131q379 0 379 340q0 342 -379 342h-131v-682z" />
<glyph unicode="&#xdf;" horiz-adv-x="1146" d="M625 -10q-106 0 -166 22l30 170q53 -16 103 -16q125 0 189.5 70.5t64.5 197.5q0 141 -88 214t-246 69v166q96 12 152.5 70.5t56.5 167t-50 160.5t-136 52q-88 0 -142.5 -59.5t-54.5 -179.5v-1094h-207v1090q0 201 112.5 308t291.5 107q176 0 280.5 -101t104.5 -276 q0 -213 -181 -299q150 -37 235 -139t85 -262q0 -197 -114.5 -317.5t-319.5 -120.5z" />
<glyph unicode="&#xe0;" horiz-adv-x="980" d="M428 1022l-201 389h238l123 -389h-160zM651 512q0 195 -172 195q-135 0 -225 -103l-119 121q129 154 361 154q164 0 263 -94.5t99 -276.5v-508h-207l6 123q-94 -141 -270 -141q-137 0 -223 67.5t-86 204.5q0 129 92 192.5t246 65.5h235zM651 369h-221q-150 0 -149 -109 q0 -113 163 -113q92 0 149.5 42t57.5 112v68z" />
<glyph unicode="&#xe1;" horiz-adv-x="980" d="M395 1022l123 389h238l-201 -389h-160zM651 512q0 195 -172 195q-135 0 -225 -103l-119 121q129 154 361 154q164 0 263 -94.5t99 -276.5v-508h-207l6 123q-94 -141 -270 -141q-137 0 -223 67.5t-86 204.5q0 129 92 192.5t246 65.5h235zM651 369h-221q-150 0 -149 -109 q0 -113 163 -113q92 0 149.5 42t57.5 112v68z" />
<glyph unicode="&#xe2;" horiz-adv-x="980" d="M184 1020l293 418h23l293 -418h-170l-134 170l-135 -170h-170zM651 512q0 195 -172 195q-135 0 -225 -103l-119 121q129 154 361 154q164 0 263 -94.5t99 -276.5v-508h-207l6 123q-94 -141 -270 -141q-137 0 -223 67.5t-86 204.5q0 129 92 192.5t246 65.5h235zM651 369 h-221q-150 0 -149 -109q0 -113 163 -113q92 0 149.5 42t57.5 112v68z" />
<glyph unicode="&#xe3;" horiz-adv-x="980" d="M301 1016l-145 14q6 123 61 189.5t139 66.5q68 0 136 -53q6 -6 21 -18l19 -14q4 -3 14.5 -9t15.5 -8t13.5 -4t16.5 -2q57 0 65 106l146 -14q-6 -123 -60.5 -189.5t-140.5 -66.5q-66 0 -135 55q-8 6 -24.5 19.5t-22.5 16.5t-16.5 9t-17.5 8t-17 2q-58 1 -68 -108zM651 512 q0 195 -172 195q-135 0 -225 -103l-119 121q129 154 361 154q164 0 263 -94.5t99 -276.5v-508h-207l6 123q-94 -141 -270 -141q-137 0 -223 67.5t-86 204.5q0 129 92 192.5t246 65.5h235zM651 369h-221q-150 0 -149 -109q0 -113 163 -113q92 0 149.5 42t57.5 112v68z" />
<glyph unicode="&#xe4;" horiz-adv-x="980" d="M690 1047q-49 0 -86 36.5t-37 87.5q0 49 37 86t86 37t87 -36.5t38 -86.5q0 -51 -38 -87.5t-87 -36.5zM293 1047q-49 0 -87 36.5t-38 87.5q0 49 38 86t87 37t86 -35.5t37 -87t-37 -88t-86 -36.5zM651 512q0 195 -172 195q-135 0 -225 -103l-119 121q129 154 361 154 q164 0 263 -94.5t99 -276.5v-508h-207l6 123q-94 -141 -270 -141q-137 0 -223 67.5t-86 204.5q0 129 92 192.5t246 65.5h235zM651 369h-221q-150 0 -149 -109q0 -113 163 -113q92 0 149.5 42t57.5 112v68z" />
<glyph unicode="&#xe5;" horiz-adv-x="980" d="M489.5 981q-100.5 0 -170 65.5t-69.5 157.5q0 94 69.5 160t170 66t170 -66t69.5 -160q0 -92 -69.5 -157.5t-170 -65.5zM651 512q0 195 -172 195q-135 0 -225 -103l-119 121q129 154 361 154q164 0 263 -94.5t99 -276.5v-508h-207l6 123q-94 -141 -270 -141 q-137 0 -223 67.5t-86 204.5q0 129 92 192.5t246 65.5h235zM489 1102q43 0 71 27.5t28 74.5q0 49 -28 77t-71 28t-70.5 -28t-27.5 -77q0 -47 27.5 -74.5t70.5 -27.5zM651 369h-221q-150 0 -149 -109q0 -113 163 -113q92 0 149.5 42t57.5 112v68z" />
<glyph unicode="&#xe6;" horiz-adv-x="1642" d="M651 512q0 195 -172 195q-135 0 -225 -103l-119 121q129 154 361 154q209 0 280 -166q119 166 334 166q217 0 336 -144.5t108 -374.5h-694q18 -94 89 -149t184 -55q150 0 245 92l121 -127q-139 -139 -364 -139q-250 0 -369 176q-43 -84 -134 -130t-210 -46 q-158 0 -251 65.5t-93 206.5q0 129 92 193.5t246 64.5h235zM860 504h486q-33 203 -236 203q-100 0 -166 -53.5t-84 -149.5zM651 369h-221q-150 0 -149 -109q0 -113 163 -113q92 0 149.5 42t57.5 112v68z" />
<glyph unicode="&#xe7;" horiz-adv-x="968" d="M436 -6q-156 35 -252 153.5t-96 282.5q0 193 131 321t328 128q217 0 348 -164l-147 -119q-70 100 -201 100q-113 0 -179.5 -74.5t-66.5 -191.5t66.5 -191.5t179.5 -74.5q125 0 211 96l141 -123q-133 -154 -346 -155v-76q76 -14 126 -65.5t50 -133.5q0 -86 -61.5 -138 t-145.5 -52q-158 0 -225 123l106 63q35 -68 103 -68q37 0 61.5 21.5t24.5 60.5t-26.5 62.5t-73.5 23.5h-56v191z" />
<glyph unicode="&#xe8;" horiz-adv-x="1079" d="M473 1022l-201 389h238l123 -389h-160zM299 360q41 -205 272 -204q147 0 244 92l121 -127q-139 -139 -363 -139q-219 0 -352 125.5t-133 322.5q0 190 132 319.5t327 129.5q217 0 335.5 -144.5t108.5 -374.5h-692zM299 504h483q-33 203 -233 203q-100 0 -166 -53.5 t-84 -149.5z" />
<glyph unicode="&#xe9;" horiz-adv-x="1079" d="M459 1022l123 389h237l-201 -389h-159zM299 360q41 -205 272 -204q147 0 244 92l121 -127q-139 -139 -363 -139q-219 0 -352 125.5t-133 322.5q0 190 132 319.5t327 129.5q217 0 335.5 -144.5t108.5 -374.5h-692zM299 504h483q-33 203 -233 203q-100 0 -166 -53.5 t-84 -149.5z" />
<glyph unicode="&#xea;" horiz-adv-x="1079" d="M233 1020l293 418h23l293 -418h-170l-133 170l-136 -170h-170zM299 360q41 -205 272 -204q147 0 244 92l121 -127q-139 -139 -363 -139q-219 0 -352 125.5t-133 322.5q0 190 132 319.5t327 129.5q217 0 335.5 -144.5t108.5 -374.5h-692zM299 504h483q-33 203 -233 203 q-100 0 -166 -53.5t-84 -149.5z" />
<glyph unicode="&#xeb;" horiz-adv-x="1079" d="M737 1047q-49 0 -86 36.5t-37 87.5q0 49 37 86t86 37t87 -36.5t38 -86.5q0 -51 -38 -87.5t-87 -36.5zM340 1047q-49 0 -87 36.5t-38 87.5q0 49 38 86t87 37t86 -35.5t37 -87t-37 -88t-86 -36.5zM299 360q41 -205 272 -204q147 0 244 92l121 -127q-139 -139 -363 -139 q-219 0 -352 125.5t-133 322.5q0 190 132 319.5t327 129.5q217 0 335.5 -144.5t108.5 -374.5h-692zM299 504h483q-33 203 -233 203q-100 0 -166 -53.5t-84 -149.5z" />
<glyph unicode="&#xec;" horiz-adv-x="483" d="M160 1022l-201 389h238l122 -389h-159zM137 0v860h209v-860h-209z" />
<glyph unicode="&#xed;" horiz-adv-x="483" d="M156 1022l123 389h237l-201 -389h-159zM137 0v860h209v-860h-209z" />
<glyph unicode="&#xee;" horiz-adv-x="485" d="M-63 1020l292 418h23l293 -418h-170l-133 170l-136 -170h-169zM137 0v860h209v-860h-209z" />
<glyph unicode="&#xef;" horiz-adv-x="483" d="M440 1047q-49 0 -86 36.5t-37 87.5q0 49 37 86t86 37t87 -36.5t38 -86.5q0 -51 -38 -87.5t-87 -36.5zM43 1047q-49 0 -87 36.5t-38 87.5q0 49 38 86t87 37t86 -35.5t37 -87t-37 -88t-86 -36.5zM137 0v860h209v-860h-209z" />
<glyph unicode="&#xf0;" horiz-adv-x="1103" d="M557 1130l-129 -122l-98 98l135 129q-82 84 -156 147l111 131q96 -74 176 -149l125 121l100 -99l-129 -124q324 -365 324 -801q0 -217 -131 -348t-332 -131q-197 0 -331 129t-134 319.5t130 319.5t304 129q143 0 230 -93q-52 162 -195 344zM553 160q115 0 182.5 76.5 t67.5 197.5q0 117 -67.5 190.5t-182.5 73.5t-183.5 -74.5t-68.5 -193.5t68.5 -194.5t183.5 -75.5z" />
<glyph unicode="&#xf1;" horiz-adv-x="1069" d="M354 1016l-145 14q6 123 61.5 189.5t139.5 66.5q68 0 135 -53q6 -6 21 -18l20 -14q4 -3 14 -9t15.5 -8t13.5 -4t16 -2q57 0 66 106l145 -14q-6 -123 -60.5 -189.5t-140.5 -66.5q-66 0 -135 55q-8 6 -24.5 19.5t-22.5 16.5t-16.5 9t-17.5 8t-17 2q-58 1 -68 -108zM131 0 v860h207l-4 -160q39 84 116.5 131.5t174.5 47.5q145 0 233 -98.5t88 -270.5v-510h-207v494q0 195 -178 194q-102 0 -162.5 -58.5t-60.5 -162.5v-467h-207z" />
<glyph unicode="&#xf2;" horiz-adv-x="1103" d="M467 1022l-201 389h238l123 -389h-160zM553 -18q-197 0 -331 129t-134 319.5t134 319.5t331 129t330 -128t133 -320.5t-133 -320.5t-330 -128zM553 160q115 0 182.5 75.5t67.5 194.5t-67.5 193.5t-182.5 74.5t-183.5 -74.5t-68.5 -193.5t68.5 -194.5t183.5 -75.5z" />
<glyph unicode="&#xf3;" horiz-adv-x="1103" d="M475 1022l123 389h238l-201 -389h-160zM553 -18q-197 0 -331 129t-134 319.5t134 319.5t331 129t330 -128t133 -320.5t-133 -320.5t-330 -128zM553 160q115 0 182.5 75.5t67.5 194.5t-67.5 193.5t-182.5 74.5t-183.5 -74.5t-68.5 -193.5t68.5 -194.5t183.5 -75.5z" />
<glyph unicode="&#xf4;" horiz-adv-x="1103" d="M246 1020l293 418h22l293 -418h-170l-133 170l-135 -170h-170zM553 -18q-197 0 -331 129t-134 319.5t134 319.5t331 129t330 -128t133 -320.5t-133 -320.5t-330 -128zM553 160q115 0 182.5 75.5t67.5 194.5t-67.5 193.5t-182.5 74.5t-183.5 -74.5t-68.5 -193.5 t68.5 -194.5t183.5 -75.5z" />
<glyph unicode="&#xf5;" horiz-adv-x="1103" d="M373 1016l-146 14q6 123 61.5 189.5t139.5 66.5q68 0 135 -53q6 -6 22 -18l19 -14q4 -3 14.5 -9t15.5 -8t13 -4t17 -2q57 0 65 106l145 -14q-6 -123 -60 -189.5t-140 -66.5q-66 0 -135 55q-8 6 -24.5 19.5t-23 16.5t-16.5 9t-17 8t-18 2q-57 1 -67 -108zM553 -18 q-197 0 -331 129t-134 319.5t134 319.5t331 129t330 -128t133 -320.5t-133 -320.5t-330 -128zM553 160q115 0 182.5 75.5t67.5 194.5t-67.5 193.5t-182.5 74.5t-183.5 -74.5t-68.5 -193.5t68.5 -194.5t183.5 -75.5z" />
<glyph unicode="&#xf6;" horiz-adv-x="1103" d="M749.5 1047q-49.5 0 -86 36.5t-36.5 87.5q0 49 36.5 86t86 37t87 -36.5t37.5 -86.5q0 -51 -37.5 -87.5t-87 -36.5zM352 1047q-49 0 -87 36.5t-38 87.5q0 49 38 86t87 37t86 -35.5t37 -87t-37 -88t-86 -36.5zM553 -18q-197 0 -331 129t-134 319.5t134 319.5t331 129 t330 -128t133 -320.5t-133 -320.5t-330 -128zM553 160q115 0 182.5 75.5t67.5 194.5t-67.5 193.5t-182.5 74.5t-183.5 -74.5t-68.5 -193.5t68.5 -194.5t183.5 -75.5z" />
<glyph unicode="&#xf7;" d="M227.5 371q-57.5 0 -99.5 41t-42 102q0 59 42 99t99.5 40t98.5 -40t41 -99q0 -61 -41 -102t-98.5 -41z" />
<glyph unicode="&#xf8;" horiz-adv-x="1103" d="M936 682q80 -113 80 -252q0 -193 -133 -320.5t-330 -127.5q-168 0 -295 100l-123 -109l-86 99l119 104q-80 115 -80 254q0 190 134 319.5t331 129.5q166 0 293 -101l123 109l86 -101zM313 307l396 350q-63 47 -156 48q-117 0 -189.5 -77t-72.5 -198q-1 -66 22 -123z M791 553l-398 -350q68 -51 160 -51q117 0 188.5 77.5t71.5 200.5q1 66 -22 123z" />
<glyph unicode="&#xf9;" horiz-adv-x="1064" d="M453 1022l-201 389h237l123 -389h-159zM442 -18q-143 0 -231 97t-88 269v512h207v-495q0 -195 178 -195q102 0 160.5 59.5t58.5 163.5v467h207v-860h-207l4 158q-41 -84 -116 -130t-173 -46z" />
<glyph unicode="&#xfa;" horiz-adv-x="1064" d="M453 1022l122 389h238l-201 -389h-159zM442 -18q-143 0 -231 97t-88 269v512h207v-495q0 -195 178 -195q102 0 160.5 59.5t58.5 163.5v467h207v-860h-207l4 158q-41 -84 -116 -130t-173 -46z" />
<glyph unicode="&#xfb;" horiz-adv-x="1064" d="M227 1020l293 418h23l293 -418h-170l-134 170l-135 -170h-170zM442 -18q-143 0 -231 97t-88 269v512h207v-495q0 -195 178 -195q102 0 160.5 59.5t58.5 163.5v467h207v-860h-207l4 158q-41 -84 -116 -130t-173 -46z" />
<glyph unicode="&#xfc;" horiz-adv-x="1064" d="M731 1047q-49 0 -86 36.5t-37 87.5q0 49 37 86t86 37t87 -36.5t38 -86.5q0 -51 -38 -87.5t-87 -36.5zM334 1047q-49 0 -87 36.5t-38 87.5q0 49 38 86t87 37t86 -35.5t37 -87t-37 -88t-86 -36.5zM442 -18q-143 0 -231 97t-88 269v512h207v-495q0 -195 178 -195 q102 0 160.5 59.5t58.5 163.5v467h207v-860h-207l4 158q-41 -84 -116 -130t-173 -46z" />
<glyph unicode="&#xfd;" horiz-adv-x="974" d="M418 1022l123 389h237l-200 -389h-160zM164 -434l223 512l-352 782h229l180 -430q12 -29 24.5 -74t18.5 -73l7 -31q18 113 47 178l184 430h215l-563 -1294h-213z" />
<glyph unicode="&#xfe;" horiz-adv-x="1134" d="M137 -434v1913h207v-768q102 168 303 168q168 0 282.5 -127t114.5 -319.5t-116.5 -321.5t-284.5 -129q-104 0 -181 45t-118 120v-581h-207zM588 164q111 0 176 73.5t65 194.5q0 117 -65.5 189.5t-175.5 72.5q-113 0 -181.5 -72.5t-68.5 -189.5q0 -121 68.5 -194.5 t181.5 -73.5z" />
<glyph unicode="&#xff;" horiz-adv-x="974" d="M684 1047q-49 0 -86 36.5t-37 87.5q0 49 37 86t86 37t87 -36.5t38 -86.5q0 -51 -38 -87.5t-87 -36.5zM287 1047q-49 0 -87 36.5t-38 87.5q0 49 38 86t87 37t86 -35.5t37 -87t-37 -88t-86 -36.5zM164 -434l223 512l-352 782h229l180 -430q12 -29 24.5 -74t18.5 -73l7 -31 q18 113 47 178l184 430h215l-563 -1294h-213z" />
<glyph unicode="&#x152;" horiz-adv-x="2031" d="M836 0q-330 0 -532 193.5t-202 503t202 503t532 193.5h1046v-191h-668v-540h592v-187h-592v-285h697v-190h-1075zM848 190h149v1012h-149q-258 0 -391 -137t-133 -368.5t133 -369t391 -137.5z" />
<glyph unicode="&#x153;" horiz-adv-x="1792" d="M1010 360q41 -205 272 -204q147 0 244 92l121 -127q-139 -139 -363 -139q-262 0 -375 196q-51 -92 -143 -144t-213 -52q-197 0 -331 129t-134 319.5t134 319.5t331 129q248 0 354 -195q51 90 142.5 142.5t210.5 52.5q215 0 333.5 -144.5t108.5 -374.5h-692zM1010 504h483 q-33 203 -233 203q-100 0 -166 -53.5t-84 -149.5zM553 160q115 0 182.5 75.5t67.5 194.5t-67.5 193.5t-182.5 74.5t-183.5 -74.5t-68.5 -193.5t68.5 -194.5t183.5 -75.5z" />
<glyph unicode="&#x178;" horiz-adv-x="1368" d="M883 1563q-49 0 -86 36.5t-37 88.5q0 49 37 85.5t86 36.5t87 -36.5t38 -85.5q0 -51 -38 -88t-87 -37zM485.5 1563q-49.5 0 -87.5 36.5t-38 88.5q0 49 38 85.5t87.5 36.5t86 -35.5t36.5 -87t-36.5 -88t-86 -36.5zM588 0v440l-529 953h240l315 -574q43 -78 84 -201 q43 123 84 201l305 574h224l-506 -940v-453h-217z" />
<glyph unicode="&#x2c6;" horiz-adv-x="1024" d="M207 1020l293 418h22l293 -418h-170l-133 170l-135 -170h-170z" />
<glyph unicode="&#x2dc;" horiz-adv-x="1024" d="M334 1016l-146 14q6 123 61.5 189.5t139.5 66.5q68 0 135 -53q6 -6 22 -18l19 -14q4 -3 14.5 -9t15.5 -8t13 -4t17 -2q57 0 65 106l146 -14q-6 -123 -60.5 -189.5t-140.5 -66.5q-66 0 -135 55q-8 6 -24.5 19.5t-23 16.5t-16.5 9t-17 8t-18 2q-57 1 -67 -108z" />
<glyph unicode="&#x2000;" horiz-adv-x="976" />
<glyph unicode="&#x2001;" horiz-adv-x="1953" />
<glyph unicode="&#x2002;" horiz-adv-x="976" />
<glyph unicode="&#x2003;" horiz-adv-x="1953" />
<glyph unicode="&#x2004;" horiz-adv-x="651" />
<glyph unicode="&#x2005;" horiz-adv-x="487" />
<glyph unicode="&#x2006;" horiz-adv-x="325" />
<glyph unicode="&#x2007;" horiz-adv-x="325" />
<glyph unicode="&#x2008;" horiz-adv-x="243" />
<glyph unicode="&#x2009;" horiz-adv-x="389" />
<glyph unicode="&#x200a;" horiz-adv-x="108" />
<glyph unicode="&#x2010;" horiz-adv-x="602" d="M84 391v187h432v-187h-432z" />
<glyph unicode="&#x2011;" horiz-adv-x="602" d="M84 391v187h432v-187h-432z" />
<glyph unicode="&#x2012;" horiz-adv-x="602" d="M84 391v187h432v-187h-432z" />
<glyph unicode="&#x2013;" horiz-adv-x="819" d="M68 338v184h684v-184h-684z" />
<glyph unicode="&#x2014;" horiz-adv-x="1310" d="M68 338v184h1175v-184h-1175z" />
<glyph unicode="&#x2018;" d="M225.5 911q-55.5 0 -95.5 39t-40 94q0 53 43 130l117 219h104l-73 -224q33 -12 56 -45.5t23 -76.5q0 -57 -39.5 -96.5t-95 -39.5z" />
<glyph unicode="&#x2019;" d="M94 926l74 223q-33 12 -55.5 46t-22.5 77q0 57 40 96t93 39q55 0 96 -39t41 -94q0 -53 -43 -129l-118 -219h-105z" />
<glyph unicode="&#x201a;" d="M94 -209l74 223q-33 12 -55.5 46t-22.5 77q0 55 40 95t93 40q55 0 96 -39.5t41 -95.5q0 -53 -43 -127l-118 -219h-105z" />
<glyph unicode="&#x201c;" horiz-adv-x="831" d="M608.5 911q-55.5 0 -96.5 39t-41 94q0 49 45 130l117 219h104l-73 -224q33 -12 56 -45.5t23 -76.5q0 -57 -39.5 -96.5t-95 -39.5zM225.5 911q-55.5 0 -95.5 39t-40 94q0 53 43 130l117 219h104l-73 -224q33 -12 56 -45.5t23 -76.5q0 -57 -39.5 -96.5t-95 -39.5z" />
<glyph unicode="&#x201d;" horiz-adv-x="831" d="M477 926l74 223q-33 12 -56.5 46t-23.5 77q0 57 41 96t94 39q55 0 96 -39t41 -94q0 -47 -43 -129l-118 -219h-105zM94 926l74 223q-33 12 -55.5 46t-22.5 77q0 57 40 96t93 39q55 0 96 -39t41 -94q0 -53 -43 -129l-118 -219h-105z" />
<glyph unicode="&#x201e;" horiz-adv-x="831" d="M477 -209l74 223q-33 12 -56.5 46t-23.5 77q0 55 41 95t94 40q55 0 96 -39.5t41 -95.5q0 -47 -43 -127l-118 -219h-105zM94 -209l74 223q-33 12 -55.5 46t-22.5 77q0 55 40 95t93 40q55 0 96 -39.5t41 -95.5q0 -53 -43 -127l-118 -219h-105z" />
<glyph unicode="&#x2022;" horiz-adv-x="569" d="M285 346q-84 0 -145.5 60.5t-61.5 146.5q0 88 61.5 147.5t145.5 59.5t145.5 -59.5t61.5 -147.5q0 -86 -62.5 -146.5t-144.5 -60.5z" />
<glyph unicode="&#x2026;" horiz-adv-x="1380" d="M1153 -12q-57 0 -100 41t-43 100t43 99t100 40t98 -40t41 -99t-41 -100t-98 -41zM690.5 -12q-57.5 0 -99.5 41t-42 100t42 99t99.5 40t99 -40t41.5 -99t-41.5 -100t-99 -41zM229.5 -12q-57.5 0 -99.5 41t-42 100t42 99t99.5 40t98.5 -40t41 -99t-41 -100t-98.5 -41z" />
<glyph unicode="&#x202f;" horiz-adv-x="389" />
<glyph unicode="&#x2039;" horiz-adv-x="542" d="M264 72l-192 334v16l192 330h207l-199 -338l199 -342h-207z" />
<glyph unicode="&#x203a;" horiz-adv-x="542" d="M72 72l198 338l-198 342h204l195 -334v-17l-195 -329h-204z" />
<glyph unicode="&#x205f;" horiz-adv-x="487" />
<glyph unicode="&#x20ac;" horiz-adv-x="1249" d="M201 580h-133v147h165q59 154 197.5 247t310.5 93q264 0 412 -188l-145 -121q-98 131 -267 131q-199 0 -288 -162h356v-147h-401q-2 -16 -2 -54q0 -10 1 -28.5t1 -26.5h401v-147h-354q90 -162 286 -162q178 0 275 143l155 -112q-74 -109 -177 -160t-253 -51 q-172 0 -308 93t-197 249h-168v147h133q-2 18 -2 55.5t2 53.5z" />
<glyph unicode="&#x2122;" horiz-adv-x="1470" d="M705 780v621h18l297 -316l299 316h18v-621h-147v320l-160 -189h-18l-162 189v-320h-145zM260 780v490h-174v123h498v-123h-174v-490h-150z" />
<glyph unicode="&#xe000;" horiz-adv-x="860" d="M0 860h860v-860h-860v860z" />
<glyph unicode="&#xfb01;" horiz-adv-x="1110" d="M868.5 1057q-57.5 0 -97.5 39t-40 98q0 57 41 96t96.5 39t96.5 -39t41 -96q0 -59 -40 -98t-97.5 -39zM209 0v686h-141v174h141v340q0 305 276 305q135 0 222 -86l-115 -139q-39 39 -88 39q-88 0 -88 -117v-342h557v-860h-209v686h-348v-686h-207z" />
<glyph unicode="&#xfb02;" horiz-adv-x="1114" d="M209 0v686h-141v174h141v256q0 182 108.5 285.5t272.5 103.5q166 0 274.5 -96t108.5 -279v-1130h-209v1118q0 201 -174 201q-80 0 -127 -49t-47 -152v-258h211v-174h-211v-686h-207z" />
<glyph unicode="&#xfb03;" horiz-adv-x="1908" d="M1666.5 1057q-57.5 0 -97.5 39t-40 98q0 57 41 96t96.5 39t96.5 -39t41 -96q0 -59 -40 -98t-97.5 -39zM1562 0v860h209v-860h-209zM922 0v686h-141v174h141v340q0 305 276 305q156 0 244 -106l-123 -131q-43 51 -100 51q-90 0 -90 -117v-342h231v-174h-231v-686h-207z M209 0v686h-141v174h141v340q0 305 276 305q156 0 244 -106l-123 -131q-43 51 -100 51q-90 0 -90 -117v-342h231v-174h-231v-686h-207z" />
<glyph unicode="&#xfb04;" horiz-adv-x="1910" d="M1564 0v1479h207v-1479h-207zM922 0v686h-141v174h141v340q0 305 276 305q156 0 244 -106l-123 -131q-43 51 -100 51q-90 0 -90 -117v-342h231v-174h-231v-686h-207zM209 0v686h-141v174h141v340q0 305 276 305q156 0 244 -106l-123 -131q-43 51 -100 51q-90 0 -90 -117 v-342h231v-174h-231v-686h-207z" />
</font>
</defs>
</svg>
