<?xml version="1.0" standalone="no"?>
<!DOCTYPE svg PUBLIC "-//W3C//DTD SVG 1.1//EN" "http://www.w3.org/Graphics/SVG/1.1/DTD/svg11.dtd" >
<svg xmlns="http://www.w3.org/2000/svg">
<metadata>
This is a custom SVG webfont generated by Font Squirrel.
Copyright   : C2002 House IndustriesBrand Design Co Inc
Designer    : Christian Schwartz
Foundry URL : httpwwwhouseindustriescom
</metadata>
<defs>
<font id="webfontP5i3xHFt" horiz-adv-x="368" >
<font-face units-per-em="2048" ascent="1638" descent="-410" />
<missing-glyph horiz-adv-x="499" />
<glyph unicode=" "  horiz-adv-x="499" />
<glyph unicode="&#x09;" horiz-adv-x="499" />
<glyph unicode="&#xa0;" horiz-adv-x="499" />
<glyph unicode="!" horiz-adv-x="458" d="M199 348l-15 1045h90l-14 -1045h-61zM229.5 -14q-30.5 0 -54 23.5t-23.5 53.5q0 33 23.5 56.5t54 23.5t54 -23.5t23.5 -56t-23.5 -55t-54 -22.5z" />
<glyph unicode="&#x22;" horiz-adv-x="460" d="M301 997l-10 396h84l-10 -396h-64zM96 997l-10 396h84l-10 -396h-64z" />
<glyph unicode="#" horiz-adv-x="882" d="M147 393l58 228h-148v69h164l64 254h-164v70h180l59 235h74l-59 -235h227l60 235h73l-59 -235h149v-70h-166l-63 -254h164v-69h-182l-56 -228h-76l58 228h-228l-55 -228h-74zM295 690h227l64 254h-228z" />
<glyph unicode="$" horiz-adv-x="827" d="M375 -14q-117 12 -206 73.5t-128 143.5l68 33q82 -160 266 -181v449l-25 8q-129 43 -192.5 104.5t-63.5 167.5q0 104 80 171t201 75v219h69v-221q94 -10 165 -60t104 -118l-64 -35q-72 127 -205 143v-399l39 -12q147 -51 213 -116.5t66 -176.5q0 -117 -86 -190.5 t-232 -79.5v-230h-69v232zM375 961q-92 -6 -146.5 -51.5t-54.5 -125.5q0 -78 45 -119.5t150 -78.5l6 -2v377zM444 53q111 6 174.5 59.5t63.5 141.5t-48 133t-169 86l-21 6v-426z" />
<glyph unicode="%" horiz-adv-x="1480" d="M354 449q-119 0 -206 82.5t-87 207.5q0 123 87.5 207t205.5 84q117 0 204 -84t87 -207q0 -125 -87 -207.5t-204 -82.5zM385 0l631 1014h82l-631 -1014h-82zM1128.5 -16q-118.5 0 -204.5 83t-86 207q0 123 87 207t203.5 84t203.5 -84t87 -207q0 -125 -86 -207.5 t-204.5 -82.5zM354 516q90 0 152.5 62.5t62.5 161t-62.5 160t-152.5 61.5q-92 0 -154.5 -61.5t-62.5 -160t63.5 -161t153.5 -62.5zM1128.5 51q90.5 0 152.5 62.5t62 160.5q0 96 -62 159t-152.5 63t-153 -62.5t-62.5 -159.5q0 -98 62.5 -160.5t153 -62.5z" />
<glyph unicode="&#x26;" horiz-adv-x="1300" d="M588 805l352 -424q68 164 68 379h77q0 -254 -90 -445l262 -315h-104l-201 242q-166 -258 -463 -258q-178 0 -286.5 99t-108.5 267q0 88 29 159t93.5 130t112.5 92t142 88l-45 55q-111 135 -111 269q0 115 74 190.5t193 75.5q115 0 189.5 -77t74.5 -189q0 -176 -258 -338z M541 862q106 63 164.5 130t58.5 151q0 86 -51 138t-131 52q-84 0 -134.5 -51t-50.5 -139q0 -109 88 -213zM901 303l-383 461q-84 -49 -130 -80t-102.5 -82t-81 -112.5t-24.5 -139.5q0 -135 84 -213t225 -78q269 0 412 244z" />
<glyph unicode="'" horiz-adv-x="256" d="M96 997l-10 396h84l-10 -396h-64z" />
<glyph unicode="(" horiz-adv-x="534" d="M422 -279q-338 358 -338 874.5t338 874.5l53 -47q-307 -350 -307 -827t307 -827z" />
<glyph unicode=")" horiz-adv-x="534" d="M113 -279l-54 48q305 348 305.5 827t-305.5 827l54 47q338 -362 338 -874.5t-338 -874.5z" />
<glyph unicode="*" horiz-adv-x="776" d="M350 782l17 269l-217 -140l-37 66l243 113l-243 112l37 66l217 -140l-17 265h76l-16 -265l217 140l37 -66l-244 -112l242 -113l-35 -66l-217 140l16 -269h-76z" />
<glyph unicode="+" horiz-adv-x="727" d="M324 195v270h-244v74h244v270h77v-270h246v-74h-246v-270h-77z" />
<glyph unicode="," d="M82 -227l80 219q-59 14 -60 76q0 33 26 57.5t56 24.5q33 0 57.5 -25t24.5 -57q0 -23 -8 -39l-125 -256h-51z" />
<glyph unicode="-" horiz-adv-x="569" d="M104 426v74h359v-74h-359z" />
<glyph unicode="." d="M184 -14q-31 0 -56.5 24.5t-25.5 57.5q0 35 25 58.5t57.5 23.5t57 -24t24.5 -58q0 -33 -24.5 -57.5t-57.5 -24.5z" />
<glyph unicode="/" horiz-adv-x="901" d="M59 -262l637 1741h84l-637 -1741h-84z" />
<glyph unicode="0" horiz-adv-x="1239" d="M618 -16q-217 0 -372.5 151.5t-155.5 372.5q0 223 154.5 372.5t374 149.5t375 -149.5t155.5 -372.5q0 -221 -156 -372.5t-375 -151.5zM618.5 57q188.5 0 317.5 130t129 321q0 193 -129 320.5t-317.5 127.5t-316.5 -127t-128 -321q0 -193 128 -322t316.5 -129z" />
<glyph unicode="1" horiz-adv-x="536" d="M287 0v942h-240v72h322v-1014h-82z" />
<glyph unicode="2" horiz-adv-x="954" d="M68 0v14l419 357q121 102 180.5 186t59.5 174q0 111 -64.5 168t-170.5 57q-215 0 -291 -231l-72 20q35 133 132 209t231 76q141 0 229 -79t88 -220q0 -104 -67.5 -200.5t-198.5 -206.5l-230 -193q-39 -33 -92 -63q61 6 101 6h520v-74h-774z" />
<glyph unicode="3" horiz-adv-x="980" d="M475 -211q-143 0 -257 67.5t-167 188.5l70 35q109 -217 354 -217q141 0 237.5 89t96.5 247q0 154 -88 236.5t-248 82.5q-80 0 -162 -35l-12 17l356 389l58 59q-47 -6 -86 -6h-473v72h700v-8l-334 -367q-10 -12 -26.5 -25.5t-26.5 -19.5l-12 -8q195 12 316.5 -95.5 t121.5 -291.5q0 -188 -122 -299t-296 -111z" />
<glyph unicode="4" horiz-adv-x="1036" d="M811 139h158v-76h-158v-256h-82v256h-690v15l756 960h16v-899zM729 139v617l6 98q-33 -51 -59 -86l-440 -559q-27 -35 -70 -76q55 6 94 6h469z" />
<glyph unicode="5" horiz-adv-x="972" d="M465 -211q-133 0 -233.5 54.5t-153.5 146.5l63 41q104 -168 324 -168q152 0 245 93t93 247q0 156 -86 245t-248 89q-164 0 -293 -113l-14 4v586h659v-72h-585v-397q104 66 239 65q182 0 297 -113.5t115 -293.5q0 -182 -121 -298t-301 -116z" />
<glyph unicode="6" horiz-adv-x="1017" d="M510 -16q-180 0 -299 113.5t-119 291.5q0 121 117 301l371 559h90l-295 -446l-82 -101q102 94 227 95q176 0 291 -116t115 -292q0 -172 -118 -288.5t-298 -116.5zM508 57q145 0 240.5 93.5t95.5 238.5q0 154 -89 244t-245 90q-150 0 -243 -97.5t-93 -236.5 q0 -147 91 -239.5t243 -92.5z" />
<glyph unicode="7" horiz-adv-x="888" d="M172 -193l547 1135h-647v72h757v-15l-573 -1192h-84z" />
<glyph unicode="8" horiz-adv-x="1046" d="M522 -16q-195 0 -315.5 104.5t-120.5 269.5q0 127 80 218.5t213 123.5q-88 31 -140.5 99.5t-52.5 165.5q0 131 97.5 216t238.5 85q143 0 241.5 -85t98.5 -216q0 -96 -53 -164t-141 -101q133 -33 213 -124t80 -218q0 -166 -120 -270t-319 -104zM522.5 735 q116.5 0 187 63.5t70.5 166.5q0 100 -72.5 164.5t-185.5 64.5q-115 0 -185.5 -64.5t-70.5 -164.5q0 -104 70 -167t186.5 -63zM522 59q160 0 257.5 82t97.5 217q0 137 -98.5 220.5t-256 83.5t-255 -83t-97.5 -220.5t96 -218.5t256 -81z" />
<glyph unicode="9" horiz-adv-x="1034" d="M406 -193l266 406q12 18 30 41l31 37l15 12q-43 -43 -110 -69.5t-130 -26.5q-180 0 -298 116.5t-118 294.5q0 172 122 292t304 120t303 -116.5t121 -295.5q0 -121 -119 -307l-327 -504h-90zM516 279q152 0 248 98t96 241q0 147 -95 242.5t-246.5 95.5t-248 -94 t-96.5 -244q0 -156 93 -247.5t249 -91.5z" />
<glyph unicode=":" horiz-adv-x="389" d="M195 438q-31 0 -56.5 24.5t-25.5 57.5q0 35 25.5 59.5t56.5 24.5q33 0 57 -24.5t24 -59.5q0 -33 -24 -57.5t-57 -24.5zM195 -14q-31 0 -56.5 24.5t-25.5 57.5q0 35 25.5 59.5t56.5 24.5q33 0 57 -25t24 -59q0 -33 -24 -57.5t-57 -24.5z" />
<glyph unicode=";" horiz-adv-x="389" d="M195 438q-31 0 -56.5 24.5t-25.5 57.5q0 35 25.5 59.5t56.5 24.5q33 0 57 -24.5t24 -59.5q0 -33 -24 -57.5t-57 -24.5zM92 -227l80 219q-59 14 -59 76q0 33 25.5 57.5t56.5 24.5q33 0 57 -25t24 -57q0 -23 -8 -39l-125 -256h-51z" />
<glyph unicode="&#x37e;" horiz-adv-x="389" d="M195 438q-31 0 -56.5 24.5t-25.5 57.5q0 35 25.5 59.5t56.5 24.5q33 0 57 -24.5t24 -59.5q0 -33 -24 -57.5t-57 -24.5zM92 -227l80 219q-59 14 -59 76q0 33 25.5 57.5t56.5 24.5q33 0 57 -25t24 -57q0 -23 -8 -39l-125 -256h-51z" />
<glyph unicode="&#x3c;" horiz-adv-x="727" d="M614 215l-528 274v21l528 270v-80l-401 -200l401 -203v-82z" />
<glyph unicode="=" horiz-adv-x="727" d="M92 580v73h543v-73h-543zM92 348v74h543v-74h-543z" />
<glyph unicode="&#x3e;" horiz-adv-x="727" d="M113 215v80l401 201l-401 202v82l528 -274v-21z" />
<glyph unicode="?" horiz-adv-x="919" d="M356 340v379h56q139 0 227 89t88 220q0 145 -82 225t-215 80q-113 0 -186.5 -48t-124.5 -159l-70 35q47 119 147.5 183.5t233.5 64.5q168 0 274.5 -101.5t106.5 -279.5q0 -160 -107.5 -266.5t-269.5 -112.5v-309h-78zM393 -14q-31 0 -54.5 23.5t-23.5 53.5 q0 33 23.5 56.5t54.5 23.5t54.5 -23.5t23.5 -56t-23.5 -55t-54.5 -22.5z" />
<glyph unicode="@" horiz-adv-x="1777" d="M891 -422q-330 0 -555 226.5t-225 574.5q0 338 227 569.5t553 231.5q330 0 553 -219.5t223 -534.5q0 -221 -82 -329.5t-207 -108.5q-94 0 -150.5 54t-64.5 153q-90 -211 -303 -211q-152 0 -255 109.5t-103 273.5q0 168 103.5 279.5t254.5 111.5q205 0 297 -201l-4 182h80 v-481q0 -203 145 -203q94 0 152.5 91.5t58.5 279.5q0 283 -192.5 483.5t-505.5 200.5q-305 0 -503 -213t-198 -518q0 -311 197 -521t504 -210q195 0 342 92l37 -62q-162 -100 -379 -100zM866 53q123 0 206 92.5t83 221.5q0 133 -83 227t-206 94t-202.5 -93t-79.5 -228 q0 -131 79.5 -222.5t202.5 -91.5z" />
<glyph unicode="A" horiz-adv-x="1333" d="M90 0l563 1409h25l565 -1409h-86l-106 270h-770l-107 -270h-84zM309 344h711l-313 795q-20 49 -41 127q-20 -78 -41 -127z" />
<glyph unicode="B" horiz-adv-x="1245" d="M211 0v1393h442q186 0 279.5 -92.5t93.5 -241.5q0 -227 -172 -287q131 -31 210 -131t79 -242q0 -178 -107.5 -288.5t-320.5 -110.5h-504zM295 799h387q260 0 260 260t-297 260h-350v-520zM295 74h410q184 0 269 88t85 237q0 147 -88 236.5t-269 89.5h-407v-651z" />
<glyph unicode="C" horiz-adv-x="1497" d="M829 -16q-301 0 -506.5 199.5t-205.5 513t205.5 513t506.5 199.5q371 0 553 -264l-63 -47q-166 236 -490 235q-268 0 -447 -182t-179 -454.5t179 -455t447 -182.5q332 0 506 248l64 -45q-92 -133 -241 -205.5t-329 -72.5z" />
<glyph unicode="D" horiz-adv-x="1386" d="M211 0v1393h297q358 0 560 -186.5t202 -510t-201 -510t-561 -186.5h-297zM295 76h203q336 0 510 169t174 451.5t-174 451.5t-510 169h-203v-1241z" />
<glyph unicode="E" horiz-adv-x="1173" d="M211 0v1393h813v-74h-729v-746h653v-73h-653v-426h758v-74h-842z" />
<glyph unicode="F" horiz-adv-x="1138" d="M211 0v1393h811v-74h-727v-746h659v-75h-659v-498h-84z" />
<glyph unicode="G" horiz-adv-x="1525" d="M834 -16q-303 0 -510 199.5t-207 513t207.5 513t511.5 199.5q309 0 475 -174l-56 -57q-150 156 -419 155q-272 0 -452.5 -181t-180.5 -456q0 -272 180 -454.5t451 -182.5q299 0 475 164v324h-449v74h531v-431q-203 -206 -557 -206z" />
<glyph unicode="H" horiz-adv-x="1400" d="M211 0v1393h84v-820h811v820h84v-1393h-84v498h-811v-498h-84z" />
<glyph unicode="I" horiz-adv-x="522" d="M219 0v1393h84v-1393h-84z" />
<glyph unicode="J" horiz-adv-x="974" d="M414 -16q-219 0 -328 184l68 45q90 -154 258 -154q121 0 192.5 74t71.5 215v1045h84v-1049q0 -172 -96 -266t-250 -94z" />
<glyph unicode="K" horiz-adv-x="1202" d="M287 492q70 121 84 139l602 762h94l-541 -693l594 -700h-104l-543 641l-178 -219v-2v-2v-2v-2v-2v-2v-2v-2v-3v-2v-2v-2v-2v-2v-2v-2v-2v-2v-2v-2v-2v-2v-2v-2v-2v-2v-2v-2v-3v-2v-2v-2v-2v-2v-2v-2v-2v-2v-2v-2v-2v-2v-4v-2v-2v-2v-2v-2v-3v-4v-2v-2v-2v-2v-4v-2v-2v-2 v-4v-2v-2v-4v-2v-2v-2v-5v-2v-2v-4v-2v-4v-2v-2v-4v-2v-2v-4v-2v-4v-2v-5v-2v-2v-4v-2v-4v-2v-4v-2v-4v-2v-4v-2v-4v-5v-2v-4v-2v-4v-2v-4v-4v-2v-4v-2v-4v-4v-3v-4v-2v-4v-4v-2v-4v-4v-2v-4v-4v-4v-3v-4v-4v-2v-4v-4v-4v-2v-4v-4v-4v-2v-5v-4v-4v-4v-2v-4v-4v-4v-4v-2v-4 v-4v-5v-18h-84v1393h84v-744q0 -34 -8 -157z" />
<glyph unicode="L" horiz-adv-x="1048" d="M211 0v1393h84v-1319h670v-74h-754z" />
<glyph unicode="M" horiz-adv-x="1720" d="M211 0v1409h20l629 -827l629 827h20v-1409h-79v1106l4 121q-39 -68 -76 -115l-490 -643h-22l-484 643l-75 115q4 -72 4 -121v-1106h-80z" />
<glyph unicode="N" horiz-adv-x="1472" d="M1237 -16l-891 1155l-63 92q6 -63 6 -105v-1126h-78v1409h25l890 -1155l64 -92q-6 63 -6 104v1127h78v-1409h-25z" />
<glyph unicode="O" horiz-adv-x="1658" d="M829 -16q-301 0 -506.5 199.5t-205.5 513t205.5 513t506.5 199.5t507 -199.5t206 -513t-206 -513t-507 -199.5zM829.5 59q268.5 0 447.5 182.5t179 455t-179 454.5t-447.5 182t-447.5 -182t-179 -454.5t179 -455t447.5 -182.5z" />
<glyph unicode="P" horiz-adv-x="1179" d="M211 0v1393h285q272 0 411.5 -140.5t139.5 -378.5q0 -231 -139.5 -373.5t-411.5 -142.5h-201v-358h-84zM295 432h192q248 0 361 121t113 321q0 203 -113 324t-361 121h-192v-887z" />
<glyph unicode="Q" horiz-adv-x="1658" d="M1329 176l217 -227l-59 -53l-219 229q-190 -141 -439 -141q-301 0 -506.5 199.5t-205.5 513t205.5 513t506.5 199.5t507 -199.5t206 -513.5q0 -317 -213 -520zM1212 184l-229 240l59 53l230 -241q184 184 184 460q0 272 -179 454.5t-447.5 182.5t-447.5 -182t-179 -454.5 t179 -455t447 -182.5q219 0 383 125z" />
<glyph unicode="R" horiz-adv-x="1204" d="M748 424l309 -424h-101l-290 397q-76 -18 -174 -18h-197v-379h-84v1393h281q270 0 412.5 -142.5t142.5 -365.5q0 -160 -76 -282t-223 -179zM295 453h188q248 0 363 120.5t115 311t-115 312.5t-363 122h-188v-866z" />
<glyph unicode="S" horiz-adv-x="1079" d="M543 -16q-332 0 -467 278l71 35q127 -240 394 -240q141 0 236 77t95 206q0 117 -66.5 193.5t-217.5 146.5l-129 59q-154 72 -222.5 152t-68.5 207q0 141 98.5 226t243.5 85q231 0 356 -201l-65 -43q-106 170 -291 170q-121 0 -190.5 -64.5t-69.5 -170.5q0 -102 54 -164 t188 -123l129 -59q172 -78 252.5 -175.5t80.5 -238.5q0 -162 -114.5 -259t-296.5 -97z" />
<glyph unicode="T" horiz-adv-x="1103" d="M510 0v1319h-442v74h968v-74h-442v-1319h-84z" />
<glyph unicode="U" horiz-adv-x="1333" d="M666 -16q-209 0 -339 126t-130 353v930h84v-924q0 -197 104 -304.5t280.5 -107.5t282 107.5t105.5 304.5v924h84v-930q0 -227 -132 -353t-339 -126z" />
<glyph unicode="V" horiz-adv-x="1333" d="M655 -16l-565 1409h90l451 -1137l39 -127q20 82 39 127l450 1137h84l-563 -1409h-25z" />
<glyph unicode="W" horiz-adv-x="1945" d="M520 -16l-436 1409h90l340 -1121l23 -102q12 63 26 102l400 1137h24l399 -1137l25 -102q12 63 25 102l340 1121h86l-437 -1409h-22l-406 1155q-14 43 -22 104q-10 -61 -25 -104l-407 -1155h-23z" />
<glyph unicode="X" horiz-adv-x="1275" d="M104 0l488 754l-412 639h96l340 -527l23 -51q16 35 27 51l340 527h90l-412 -637l490 -756h-97l-415 645l-25 51q-14 -35 -25 -51l-417 -645h-91z" />
<glyph unicode="Y" horiz-adv-x="1316" d="M616 0v434l-526 959h94l445 -807l33 -84q18 51 36 84l443 807h88l-527 -961v-432h-86z" />
<glyph unicode="Z" horiz-adv-x="1187" d="M92 0v20l846 1299h-737v74h862v-21l-844 -1298h866v-74h-993z" />
<glyph unicode="[" horiz-adv-x="593" d="M170 -262v1741h344v-72h-262v-1597h262v-72h-344z" />
<glyph unicode="\" horiz-adv-x="901" d="M758 -262l-637 1741h84l637 -1741h-84z" />
<glyph unicode="]" horiz-adv-x="593" d="M80 -262v72h262v1597h-262v72h346v-1741h-346z" />
<glyph unicode="^" horiz-adv-x="833" d="M154 965l254 444h18l254 -444h-70l-192 309l-195 -309h-69z" />
<glyph unicode="_" horiz-adv-x="499" d="M-4 -262v69h508v-69h-508z" />
<glyph unicode="`" horiz-adv-x="1024" d="M483 1018l-180 399h94l154 -399h-68z" />
<glyph unicode="a" horiz-adv-x="948" d="M705 483v41q0 260 -224 260q-178 0 -272 -143l-57 41q111 172 331 172q135 0 218 -82t83 -240v-532h-79l4 129q-96 -145 -289 -145q-145 0 -230.5 66.5t-85.5 189.5q0 119 88.5 181t217.5 62h295zM705 418h-285q-104 0 -170 -43t-66 -133q0 -186 244 -187q111 0 194 59.5 t83 151.5v152z" />
<glyph unicode="b" horiz-adv-x="1128" d="M608 -16q-119 0 -216 62.5t-142 162.5l4 -209h-80v1479h80v-842q49 98 140 157.5t214 59.5q178 0 296 -125t118 -309q0 -186 -118 -311t-296 -125zM598 55q154 0 247 103.5t93 261.5t-93 260t-247 102q-156 0 -253 -102t-97 -260t97 -261.5t253 -103.5z" />
<glyph unicode="c" horiz-adv-x="950" d="M530 -16q-178 0 -301 127t-123 307t123 308t301 128q203 0 318 -141l-57 -47q-94 117 -261 116q-152 0 -246 -103.5t-94 -260.5q0 -156 94.5 -259.5t245.5 -103.5q178 0 277 125l57 -47q-121 -149 -334 -149z" />
<glyph unicode="d" horiz-adv-x="1128" d="M520 -16q-178 0 -296 124.5t-118 311.5q0 184 118 309t296 125q123 0 214 -59.5t140 -157.5v842h80v-1479h-80l5 209q-45 -100 -142.5 -162.5t-216.5 -62.5zM530 55q156 0 253.5 103.5t97.5 261.5t-97.5 260t-253.5 102q-154 0 -247 -102t-93 -260t93 -261.5t247 -103.5z " />
<glyph unicode="e" horiz-adv-x="1036" d="M188 401q4 -154 99.5 -250t255.5 -96q186 0 293 131l53 -47q-125 -156 -346 -155q-195 0 -316 124.5t-121 309.5q0 180 122 308t298 128q186 0 300 -129q110 -125 110 -310v-14h-748zM190 467h664q-10 137 -94 227t-234 90q-139 0 -229.5 -89t-106.5 -228z" />
<glyph unicode="f" horiz-adv-x="583" d="M207 0v768h-133v68h133v430q0 121 54 180t140 59q125 0 185 -102l-62 -41q-47 72 -121 72q-117 0 -116 -170v-428h223v-68h-223v-768h-80z" />
<glyph unicode="g" horiz-adv-x="946" d="M586 836h297v-68h-189q90 -80 90 -205q0 -127 -88 -210t-225 -83q-96 0 -166 39q-47 -8 -72.5 -34.5t-25.5 -65.5q0 -90 121 -100l217 -21q182 -16 266 -76.5t84 -177.5q0 -135 -122 -213t-314 -78q-190 0 -304 73t-114 202q0 170 217 233q-123 35 -123 150q0 51 32 91 t83 56q-98 82 -98 215q0 127 90 209t229 82q62 0 115 -18zM471 338q109 0 172.5 61.5t63.5 164t-63.5 162.5t-172.5 60q-111 0 -175.5 -60t-64.5 -162.5t64.5 -164t175.5 -61.5zM358 29q-236 -47 -235 -209q0 -100 86 -153.5t250 -53.5q158 0 257 57.5t99 163.5 q0 88 -60.5 129t-219.5 53z" />
<glyph unicode="h" horiz-adv-x="1042" d="M172 0v1479h80v-822q43 90 126 143.5t191 53.5q141 0 226.5 -89t85.5 -243v-522h-80v508q0 131 -61.5 201.5t-180.5 70.5q-137 0 -222 -85t-85 -228v-467h-80z" />
<glyph unicode="i" horiz-adv-x="425" d="M213 1128q-27 0 -47.5 19.5t-20.5 48.5t20.5 48.5t47.5 19.5t47.5 -19.5t20.5 -48.5t-20.5 -48.5t-47.5 -19.5zM174 0v836h80v-836h-80z" />
<glyph unicode="j" horiz-adv-x="425" d="M213 1128q-27 0 -47.5 19.5t-20.5 48.5t20.5 48.5t47.5 19.5t47.5 -19.5t20.5 -48.5t-20.5 -48.5t-47.5 -19.5zM68 -455q-109 0 -170 74l49 51q51 -55 116 -55q111 0 111 158v1063h80v-1065q0 -111 -52 -168.5t-134 -57.5z" />
<glyph unicode="k" horiz-adv-x="919" d="M252 260v-260h-80v1479h80v-1041q0 -29 -6 -90l463 488h94l-336 -355l395 -481h-98l-352 428z" />
<glyph unicode="l" horiz-adv-x="448" d="M184 0v1479h80v-1479h-80z" />
<glyph unicode="m" horiz-adv-x="1519" d="M172 0v836h80l-2 -170q39 88 110.5 138t163.5 50q102 0 170 -52t90 -138q45 92 123 141t170 49q127 0 203 -79t76 -216v-559h-80v545q0 236 -207 235q-115 0 -189.5 -81t-74.5 -220v-479h-80v545q0 236 -209 235q-115 0 -189.5 -81t-74.5 -220v-479h-80z" />
<glyph unicode="n" horiz-adv-x="1042" d="M172 0v836h80l-2 -187q41 96 125 150.5t194 54.5q141 0 226.5 -89t85.5 -243v-522h-80v508q0 131 -61.5 201.5t-180.5 70.5q-137 0 -222 -85t-85 -228v-467h-80z" />
<glyph unicode="o" horiz-adv-x="1081" d="M542.5 -16q-182.5 0 -309.5 128t-127 308t127 307t309.5 127t307.5 -127t125 -307t-125 -308t-307.5 -128zM542.5 55q155.5 0 253 103.5t97.5 261.5t-97.5 260t-253 102t-255 -103.5t-99.5 -259t99.5 -260t255 -104.5z" />
<glyph unicode="p" horiz-adv-x="1128" d="M174 -434v1270h80l-4 -205q47 100 141 161.5t217 61.5q178 0 296 -125t118 -309q0 -186 -118 -311t-296 -125q-117 0 -212 61t-142 158v-637h-80zM598 55q154 0 247 103.5t93 261.5t-93 260t-247 102q-156 0 -253 -102t-97 -260t97 -261.5t253 -103.5z" />
<glyph unicode="q" horiz-adv-x="1128" d="M874 -434v637q-47 -96 -142 -157.5t-212 -61.5q-178 0 -296 124.5t-118 311.5q0 184 118 309t296 125q123 0 216 -61.5t143 -161.5l-5 205h80v-1270h-80zM530 55q156 0 253.5 103.5t97.5 261.5t-97.5 260t-253.5 102q-154 0 -247 -102t-93 -260t93 -261.5t247 -103.5z " />
<glyph unicode="r" horiz-adv-x="696" d="M172 0v836h80l-2 -168q72 184 244 184q94 0 151 -43l-39 -66q-47 35 -123 35q-96 0 -163.5 -80t-67.5 -223v-475h-80z" />
<glyph unicode="s" horiz-adv-x="829" d="M432 -16q-125 0 -211 58t-125 151l70 30q78 -168 266 -168q94 0 151.5 44t57.5 116q0 80 -50 115t-181 76q-127 37 -192.5 87t-65.5 152q0 90 71.5 149.5t177.5 59.5q178 0 267 -158l-62 -37q-72 125 -205 125q-80 0 -127 -37.5t-47 -97.5q0 -70 44 -103.5t171 -72.5 q135 -41 207 -95t72 -161q0 -102 -77 -167.5t-212 -65.5z" />
<glyph unicode="t" horiz-adv-x="641" d="M397 -16q-86 0 -139 58t-53 179v547h-131v68h131v436h80v-436h241v-68h-241v-545q0 -168 112 -168q76 0 133 62l52 -49q-74 -84 -185 -84z" />
<glyph unicode="u" horiz-adv-x="1042" d="M475 -18q-141 0 -226 88t-85 239v527h80v-514q0 -266 239 -267q137 0 222.5 85t85.5 229v467h79v-836h-79l2 184q-43 -94 -126 -148t-192 -54z" />
<glyph unicode="v" horiz-adv-x="917" d="M451 -16l-385 852h86l276 -627l37 -107q16 66 35 107l270 627h82l-377 -852h-24z" />
<glyph unicode="w" horiz-adv-x="1392" d="M389 -16l-323 852h86l221 -603l30 -102q14 59 33 102l250 611h19l253 -608l35 -103q12 59 29 103l221 600h82l-324 -852h-20l-254 622l-31 96q-12 -57 -28 -96l-258 -622h-21z" />
<glyph unicode="x" horiz-adv-x="921" d="M78 0l336 446l-289 390h96l201 -273l41 -67q16 41 37 67l205 273h88l-287 -383l338 -453h-96l-248 338l-41 68q-23 -43 -41 -68l-252 -338h-88z" />
<glyph unicode="y" horiz-adv-x="919" d="M225 -434l211 495l-370 775h86l292 -619l33 -98q12 57 31 98l264 619h82l-547 -1270h-82z" />
<glyph unicode="z" horiz-adv-x="831" d="M74 0v20l561 746h-504v70h627v-23l-561 -743h561v-70h-684z" />
<glyph unicode="{" horiz-adv-x="706" d="M537 -262q-248 0 -248 295v323q0 82 -30 114t-91 32h-117v71h117q61 0 91 32t30 114v465q0 295 248 295h90v-72h-88q-82 0 -125 -49t-43 -174v-471q0 -145 -107 -174q106 -27 107 -177v-329q0 -125 43 -174t125 -49h88v-72h-90z" />
<glyph unicode="|" horiz-adv-x="446" d="M184 -262v1741h78v-1741h-78z" />
<glyph unicode="}" horiz-adv-x="704" d="M80 -262v72h88q82 0 124 49t42 174v329q0 150 108 175q-109 25 -108 178v469q0 125 -42 174t-124 49h-88v72h90q246 0 246 -295v-463q0 -82 30.5 -115t92.5 -33h114v-71h-114q-61 0 -92 -32t-31 -112v-325q0 -295 -246 -295h-90z" />
<glyph unicode="~" horiz-adv-x="790" d="M190 477l-69 6q4 94 45 146.5t108 52.5q41 0 72 -17.5t74 -60.5q41 -41 58.5 -51t41.5 -10q68 0 80 133l70 -6q-10 -197 -152 -197q-41 0 -70.5 18.5t-74.5 61.5q-41 39 -57.5 49t-43.5 10q-70 0 -82 -135z" />
<glyph unicode="&#xa1;" horiz-adv-x="458" d="M229.5 1407q30.5 0 54 -23.5t23.5 -54.5q0 -33 -23.5 -56.5t-54 -23.5t-54 23.5t-23.5 56.5t23.5 55.5t54 22.5zM260 1044l14 -1044h-90l15 1044h61z" />
<glyph unicode="&#xa2;" horiz-adv-x="950" d="M483 -14q-162 18 -269.5 141t-107.5 291t108 292t269 140v221h70v-217q188 -8 295 -141l-57 -47q-86 109 -238 116v-727q164 8 254 125l57 -47q-113 -141 -311 -149v-222h-70v224zM483 778q-133 -14 -213 -115.5t-80 -245t80 -243.5t213 -117v721z" />
<glyph unicode="&#xa3;" horiz-adv-x="1081" d="M383 614h342v-67h-315q76 -207 77 -342q127 -102 189 -127q49 -20 96 -21q115 0 197 93l51 -52q-100 -115 -248 -114q-133 0 -299 141q-27 -63 -86 -102t-135 -39q-84 0 -135 47t-51 120.5t51 119.5t135 46q74 0 164 -57q-10 104 -86 287h-193v67h166q-78 195 -78 316 q0 143 102.5 239.5t258.5 96.5q133 0 223 -62.5t135 -156.5l-65 -33q-49 90 -116 134t-177 44q-127 0 -202 -70.5t-75 -193.5q0 -115 74 -314zM414 174q-98 80 -162 80q-53 0 -84 -27.5t-31 -75t31 -76t84 -28.5q59 0 105.5 36t56.5 91z" />
<glyph unicode="&#xa4;" horiz-adv-x="1294" d="M260 588h-164v67h178q45 168 182.5 271.5t313.5 103.5q258 0 399 -196l-61 -48q-121 170 -338 170q-150 0 -259.5 -81.5t-150.5 -219.5h531v-67h-545q-6 -39 -6 -82q0 -47 6 -86h545v-68h-529q43 -135 153 -215t255 -80q229 0 346 176l66 -43q-131 -207 -412 -206 q-176 0 -312 101t-184 267h-178v68h164q-6 43 -6 86t6 82z" />
<glyph unicode="&#xa5;" horiz-adv-x="1128" d="M522 0v252h-393v67h389l-102 173h-287v67h246l-275 455h93l329 -551q27 -45 45 -105q18 59 45 105l328 551h88l-276 -455h247v-67h-286l-105 -173h391v-67h-393v-252h-84z" />
<glyph unicode="&#xa6;" d="M184 403q-31 0 -56.5 25t-25.5 57q0 35 25 58.5t57.5 23.5t57 -23.5t24.5 -58.5q0 -33 -24.5 -57.5t-57.5 -24.5z" />
<glyph unicode="&#xa7;" horiz-adv-x="985" d="M225 858q-31 61 -30 133q0 121 86 198t219 77q223 0 311 -205l-70 -31q-76 164 -241 164q-100 0 -162 -53.5t-62 -147.5q0 -82 41 -132t138 -91l196 -80q141 -57 202.5 -126.5t61.5 -164.5q0 -68 -43 -120t-114 -80q45 -61 45 -142q0 -119 -83 -193.5t-231 -74.5 q-127 0 -222 60.5t-144 160.5l70 33q90 -182 296 -182q106 0 169 54t63 142q0 76 -49 124t-160 91l-178 70q-139 55 -201.5 122.5t-62.5 172.5q-1 147 155 221zM715 248q121 43 121 147q0 76 -44 123t-167 96l-197 80q-113 45 -170 115q-106 -51 -106 -168q0 -82 45 -129 t161 -94l179 -70q112 -43 178 -100z" />
<glyph unicode="&#xa8;" horiz-adv-x="1024" d="M667.5 1067q-26.5 0 -46 19.5t-19.5 46t19.5 46t46 19.5t46 -19.5t19.5 -46t-19.5 -46t-46 -19.5zM356.5 1067q-26.5 0 -46 19.5t-19.5 46t19.5 46t46 19.5t46 -19.5t19.5 -46t-19.5 -46t-46 -19.5z" />
<glyph unicode="&#xa9;" horiz-adv-x="1228" d="M614 -16q-217 0 -370.5 150.5t-153.5 371.5q0 225 153.5 374.5t370.5 149.5t371 -149.5t154 -374.5q0 -221 -154 -371.5t-371 -150.5zM614.5 47q194.5 0 325.5 131t131 328q0 199 -131 330t-325.5 131t-325.5 -131t-131 -330q0 -197 131 -328t325.5 -131zM618 199 q-123 0 -208.5 89t-85.5 218q0 131 86 220t208 89q133 0 226 -102l-56 -51q-63 82 -167 81q-94 0 -154.5 -67.5t-60.5 -169.5q0 -100 60 -168t152 -68q104 0 179 88l55 -51q-95 -108 -234 -108z" />
<glyph unicode="&#xaa;" horiz-adv-x="798" d="M604 725v10q0 129 -48 178.5t-142 49.5q-139 0 -228 -119l-51 39q92 147 279 147q123 0 195.5 -68.5t72.5 -218.5v-436h-78v96q-78 -113 -244 -112q-121 0 -196.5 57.5t-75.5 163.5q0 104 80 158.5t199 54.5h237zM604 659h-227q-209 0 -209 -147q0 -154 205 -154 q96 0 163.5 47.5t67.5 137.5v116z" />
<glyph unicode="&#xab;" horiz-adv-x="710" d="M535 82l-191 315v17l191 315h92l-195 -323l195 -324h-92zM274 82l-190 315v17l190 315h93l-195 -323l195 -324h-93z" />
<glyph unicode="&#xac;" d="M184 403q-31 0 -56.5 25t-25.5 57q0 35 25 58.5t57.5 23.5t57 -23.5t24.5 -58.5q0 -33 -24.5 -57.5t-57.5 -24.5z" />
<glyph unicode="&#xad;" horiz-adv-x="569" d="M104 426v74h359v-74h-359z" />
<glyph unicode="&#xae;" horiz-adv-x="1062" d="M528 553q-184 0 -313 125t-129 311.5t129 312t313 125.5q186 0 317.5 -125.5t131.5 -312t-131.5 -311.5t-317.5 -125zM528 612q166 0 272.5 105.5t106.5 271.5q0 168 -106.5 273.5t-272.5 105.5q-162 0 -266 -105.5t-104 -273.5q0 -166 104 -271.5t266 -105.5zM618 887 l107 -146h-80l-92 127q-29 -4 -45 -4h-64v-123h-67v504h131q109 0 163 -54t54 -140q-1 -117 -107 -164zM444 920h60q152 0 151 131q0 139 -151 139h-60v-270z" />
<glyph unicode="&#xaf;" horiz-adv-x="1024" d="M313 1044v70h398v-70h-398z" />
<glyph unicode="&#x2c9;" horiz-adv-x="1024" d="M313 1044v70h398v-70h-398z" />
<glyph unicode="&#xb0;" horiz-adv-x="659" d="M330 602q-90 0 -153.5 62.5t-63.5 150.5q0 90 63.5 152.5t153.5 62.5t153.5 -62.5t63.5 -152.5q0 -88 -63.5 -150.5t-153.5 -62.5zM329.5 664q65.5 0 105.5 43t40 108q0 68 -40 111t-105.5 43t-106.5 -43t-41 -111q0 -66 41 -108.5t106.5 -42.5z" />
<glyph unicode="&#xb2;" d="M184 403q-31 0 -56.5 25t-25.5 57q0 35 25 58.5t57.5 23.5t57 -23.5t24.5 -58.5q0 -33 -24.5 -57.5t-57.5 -24.5z" />
<glyph unicode="&#xb3;" d="M184 403q-31 0 -56.5 25t-25.5 57q0 35 25 58.5t57.5 23.5t57 -23.5t24.5 -58.5q0 -33 -24.5 -57.5t-57.5 -24.5z" />
<glyph unicode="&#xb4;" horiz-adv-x="1024" d="M473 1018l154 399h94l-180 -399h-68z" />
<glyph unicode="&#xb5;" d="M184 403q-31 0 -56.5 25t-25.5 57q0 35 25 58.5t57.5 23.5t57 -23.5t24.5 -58.5q0 -33 -24.5 -57.5t-57.5 -24.5z" />
<glyph unicode="&#x3bc;" d="M184 403q-31 0 -56.5 25t-25.5 57q0 35 25 58.5t57.5 23.5t57 -23.5t24.5 -58.5q0 -33 -24.5 -57.5t-57.5 -24.5z" />
<glyph unicode="&#xb6;" horiz-adv-x="1200" d="M647 0v680h-164q-162 0 -261 102.5t-99 254t99.5 254t260.5 102.5h506v-1393h-82v1319h-176v-1319h-84zM483 754h164v565h-164q-129 0 -200.5 -79t-71.5 -204t71.5 -203.5t200.5 -78.5z" />
<glyph unicode="&#xb7;" d="M184 403q-31 0 -56.5 25t-25.5 57q0 35 25 58.5t57.5 23.5t57 -23.5t24.5 -58.5q0 -33 -24.5 -57.5t-57.5 -24.5z" />
<glyph unicode="&#x2219;" d="M184 403q-31 0 -56.5 25t-25.5 57q0 35 25 58.5t57.5 23.5t57 -23.5t24.5 -58.5q0 -33 -24.5 -57.5t-57.5 -24.5z" />
<glyph unicode="&#xb8;" horiz-adv-x="1024" d="M522 -467q-139 0 -192 119l61 37q43 -88 129 -88q45 0 76 28.5t31 77.5t-32 81t-95 32h-31v180h74v-121q68 -8 116 -55t48 -119q0 -80 -54.5 -126t-130.5 -46z" />
<glyph unicode="&#xb9;" d="M184 403q-31 0 -56.5 25t-25.5 57q0 35 25 58.5t57.5 23.5t57 -23.5t24.5 -58.5q0 -33 -24.5 -57.5t-57.5 -24.5z" />
<glyph unicode="&#xba;" horiz-adv-x="905" d="M452.5 293q-151.5 0 -258 105.5t-106.5 263.5q0 156 106.5 262t258 106t258 -106.5t106.5 -261.5q0 -158 -106.5 -263.5t-258 -105.5zM453 360q125 0 204.5 85t79.5 216.5t-79.5 216.5t-204.5 85t-205 -85t-80 -216.5t80 -216.5t205 -85z" />
<glyph unicode="&#xbb;" horiz-adv-x="710" d="M344 82l195 324l-195 323h92l191 -315v-17l-191 -315h-92zM84 82l195 324l-195 323h92l191 -315v-17l-191 -315h-92z" />
<glyph unicode="&#xbc;" d="M184 403q-31 0 -56.5 25t-25.5 57q0 35 25 58.5t57.5 23.5t57 -23.5t24.5 -58.5q0 -33 -24.5 -57.5t-57.5 -24.5z" />
<glyph unicode="&#xbd;" d="M184 403q-31 0 -56.5 25t-25.5 57q0 35 25 58.5t57.5 23.5t57 -23.5t24.5 -58.5q0 -33 -24.5 -57.5t-57.5 -24.5z" />
<glyph unicode="&#xbe;" d="M184 403q-31 0 -56.5 25t-25.5 57q0 35 25 58.5t57.5 23.5t57 -23.5t24.5 -58.5q0 -33 -24.5 -57.5t-57.5 -24.5z" />
<glyph unicode="&#xbf;" horiz-adv-x="919" d="M526.5 1407q30.5 0 54 -23.5t23.5 -54.5q0 -33 -23.5 -56.5t-54 -23.5t-54 23.5t-23.5 56.5t23.5 55.5t54 22.5zM563 1053v-379h-55q-139 0 -227 -89t-88 -220q0 -145 81.5 -225.5t214.5 -80.5q113 0 187 48.5t125 158.5l69 -35q-47 -119 -147 -183t-234 -64 q-168 0 -274 101t-106 280q0 160 107.5 266t268.5 112v310h78z" />
<glyph unicode="&#xc0;" horiz-adv-x="1333" d="M631 1546l-180 400h94l153 -400h-67zM90 0l563 1409h25l565 -1409h-86l-106 270h-770l-107 -270h-84zM309 344h711l-313 795q-20 49 -41 127q-20 -78 -41 -127z" />
<glyph unicode="&#xc1;" horiz-adv-x="1333" d="M635 1546l153 400h95l-181 -400h-67zM90 0l563 1409h25l565 -1409h-86l-106 270h-770l-107 -270h-84zM309 344h711l-313 795q-20 49 -41 127q-20 -78 -41 -127z" />
<glyph unicode="&#xc2;" horiz-adv-x="1333" d="M424 1540l231 373h19l231 -373h-71l-168 244l-170 -244h-72zM90 0l563 1409h25l565 -1409h-86l-106 270h-770l-107 -270h-84zM309 344h711l-313 795q-20 49 -41 127q-20 -78 -41 -127z" />
<glyph unicode="&#xc3;" horiz-adv-x="1333" d="M461 1530l-70 6q4 94 45 146.5t109 52.5q41 0 71.5 -17.5t73.5 -60.5q41 -41 58.5 -51.5t42.5 -10.5q68 0 79 134l70 -7q-10 -197 -152 -196q-41 0 -70.5 18.5t-74.5 61.5q-41 39 -57.5 49t-42.5 10q-70 0 -82 -135zM90 0l563 1409h25l565 -1409h-86l-106 270h-770 l-107 -270h-84zM309 344h711l-313 795q-20 49 -41 127q-20 -78 -41 -127z" />
<glyph unicode="&#xc4;" horiz-adv-x="1333" d="M821.5 1595q-26.5 0 -46 19.5t-19.5 46.5t19.5 46t46 19t46 -19t19.5 -46t-19.5 -46.5t-46 -19.5zM510 1595q-27 0 -46.5 19.5t-19.5 46.5t19.5 46t46.5 19t46 -19t19 -46t-19 -46.5t-46 -19.5zM90 0l563 1409h25l565 -1409h-86l-106 270h-770l-107 -270h-84zM309 344 h711l-313 795q-20 49 -41 127q-20 -78 -41 -127z" />
<glyph unicode="&#xc5;" horiz-adv-x="1333" d="M665.5 1491q-79.5 0 -136 55.5t-56.5 133t56.5 133t136 55.5t136 -55.5t56.5 -133t-56.5 -133t-136 -55.5zM90 0l563 1409h25l565 -1409h-86l-106 270h-770l-107 -270h-84zM665.5 1554q53.5 0 86 34t32.5 91.5t-32.5 91t-86 33.5t-86 -33.5t-32.5 -91t32.5 -91.5t86 -34z M309 344h711l-313 795q-20 49 -41 127q-20 -78 -41 -127z" />
<glyph unicode="&#xc6;" horiz-adv-x="1916" d="M66 0l917 1393h784v-74h-729v-746h654v-73h-654v-426h758v-74h-842v270h-618l-178 -270h-92zM385 344h569v741l11 162q-41 -82 -82 -143z" />
<glyph unicode="&#xc7;" horiz-adv-x="1497" d="M739 -12q-268 31 -445 226.5t-177 481.5q0 313 205.5 513t506.5 200q371 0 553 -264l-63 -47q-166 236 -490 235q-268 0 -447 -182t-179 -454.5t179 -455t447 -182.5q332 0 506 248l64 -45q-92 -133 -240.5 -205.5t-329.5 -72.5h-16v-105q68 -8 116 -55t48 -119 q0 -80 -54.5 -126t-129.5 -46q-139 0 -193 119l62 37q43 -88 129 -88q45 0 75.5 28.5t30.5 77.5t-31.5 81t-95.5 32h-31v168z" />
<glyph unicode="&#xc8;" horiz-adv-x="1173" d="M598 1546l-180 400h94l154 -400h-68zM211 0v1393h813v-74h-729v-746h653v-73h-653v-426h758v-74h-842z" />
<glyph unicode="&#xc9;" horiz-adv-x="1173" d="M573 1546l154 400h94l-180 -400h-68zM211 0v1393h813v-74h-729v-746h653v-73h-653v-426h758v-74h-842z" />
<glyph unicode="&#xca;" horiz-adv-x="1173" d="M387 1540l231 373h19l231 -373h-71l-168 244l-170 -244h-72zM211 0v1393h813v-74h-729v-746h653v-73h-653v-426h758v-74h-842z" />
<glyph unicode="&#xcb;" horiz-adv-x="1173" d="M782.5 1595q-26.5 0 -46 19.5t-19.5 46.5t19.5 46t46 19t46 -19t19.5 -46t-19.5 -46.5t-46 -19.5zM471 1595q-27 0 -46 19.5t-19 46.5t19 46t46 19t46.5 -19t19.5 -46t-19.5 -46.5t-46.5 -19.5zM211 0v1393h813v-74h-729v-746h653v-73h-653v-426h758v-74h-842z" />
<glyph unicode="&#xcc;" horiz-adv-x="522" d="M223 1546l-180 400h94l154 -400h-68zM219 0v1393h84v-1393h-84z" />
<glyph unicode="&#xcd;" horiz-adv-x="522" d="M229 1546l154 400h94l-180 -400h-68zM219 0v1393h84v-1393h-84z" />
<glyph unicode="&#xce;" horiz-adv-x="522" d="M18 1540l232 373h18l232 -373h-72l-168 244l-170 -244h-72zM219 0v1393h84v-1393h-84z" />
<glyph unicode="&#xcf;" horiz-adv-x="522" d="M415.5 1595q-26.5 0 -46 19.5t-19.5 46.5t19.5 46t46 19t46 -19t19.5 -46t-19.5 -46.5t-46 -19.5zM104.5 1595q-26.5 0 -46 19.5t-19.5 46.5t19.5 46t46 19t46 -19t19.5 -46t-19.5 -46.5t-46 -19.5zM219 0v1393h84v-1393h-84z" />
<glyph unicode="&#xd0;" horiz-adv-x="1386" d="M211 0v500h-180v73h180v820h321q342 0 540 -191.5t198 -505t-196.5 -505t-541.5 -191.5h-321zM295 76h227q322 0 491 169t169 451.5t-169 451.5t-491 169h-227v-744h405v-73h-405v-424z" />
<glyph unicode="&#xd1;" horiz-adv-x="1472" d="M530 1530l-69 6q4 94 45 146.5t108 52.5q41 0 72 -17.5t74 -60.5q41 -41 58.5 -51.5t41.5 -10.5q68 0 80 134l70 -7q-10 -197 -152 -196q-41 0 -70.5 18.5t-74.5 61.5q-41 39 -57.5 49t-43.5 10q-70 0 -82 -135zM1237 -16l-891 1155l-63 92q6 -63 6 -105v-1126h-78v1409 h25l890 -1155l64 -92q-6 63 -6 104v1127h78v-1409h-25z" />
<glyph unicode="&#xd2;" horiz-adv-x="1658" d="M801 1546l-180 400h94l153 -400h-67zM829 -16q-301 0 -506.5 199.5t-205.5 513t205.5 513t506.5 199.5t507 -199.5t206 -513t-206 -513t-507 -199.5zM829.5 59q268.5 0 447.5 182.5t179 455t-179 454.5t-447.5 182t-447.5 -182t-179 -454.5t179 -455t447.5 -182.5z" />
<glyph unicode="&#xd3;" horiz-adv-x="1658" d="M791 1546l153 400h94l-180 -400h-67zM829 -16q-301 0 -506.5 199.5t-205.5 513t205.5 513t506.5 199.5t507 -199.5t206 -513t-206 -513t-507 -199.5zM829.5 59q268.5 0 447.5 182.5t179 455t-179 454.5t-447.5 182t-447.5 -182t-179 -454.5t179 -455t447.5 -182.5z" />
<glyph unicode="&#xd4;" horiz-adv-x="1658" d="M588 1540l231 373h19l231 -373h-72l-168 244l-170 -244h-71zM829 -16q-301 0 -506.5 199.5t-205.5 513t205.5 513t506.5 199.5t507 -199.5t206 -513t-206 -513t-507 -199.5zM829.5 59q268.5 0 447.5 182.5t179 455t-179 454.5t-447.5 182t-447.5 -182t-179 -454.5 t179 -455t447.5 -182.5z" />
<glyph unicode="&#xd5;" horiz-adv-x="1658" d="M625 1530l-70 6q4 94 45 146.5t109 52.5q41 0 71.5 -17.5t73.5 -60.5q41 -41 58.5 -51.5t41.5 -10.5q68 0 80 134l70 -7q-10 -197 -152 -196q-41 0 -70.5 18.5t-74.5 61.5q-41 39 -57.5 49t-42.5 10q-70 0 -82 -135zM829 -16q-301 0 -506.5 199.5t-205.5 513t205.5 513 t506.5 199.5t507 -199.5t206 -513t-206 -513t-507 -199.5zM829.5 59q268.5 0 447.5 182.5t179 455t-179 454.5t-447.5 182t-447.5 -182t-179 -454.5t179 -455t447.5 -182.5z" />
<glyph unicode="&#xd6;" horiz-adv-x="1658" d="M985 1595q-27 0 -46 19.5t-19 46.5t19 46t46 19t46.5 -19t19.5 -46t-19.5 -46.5t-46.5 -19.5zM673.5 1595q-26.5 0 -46 19.5t-19.5 46.5t19.5 46t46 19t46 -19t19.5 -46t-19.5 -46.5t-46 -19.5zM829 -16q-301 0 -506.5 199.5t-205.5 513t205.5 513t506.5 199.5 t507 -199.5t206 -513t-206 -513t-507 -199.5zM829.5 59q268.5 0 447.5 182.5t179 455t-179 454.5t-447.5 182t-447.5 -182t-179 -454.5t179 -455t447.5 -182.5z" />
<glyph unicode="&#xd7;" d="M184 403q-31 0 -56.5 25t-25.5 57q0 35 25 58.5t57.5 23.5t57 -23.5t24.5 -58.5q0 -33 -24.5 -57.5t-57.5 -24.5z" />
<glyph unicode="&#xd8;" horiz-adv-x="1658" d="M172 -20l-51 49l180 182q-184 201 -184 485q0 305 206.5 509t505.5 204q276 0 478 -178l178 180l51 -49l-178 -180q184 -201 184 -486q0 -305 -207 -508.5t-506 -203.5q-281 0 -477 178zM356 268l895 908q-174 158 -422 157q-268 0 -447 -182t-179 -455q-1 -252 153 -428 zM829 59q268 0 447.5 182.5t179.5 454.5q0 252 -153 428l-897 -907q177 -158 423 -158z" />
<glyph unicode="&#xd9;" horiz-adv-x="1333" d="M637 1546l-180 400h94l154 -400h-68zM666 -16q-209 0 -339 126t-130 353v930h84v-924q0 -197 104 -304.5t280.5 -107.5t282 107.5t105.5 304.5v924h84v-930q0 -227 -132 -353t-339 -126z" />
<glyph unicode="&#xda;" horiz-adv-x="1333" d="M627 1546l153 400h94l-180 -400h-67zM666 -16q-209 0 -339 126t-130 353v930h84v-924q0 -197 104 -304.5t280.5 -107.5t282 107.5t105.5 304.5v924h84v-930q0 -227 -132 -353t-339 -126z" />
<glyph unicode="&#xdb;" horiz-adv-x="1333" d="M424 1540l231 373h19l231 -373h-71l-168 244l-170 -244h-72zM666 -16q-209 0 -339 126t-130 353v930h84v-924q0 -197 104 -304.5t280.5 -107.5t282 107.5t105.5 304.5v924h84v-930q0 -227 -132 -353t-339 -126z" />
<glyph unicode="&#xdc;" horiz-adv-x="1333" d="M821.5 1595q-26.5 0 -46 19.5t-19.5 46.5t19.5 46t46 19t46 -19t19.5 -46t-19.5 -46.5t-46 -19.5zM510 1595q-27 0 -46.5 19.5t-19.5 46.5t19.5 46t46.5 19t46 -19t19 -46t-19 -46.5t-46 -19.5zM666 -16q-209 0 -339 126t-130 353v930h84v-924q0 -197 104 -304.5 t280.5 -107.5t282 107.5t105.5 304.5v924h84v-930q0 -227 -132 -353t-339 -126z" />
<glyph unicode="&#xdd;" horiz-adv-x="1316" d="M618 1546l154 400h94l-180 -400h-68zM616 0v434l-526 959h94l445 -807l33 -84q18 51 36 84l443 807h88l-527 -961v-432h-86z" />
<glyph unicode="&#xde;" horiz-adv-x="1179" d="M211 0v1393h84v-168h217q262 0 398.5 -144.5t136.5 -374t-135.5 -373t-399.5 -143.5h-217v-190h-84zM295 264h209q240 0 348.5 121t108.5 322q0 203 -109 323.5t-348 120.5h-209v-887z" />
<glyph unicode="&#xdf;" horiz-adv-x="1064" d="M539 -8q-78 0 -142 26l23 68q55 -23 119 -23q162 0 248.5 100.5t86.5 262.5q0 166 -105 264t-298 96v74q125 12 196.5 94t71.5 209q0 135 -69.5 203t-171.5 68q-106 0 -176 -70t-70 -223v-1141h-80v1147q0 180 95 269t231 89q129 0 223 -88t94 -252q0 -115 -53 -201.5 t-162 -127.5q162 -25 260 -134.5t98 -275.5q0 -190 -111 -312t-308 -122z" />
<glyph unicode="&#xe0;" horiz-adv-x="948" d="M444 1018l-180 399h94l154 -399h-68zM705 483v41q0 260 -224 260q-178 0 -272 -143l-57 41q111 172 331 172q135 0 218 -82t83 -240v-532h-79l4 129q-96 -145 -289 -145q-145 0 -230.5 66.5t-85.5 189.5q0 119 88.5 181t217.5 62h295zM705 418h-285q-104 0 -170 -43 t-66 -133q0 -186 244 -187q111 0 194 59.5t83 151.5v152z" />
<glyph unicode="&#xe1;" horiz-adv-x="948" d="M434 1018l154 399h94l-180 -399h-68zM705 483v41q0 260 -224 260q-178 0 -272 -143l-57 41q111 172 331 172q135 0 218 -82t83 -240v-532h-79l4 129q-96 -145 -289 -145q-145 0 -230.5 66.5t-85.5 189.5q0 119 88.5 181t217.5 62h295zM705 418h-285q-104 0 -170 -43 t-66 -133q0 -186 244 -187q111 0 194 59.5t83 151.5v152z" />
<glyph unicode="&#xe2;" horiz-adv-x="948" d="M240 1012l231 372h18l232 -372h-72l-168 243l-170 -243h-71zM705 483v41q0 260 -224 260q-178 0 -272 -143l-57 41q111 172 331 172q135 0 218 -82t83 -240v-532h-79l4 129q-96 -145 -289 -145q-145 0 -230.5 66.5t-85.5 189.5q0 119 88.5 181t217.5 62h295zM705 418 h-285q-104 0 -170 -43t-66 -133q0 -186 244 -187q111 0 194 59.5t83 151.5v152z" />
<glyph unicode="&#xe3;" horiz-adv-x="948" d="M264 1001l-69 7q4 94 45 146t108 52q41 0 72 -17.5t74 -60.5q41 -41 58 -51t42 -10q68 0 80 133l69 -6q-10 -197 -151 -197q-41 0 -70.5 18.5t-75.5 61.5q-41 39 -57 49.5t-43 10.5q-70 -1 -82 -136zM705 483v41q0 260 -224 260q-178 0 -272 -143l-57 41q111 172 331 172 q135 0 218 -82t83 -240v-532h-79l4 129q-96 -145 -289 -145q-145 0 -230.5 66.5t-85.5 189.5q0 119 88.5 181t217.5 62h295zM705 418h-285q-104 0 -170 -43t-66 -133q0 -186 244 -187q111 0 194 59.5t83 151.5v152z" />
<glyph unicode="&#xe4;" horiz-adv-x="948" d="M635 1067q-27 0 -46.5 19.5t-19.5 46t19.5 46t46.5 19.5t46 -19.5t19 -46t-19 -46t-46 -19.5zM323.5 1067q-26.5 0 -46 19.5t-19.5 46t19.5 46t46 19.5t46 -19.5t19.5 -46t-19.5 -46t-46 -19.5zM705 483v41q0 260 -224 260q-178 0 -272 -143l-57 41q111 172 331 172 q135 0 218 -82t83 -240v-532h-79l4 129q-96 -145 -289 -145q-145 0 -230.5 66.5t-85.5 189.5q0 119 88.5 181t217.5 62h295zM705 418h-285q-104 0 -170 -43t-66 -133q0 -186 244 -187q111 0 194 59.5t83 151.5v152z" />
<glyph unicode="&#xe5;" horiz-adv-x="948" d="M473 999q-80 0 -136 55.5t-56 133.5t56 133t136 55t136.5 -55t56.5 -133t-56.5 -133.5t-136.5 -55.5zM705 483v41q0 260 -224 260q-178 0 -272 -143l-57 41q111 172 331 172q135 0 218 -82t83 -240v-532h-79l4 129q-96 -145 -289 -145q-145 0 -230.5 66.5t-85.5 189.5 q0 119 88.5 181t217.5 62h295zM473 1063q53 0 86 33.5t33 91t-33 91.5t-86 34t-86 -34t-33 -91.5t33 -91t86 -33.5zM705 418h-285q-104 0 -170 -43t-66 -133q0 -186 244 -187q111 0 194 59.5t83 151.5v152z" />
<glyph unicode="&#xe6;" horiz-adv-x="1630" d="M705 475v49q0 260 -224 260q-178 0 -272 -143l-57 41q111 172 331 172q113 0 186.5 -59.5t92.5 -173.5q51 106 145 169.5t213 63.5q186 0 300 -128t110 -316h-748q4 -152 99.5 -253.5t255.5 -101.5q186 0 293 131l53 -47q-125 -156 -346 -155q-129 0 -226.5 62.5 t-148.5 168.5q-23 -111 -124 -171t-218 -60q-141 0 -228.5 65.5t-87.5 186.5q0 115 90.5 177t215.5 62h295zM786 475h662q-10 131 -94 220t-234 89q-135 0 -226.5 -89t-107.5 -220zM705 410h-285q-104 0 -170 -42t-66 -130q0 -182 244 -183q111 0 194 59.5t83 151.5v144z " />
<glyph unicode="&#xe7;" horiz-adv-x="950" d="M453 -10q-152 29 -249.5 148.5t-97.5 279.5q0 180 123 308t301 128q203 0 318 -141l-57 -47q-94 117 -261 116q-152 0 -246 -103.5t-94 -260.5q0 -156 94.5 -259.5t245.5 -103.5q178 0 277 125l57 -47q-121 -150 -334 -149h-4v-105q68 -8 116 -55t48 -119q0 -80 -54 -126 t-130 -46q-139 0 -193 119l62 37q43 -88 129 -88q45 0 75.5 28.5t30.5 77.5t-31.5 81t-95.5 32h-30v170z" />
<glyph unicode="&#xe8;" horiz-adv-x="1036" d="M489 1018l-180 399h94l154 -399h-68zM188 401q4 -154 99.5 -250t255.5 -96q186 0 293 131l53 -47q-125 -156 -346 -155q-195 0 -316 124.5t-121 309.5q0 180 122 308t298 128q186 0 300 -129t110 -324h-748zM190 467h664q-10 137 -94 227t-234 90q-139 0 -229.5 -89 t-106.5 -228z" />
<glyph unicode="&#xe9;" horiz-adv-x="1036" d="M479 1018l154 399h94l-180 -399h-68zM188 401q4 -154 99.5 -250t255.5 -96q186 0 293 131l53 -47q-125 -156 -346 -155q-195 0 -316 124.5t-121 309.5q0 180 122 308t298 128q186 0 300 -129t110 -324h-748zM190 467h664q-10 137 -94 227t-234 90q-139 0 -229.5 -89 t-106.5 -228z" />
<glyph unicode="&#xea;" horiz-adv-x="1036" d="M276 1012l232 372h18l232 -372h-72l-168 243l-170 -243h-72zM188 401q4 -154 99.5 -250t255.5 -96q186 0 293 131l53 -47q-125 -156 -346 -155q-195 0 -316 124.5t-121 309.5q0 180 122 308t298 128q186 0 300 -129t110 -324h-748zM190 467h664q-10 137 -94 227t-234 90 q-139 0 -229.5 -89t-106.5 -228z" />
<glyph unicode="&#xeb;" horiz-adv-x="1036" d="M673.5 1067q-26.5 0 -46 19.5t-19.5 46t19.5 46t46 19.5t46 -19.5t19.5 -46t-19.5 -46t-46 -19.5zM362.5 1067q-26.5 0 -46 19.5t-19.5 46t19.5 46t46 19.5t46 -19.5t19.5 -46t-19.5 -46t-46 -19.5zM188 401q4 -154 99.5 -250t255.5 -96q186 0 293 131l53 -47 q-125 -156 -346 -155q-195 0 -316 124.5t-121 309.5q0 180 122 308t298 128q186 0 300 -129t110 -324h-748zM190 467h664q-10 137 -94 227t-234 90q-139 0 -229.5 -89t-106.5 -228z" />
<glyph unicode="&#xec;" horiz-adv-x="425" d="M180 1018l-180 399h94l154 -399h-68zM174 0v836h80v-836h-80z" />
<glyph unicode="&#xed;" horiz-adv-x="425" d="M178 1018l154 399h94l-180 -399h-68zM174 0v836h80v-836h-80z" />
<glyph unicode="&#xee;" horiz-adv-x="425" d="M-29 1012l232 372h18l232 -372h-72l-168 243l-170 -243h-72zM174 0v836h80v-836h-80z" />
<glyph unicode="&#xef;" horiz-adv-x="425" d="M368.5 1067q-26.5 0 -46 19.5t-19.5 46t19.5 46t46 19.5t46 -19.5t19.5 -46t-19.5 -46t-46 -19.5zM57.5 1067q-26.5 0 -46 19.5t-19.5 46t19.5 46t46 19.5t46 -19.5t19.5 -46t-19.5 -46t-46 -19.5zM174 0v836h80v-836h-80z" />
<glyph unicode="&#xf0;" horiz-adv-x="1081" d="M578 1225l-150 -146l-47 47l151 150q-96 109 -186 186l49 49q96 -76 191 -182l149 148l49 -50l-153 -151q344 -416 344 -844q0 -182 -126 -315t-306 -133q-182 0 -309.5 128t-127.5 308t127 307t310 127q205 0 321 -172q-65 271 -286 543zM542.5 55q155.5 0 253 106.5 t97.5 270.5q0 152 -97.5 251t-253 99t-255 -103.5t-99.5 -259t99.5 -260t255 -104.5z" />
<glyph unicode="&#xf1;" horiz-adv-x="1042" d="M307 1001l-69 7q4 94 45 146t108 52q41 0 72 -17.5t74 -60.5q41 -41 58 -51t42 -10q68 0 80 133l69 -6q-10 -197 -151 -197q-41 0 -70.5 18.5t-75.5 61.5q-41 39 -57 49.5t-43 10.5q-70 -1 -82 -136zM172 0v836h80l-2 -187q41 96 125 150.5t194 54.5q141 0 226.5 -89 t85.5 -243v-522h-80v508q0 131 -61.5 201.5t-180.5 70.5q-137 0 -222 -85t-85 -228v-467h-80z" />
<glyph unicode="&#xf2;" horiz-adv-x="1081" d="M512 1018l-180 399h94l154 -399h-68zM542.5 -16q-182.5 0 -309.5 128t-127 308t127 307t309.5 127t307.5 -127t125 -307t-125 -308t-307.5 -128zM542.5 55q155.5 0 253 103.5t97.5 261.5t-97.5 260t-253 102t-255 -103.5t-99.5 -259t99.5 -260t255 -104.5z" />
<glyph unicode="&#xf3;" horiz-adv-x="1081" d="M502 1018l153 399h95l-181 -399h-67zM542.5 -16q-182.5 0 -309.5 128t-127 308t127 307t309.5 127t307.5 -127t125 -307t-125 -308t-307.5 -128zM542.5 55q155.5 0 253 103.5t97.5 261.5t-97.5 260t-253 102t-255 -103.5t-99.5 -259t99.5 -260t255 -104.5z" />
<glyph unicode="&#xf4;" horiz-adv-x="1081" d="M299 1012l231 372h19l231 -372h-71l-168 243l-170 -243h-72zM542.5 -16q-182.5 0 -309.5 128t-127 308t127 307t309.5 127t307.5 -127t125 -307t-125 -308t-307.5 -128zM542.5 55q155.5 0 253 103.5t97.5 261.5t-97.5 260t-253 102t-255 -103.5t-99.5 -259t99.5 -260 t255 -104.5z" />
<glyph unicode="&#xf5;" horiz-adv-x="1081" d="M336 1001l-70 7q4 94 45 146t109 52q41 0 71.5 -17.5t73.5 -60.5q41 -41 58.5 -51t42.5 -10q68 0 79 133l70 -6q-10 -197 -151 -197q-41 0 -71 18.5t-75 61.5q-41 39 -57.5 49.5t-42.5 10.5q-70 -1 -82 -136zM542.5 -16q-182.5 0 -309.5 128t-127 308t127 307t309.5 127 t307.5 -127t125 -307t-125 -308t-307.5 -128zM542.5 55q155.5 0 253 103.5t97.5 261.5t-97.5 260t-253 102t-255 -103.5t-99.5 -259t99.5 -260t255 -104.5z" />
<glyph unicode="&#xf6;" horiz-adv-x="1081" d="M696.5 1067q-26.5 0 -46 19.5t-19.5 46t19.5 46t46 19.5t46 -19.5t19.5 -46t-19.5 -46t-46 -19.5zM385 1067q-27 0 -46.5 19.5t-19.5 46t19.5 46t46.5 19.5t46.5 -19.5t19.5 -46t-19.5 -46t-46.5 -19.5zM542.5 -16q-182.5 0 -309.5 128t-127 308t127 307t309.5 127 t307.5 -127t125 -307t-125 -308t-307.5 -128zM542.5 55q155.5 0 253 103.5t97.5 261.5t-97.5 260t-253 102t-255 -103.5t-99.5 -259t99.5 -260t255 -104.5z" />
<glyph unicode="&#xf7;" d="M184 403q-31 0 -56.5 25t-25.5 57q0 35 25 58.5t57.5 23.5t57 -23.5t24.5 -58.5q0 -33 -24.5 -57.5t-57.5 -24.5z" />
<glyph unicode="&#xf8;" horiz-adv-x="1081" d="M877 698q98 -121 98 -278q0 -180 -125 -308t-307 -128q-164 0 -289 108l-121 -117l-47 48l121 116q-100 123 -101 281q0 180 127 307t310 127q168 0 288 -109l117 115l45 -49zM260 190l518 504q-94 88 -235 88q-156 0 -255.5 -103.5t-99.5 -258.5q0 -130 72 -230z M823 645l-518 -504q98 -86 238 -86q156 0 253 103.5t97 261.5q0 133 -70 225z" />
<glyph unicode="&#xf9;" horiz-adv-x="1042" d="M492 1018l-181 399h95l153 -399h-67zM475 -18q-141 0 -226 88t-85 239v527h80v-514q0 -266 239 -267q137 0 222.5 85t85.5 229v467h79v-836h-79l2 184q-43 -94 -126 -148t-192 -54z" />
<glyph unicode="&#xfa;" horiz-adv-x="1042" d="M481 1018l154 399h94l-180 -399h-68zM475 -18q-141 0 -226 88t-85 239v527h80v-514q0 -266 239 -267q137 0 222.5 85t85.5 229v467h79v-836h-79l2 184q-43 -94 -126 -148t-192 -54z" />
<glyph unicode="&#xfb;" horiz-adv-x="1042" d="M279 1012l231 372h18l232 -372h-72l-168 243l-170 -243h-71zM475 -18q-141 0 -226 88t-85 239v527h80v-514q0 -266 239 -267q137 0 222.5 85t85.5 229v467h79v-836h-79l2 184q-43 -94 -126 -148t-192 -54z" />
<glyph unicode="&#xfc;" horiz-adv-x="1042" d="M675.5 1067q-26.5 0 -46 19.5t-19.5 46t19.5 46t46 19.5t46 -19.5t19.5 -46t-19.5 -46t-46 -19.5zM364.5 1067q-26.5 0 -46 19.5t-19.5 46t19.5 46t46 19.5t46 -19.5t19.5 -46t-19.5 -46t-46 -19.5zM475 -18q-141 0 -226 88t-85 239v527h80v-514q0 -266 239 -267 q137 0 222.5 85t85.5 229v467h79v-836h-79l2 184q-43 -94 -126 -148t-192 -54z" />
<glyph unicode="&#xfd;" horiz-adv-x="919" d="M420 1018l153 399h95l-181 -399h-67zM225 -434l211 495l-370 775h86l292 -619l33 -98q12 57 31 98l264 619h82l-547 -1270h-82z" />
<glyph unicode="&#xfe;" horiz-adv-x="1128" d="M174 -434v1913h80v-842q49 98 140 157.5t214 59.5q178 0 296 -125t118 -309q0 -186 -118 -311t-296 -125q-117 0 -212 61t-142 158v-637h-80zM598 55q154 0 247 103.5t93 261.5t-93 260t-247 102q-156 0 -253 -102t-97 -260t97 -261.5t253 -103.5z" />
<glyph unicode="&#xff;" horiz-adv-x="919" d="M614.5 1067q-26.5 0 -46 19.5t-19.5 46t19.5 46t46 19.5t46 -19.5t19.5 -46t-19.5 -46t-46 -19.5zM303 1067q-27 0 -46 19.5t-19 46t19 46t46 19.5t46.5 -19.5t19.5 -46t-19.5 -46t-46.5 -19.5zM225 -434l211 495l-370 775h86l292 -619l33 -98q12 57 31 98l264 619h82 l-547 -1270h-82z" />
<glyph unicode="&#x152;" horiz-adv-x="2013" d="M852 0q-344 0 -539.5 191.5t-195.5 505t195.5 505t539.5 191.5h1012v-74h-729v-746h653v-73h-653v-426h757v-74h-1040zM862 76h189v1241h-189q-322 0 -490.5 -169t-168.5 -451.5t168.5 -451.5t490.5 -169z" />
<glyph unicode="&#x153;" horiz-adv-x="1816" d="M969 401q4 -154 99 -250t255 -96q186 0 293 131l53 -47q-125 -156 -346 -155q-147 0 -249.5 75.5t-143.5 200.5q-45 -125 -147.5 -200.5t-239.5 -75.5q-182 0 -309.5 128t-127.5 308t127 307t310 127q139 0 241.5 -77t145.5 -202q43 125 143.5 202t233.5 77 q186 0 299.5 -129t109.5 -324h-747zM971 467h663q-10 137 -94 227t-233 90q-139 0 -229.5 -89t-106.5 -228zM542.5 55q155.5 0 253 103.5t97.5 261.5t-97.5 260t-253 102t-255 -103.5t-99.5 -259t99.5 -260t255 -104.5z" />
<glyph unicode="&#x178;" horiz-adv-x="1316" d="M813 1595q-27 0 -46 19.5t-19 46.5t19 46t46 19t46.5 -19t19.5 -46t-19.5 -46.5t-46.5 -19.5zM501.5 1595q-26.5 0 -46 19.5t-19.5 46.5t19.5 46t46 19t46 -19t19.5 -46t-19.5 -46.5t-46 -19.5zM616 0v434l-526 959h94l445 -807l33 -84q18 51 36 84l443 807h88l-527 -961 v-432h-86z" />
<glyph unicode="&#x2c6;" horiz-adv-x="1024" d="M270 1012l232 372h18l232 -372h-72l-168 243l-170 -243h-72z" />
<glyph unicode="&#x2dc;" horiz-adv-x="1024" d="M307 1001l-69 7q4 94 45 146t108 52q41 0 72 -17.5t74 -60.5q41 -41 58 -51t42 -10q68 0 80 133l69 -6q-10 -197 -151 -197q-41 0 -70.5 18.5t-75.5 61.5q-41 39 -57 49.5t-43 10.5q-70 -1 -82 -136z" />
<glyph unicode="&#x2000;" horiz-adv-x="972" />
<glyph unicode="&#x2001;" horiz-adv-x="1945" />
<glyph unicode="&#x2002;" horiz-adv-x="972" />
<glyph unicode="&#x2003;" horiz-adv-x="1945" />
<glyph unicode="&#x2004;" horiz-adv-x="647" />
<glyph unicode="&#x2005;" horiz-adv-x="485" />
<glyph unicode="&#x2006;" horiz-adv-x="323" />
<glyph unicode="&#x2007;" horiz-adv-x="323" />
<glyph unicode="&#x2008;" horiz-adv-x="241" />
<glyph unicode="&#x2009;" horiz-adv-x="389" />
<glyph unicode="&#x200a;" horiz-adv-x="106" />
<glyph unicode="&#x2010;" horiz-adv-x="569" d="M104 426v74h359v-74h-359z" />
<glyph unicode="&#x2011;" horiz-adv-x="569" d="M104 426v74h359v-74h-359z" />
<glyph unicode="&#x2012;" horiz-adv-x="569" d="M104 426v74h359v-74h-359z" />
<glyph unicode="&#x2013;" horiz-adv-x="796" d="M78 330v69h639v-69h-639z" />
<glyph unicode="&#x2014;" horiz-adv-x="1243" d="M78 330v69h1087v-69h-1087z" />
<glyph unicode="&#x2018;" horiz-adv-x="364" d="M182.5 1032q-30.5 0 -55.5 24.5t-25 57.5q0 14 11 39l108 240h51l-65 -205q23 -4 39 -25.5t16 -48.5q0 -33 -24.5 -57.5t-55 -24.5z" />
<glyph unicode="&#x2019;" horiz-adv-x="364" d="M92 1047l66 204q-23 4 -39.5 25.5t-16.5 48.5q0 33 25 57.5t55.5 24.5t55 -24.5t24.5 -57.5q0 -14 -10 -39l-109 -239h-51z" />
<glyph unicode="&#x201a;" horiz-adv-x="364" d="M92 -211l66 205q-23 4 -39.5 25.5t-16.5 48.5q0 33 25 57.5t55.5 24.5t55 -25t24.5 -57q0 -14 -10 -39l-109 -240h-51z" />
<glyph unicode="&#x201c;" horiz-adv-x="632" d="M450.5 1032q-30.5 0 -55 24.5t-24.5 57.5q0 14 10 39l108 240h52l-66 -205q23 -4 39 -25.5t16 -48.5q0 -33 -24.5 -57.5t-55 -24.5zM182.5 1032q-30.5 0 -55.5 24.5t-25 57.5q0 14 11 39l108 240h51l-65 -205q23 -4 39 -25.5t16 -48.5q0 -33 -24.5 -57.5t-55 -24.5z" />
<glyph unicode="&#x201d;" horiz-adv-x="632" d="M360 1047l66 204q-23 4 -39 25.5t-16 48.5q0 33 24.5 57.5t55 24.5t55 -24.5t24.5 -57.5q0 -14 -10 -39l-108 -239h-52zM92 1047l66 204q-23 4 -39.5 25.5t-16.5 48.5q0 33 25 57.5t55.5 24.5t55 -24.5t24.5 -57.5q0 -14 -10 -39l-109 -239h-51z" />
<glyph unicode="&#x201e;" horiz-adv-x="632" d="M360 -211l66 205q-23 4 -39 25.5t-16 48.5q0 33 24.5 57.5t55 24.5t55 -25t24.5 -57q0 -14 -10 -39l-108 -240h-52zM92 -211l66 205q-23 4 -39.5 25.5t-16.5 48.5q0 33 25 57.5t55.5 24.5t55 -25t24.5 -57q0 -14 -10 -39l-109 -240h-51z" />
<glyph unicode="&#x2022;" horiz-adv-x="571" d="M286.5 342q-73.5 0 -128 53.5t-54.5 126.5q0 76 54.5 128t128 52t127 -52t53.5 -128q0 -74 -53.5 -127t-127 -53z" />
<glyph unicode="&#x2026;" horiz-adv-x="1142" d="M958 -14q-31 0 -56 24.5t-25 57.5q0 35 24.5 58.5t57 23.5t57 -24t24.5 -58q0 -33 -24.5 -57.5t-57.5 -24.5zM571 -14q-31 0 -56.5 24.5t-25.5 57.5q0 35 25 58.5t57.5 23.5t57 -24t24.5 -58q0 -33 -24.5 -57.5t-57.5 -24.5zM184 -14q-31 0 -56.5 24.5t-25.5 57.5 q0 35 25 58.5t57.5 23.5t57 -24t24.5 -58q0 -33 -24.5 -57.5t-57.5 -24.5z" />
<glyph unicode="&#x202f;" horiz-adv-x="389" />
<glyph unicode="&#x2039;" horiz-adv-x="450" d="M274 82l-190 315v17l190 315h93l-195 -323l195 -324h-93z" />
<glyph unicode="&#x203a;" horiz-adv-x="450" d="M84 82l195 324l-195 323h92l191 -315v-17l-191 -315h-92z" />
<glyph unicode="&#x205f;" horiz-adv-x="485" />
<glyph unicode="&#x20ac;" horiz-adv-x="1294" d="M260 588h-164v67h178q45 168 182.5 271.5t313.5 103.5q258 0 399 -196l-61 -48q-121 170 -338 170q-150 0 -259.5 -81.5t-150.5 -219.5h531v-67h-545q-6 -39 -6 -82q0 -47 6 -86h545v-68h-529q43 -135 153 -215t255 -80q229 0 346 176l66 -43q-131 -207 -412 -206 q-176 0 -312 101t-184 267h-178v68h164q-6 43 -6 86t6 82z" />
<glyph unicode="&#x2122;" horiz-adv-x="1499" d="M715 791v612h16l291 -342l291 342h16v-612h-76v444l-221 -266h-20l-221 266v-444h-76zM303 791v534h-192v68h458v-68h-190v-534h-76z" />
<glyph unicode="&#xe000;" horiz-adv-x="835" d="M0 835h835v-835h-835v835z" />
<glyph unicode="&#xfb01;" horiz-adv-x="952" d="M739.5 1128q-26.5 0 -47 19.5t-20.5 48.5t20.5 48.5t47 19.5t47 -19.5t20.5 -48.5t-20.5 -48.5t-47 -19.5zM207 0v768h-133v68h133v430q0 121 55 180t141 59q119 0 187 -98l-60 -45q-27 39 -52 55.5t-72 16.5q-119 0 -119 -170v-428h493v-836h-80v768h-413v-768h-80z" />
<glyph unicode="&#xfb02;" horiz-adv-x="964" d="M207 0v766h-133v70h133v366q0 145 85 224t206 79q119 0 200.5 -75.5t81.5 -227.5v-1202h-80v1196q0 117 -54 177.5t-148 60.5q-98 0 -154.5 -59.5t-56.5 -178.5v-360h223v-70h-223v-766h-80z" />
<glyph unicode="&#xfb03;" horiz-adv-x="1593" d="M1380 1128q-27 0 -47.5 19.5t-20.5 48.5t20.5 48.5t47.5 19.5t47.5 -19.5t20.5 -48.5t-20.5 -48.5t-47.5 -19.5zM1341 0v836h80v-836h-80zM791 0v768h-133v68h133v430q0 121 54 180t140 59q125 0 185 -102l-62 -41q-47 72 -121 72q-117 0 -116 -170v-428h223v-68h-223 v-768h-80zM207 0v768h-133v68h133v430q0 121 54 180t140 59q125 0 185 -102l-62 -41q-47 72 -121 72q-117 0 -116 -170v-428h223v-68h-223v-768h-80z" />
<glyph unicode="&#xfb04;" horiz-adv-x="1615" d="M1351 0v1479h80v-1479h-80zM791 0v768h-133v68h133v430q0 121 54 180t140 59q125 0 185 -102l-62 -41q-47 72 -121 72q-117 0 -116 -170v-428h223v-68h-223v-768h-80zM207 0v768h-133v68h133v430q0 121 54 180t140 59q125 0 185 -102l-62 -41q-47 72 -121 72 q-117 0 -116 -170v-428h223v-68h-223v-768h-80z" />
</font>
</defs>
</svg>
