<svg class="with-love" width="22" height="20" viewBox="0 0 22 20" xmlns="http://www.w3.org/2000/svg"><title>Artboard</title><g fill="none" fill-rule="nonzero"><path d="M0 2h2v8H0V2zm2-2h6v2H2V0zm6 2h2v2H8V2zm2 2h2v2h-2V4zm0 14h2v2h-2v-2zm2-2h2v2h-2v-2zm2-2h2v2h-2v-2zm2-2h2v2h-2v-2zm2-2h2v2h-2v-2zM8 16h2v2H8v-2zm-2-2h2v2H6v-2zm-2-2h2v2H4v-2zm-2-2h2v2H2v-2zm10-8h2v2h-2V2zm2-2h6v2h-6V0zm6 2h2v8h-2V2z" fill="#333"></path><path fill="#F22F46" d="M14 4V2h6v8h-2v2h-2v2h-2v2h-2v2h-2v-2H8v-2H6v-2H4v-2H2V2h6v2h2v2h2V4z"></path></g></svg>