<svg xmlns="http://www.w3.org/2000/svg" width="176" height="27" viewBox="0 0 176 27"><path fill="#233659" d="M97.1 3h6.9v3H93v2h-3v9h2v3h6v-6h-3v-3h9v12H90v-3h-3v-2h-3V9h3V6h3V3h7.1zM149 9h3v14h-6v-6h-9v6h-5V9h3V6h3V3h8v3h3v3zm-3 0h-3V6h-3v3h-3v6h9V9zm-93 3H42V6h5v3h6V6h-3V3H39v3h-3v6h3v2h11v6h-8v-3h-6v3h3v3h14v-3h3v-6h-3v-2zm112 8V3h-6v20h17v-3h-11zM63 6h6v14h-6v3h17v-3h-6V6h6V3H63v3zm59 6h-3V9h-2V6h-3V3h-6v20h6v-9h3v3h2v3h3v3h6V3h-6v9zM6 9v6h6v-3h3V9h3V6h3V0h-9v6H9v3H6zm15-3v3h3v9h-3v3h-3v6h3v-3h3v-3h3V6h-6zm0 12v-6h-6v3h-3v3H9v3H6v6h9v-6h3v-3h3zM3 18V9h3V6h3V0H6v3H3v3H0v15h6v-3H3z"></path></svg>