<svg xmlns="http://www.w3.org/2000/svg" class="hackpack-logo" height="80" width="1070" viewBox="0 0 535 40"><path fill="#233659" d="M124 5h5v6h-11V5h-11v6h-6v17h6v6h11v-6h11v6h-5v6h-23v-6h-5v-6h-6V11h6V5h5V0h23v5zm39 0h-5v6h-6v6h-6V0h-11v39h11V28h6v6h5v6h17v-6h-5v-6h-6v-5h-6v-6h6v-6h6V5h5V0h-11v5zm-84 6h6v28H73V28H56v11H45V11h5V6h6V0h17v6h6v5zm-6 0h-5V5h-6v6h-6v11h17V11zm-45 6H11V0H0v39h11V22h17v17h11V0H28v17zm507 5v6h-6v11h-11V28h-23V17h5v-6h6V5h6V0h17v22h6zm-18-11h-5v6h-6v5h11V11zM343 5h-5v6h-6v6h-6V0h-11v39h11V28h6v6h5v6h17v-6h-5v-6h-6v-5h-6v-6h6v-6h6V5h5V0h-11v5zm90 12h-6v6h-5v-6h-6V0h-11v22h6v6h5v6h6v6h6v-6h5v-6h6v-5h6V0h-12v17zm28 22h11V28h-11v11zM304 0h-23v5h-5v6h-6v17h6v6h5v6h23v-6h5v-6h-11v6h-11v-6h-6V11h6V5h11v6h11V5h-5V0zm-45 11h6v28h-12V28h-17v11h-11V11h5V6h6V0h17v6h6v5zm-6 0h-5V5h-6v6h-6v11h17V11zm-39-5h6v17h-6v5h-23v11h-11V0h34v6zm-6 0h-17v17h17V6z"></path></svg>