<svg width="108" height="108" viewBox="0 0 108 108" fill="none" xmlns="http://www.w3.org/2000/svg">
<path d="M94.7384 63.5977C86.2303 75.6834 75.6834 86.2303 63.5977 94.7384C76.9529 101.689 91.8047 106.161 107.543 107.543C106.161 91.8047 101.689 76.9529 94.7384 63.5977Z" fill="#99CDFF"/>
<path d="M44.4024 94.7384C31.0471 101.689 16.1953 106.161 0.457031 107.543C1.839 91.8047 6.31059 76.9529 13.2616 63.5977C21.7697 75.6834 32.3166 86.2303 44.4024 94.7384Z" fill="#99CDFF"/>
<path d="M107.543 0.457031C106.161 16.1953 101.689 31.0471 94.7384 44.4024C86.2303 32.3166 75.6834 21.7697 63.5977 13.2616C76.9529 6.31059 91.8047 1.839 107.543 0.457031Z" fill="#99CDFF"/>
<path d="M44.4024 13.2616C32.3166 21.7697 21.7697 32.3166 13.2616 44.4024C6.31059 31.0471 1.839 16.1953 0.457031 0.457031C16.1953 1.839 31.0471 6.31059 44.4024 13.2616Z" fill="#99CDFF"/>
</svg>
